<?xml version="1.0" encoding="UTF-8" standalone="no"?>
<!DOCTYPE svg PUBLIC "-//W3C//DTD SVG 1.1//EN"
 "http://www.w3.org/Graphics/SVG/1.1/DTD/svg11.dtd">
<!-- Generated by graphviz version 14.1.5 (20260411.2331)
 -->
<!-- Title: llm_wiki Pages: 1 -->
<svg width="949pt" height="3178pt"
 viewBox="0.00 0.00 949.00 3178.00" xmlns="http://www.w3.org/2000/svg" xmlns:xlink="http://www.w3.org/1999/xlink">
<g id="graph0" class="graph" transform="scale(1 1) rotate(0) translate(4 3173.75)">
<title>llm_wiki</title>
<polygon fill="white" stroke="none" points="-4,4 -4,-3173.75 945,-3173.75 945,4 -4,4"/>
<!-- AGENTS -->
<g id="node1" class="node">
<title>AGENTS</title>
<path fill="none" stroke="black" d="M286.75,-41C286.75,-41 188.25,-41 188.25,-41 182.25,-41 176.25,-35 176.25,-29 176.25,-29 176.25,-12 176.25,-12 176.25,-6 182.25,0 188.25,0 188.25,0 286.75,0 286.75,0 292.75,0 298.75,-6 298.75,-12 298.75,-12 298.75,-29 298.75,-29 298.75,-35 292.75,-41 286.75,-41"/>
<text xml:space="preserve" text-anchor="middle" x="237.5" y="-23.7" font-family="Times New Roman,serif" font-size="14.00">LLM Wiki Schema</text>
<text xml:space="preserve" text-anchor="middle" x="237.5" y="-7.2" font-family="Times New Roman,serif" font-size="14.00">AGENTS.md</text>
</g>
<!-- llm_wiki/README -->
<g id="node2" class="node">
<title>llm_wiki/README</title>
<path fill="none" stroke="black" d="M299.88,-100C299.88,-100 175.12,-100 175.12,-100 169.12,-100 163.12,-94 163.12,-88 163.12,-88 163.12,-71 163.12,-71 163.12,-65 169.12,-59 175.12,-59 175.12,-59 299.88,-59 299.88,-59 305.88,-59 311.88,-65 311.88,-71 311.88,-71 311.88,-88 311.88,-88 311.88,-94 305.88,-100 299.88,-100"/>
<text xml:space="preserve" text-anchor="middle" x="237.5" y="-82.7" font-family="Times New Roman,serif" font-size="14.00">Local LLM Wiki</text>
<text xml:space="preserve" text-anchor="middle" x="237.5" y="-66.2" font-family="Times New Roman,serif" font-size="14.00">llm_wiki/README.md</text>
</g>
<!-- notion_app_date_filter_fallback_skill/SKILL -->
<g id="node3" class="node">
<title>notion_app_date_filter_fallback_skill/SKILL</title>
<path fill="none" stroke="black" d="M367,-159C367,-159 108,-159 108,-159 102,-159 96,-153 96,-147 96,-147 96,-130 96,-130 96,-124 102,-118 108,-118 108,-118 367,-118 367,-118 373,-118 379,-124 379,-130 379,-130 379,-147 379,-147 379,-153 373,-159 367,-159"/>
<text xml:space="preserve" text-anchor="middle" x="237.5" y="-141.7" font-family="Times New Roman,serif" font-size="14.00">Notion App Date Filter Fallback Skill</text>
<text xml:space="preserve" text-anchor="middle" x="237.5" y="-125.2" font-family="Times New Roman,serif" font-size="14.00">notion_app_date_filter_fallback_skill/SKILL.md</text>
</g>
<!-- orange_example_10/bodyfat_analysis_report -->
<g id="node4" class="node">
<title>orange_example_10/bodyfat_analysis_report</title>
<path fill="none" stroke="black" d="M396.25,-218.38C396.25,-218.38 78.75,-218.38 78.75,-218.38 72.75,-218.38 66.75,-212.38 66.75,-206.38 66.75,-206.38 66.75,-188.62 66.75,-188.62 66.75,-182.62 72.75,-176.62 78.75,-176.62 78.75,-176.62 396.25,-176.62 396.25,-176.62 402.25,-176.62 408.25,-182.62 408.25,-188.62 408.25,-188.62 408.25,-206.38 408.25,-206.38 408.25,-212.38 402.25,-218.38 396.25,-218.38"/>
<text xml:space="preserve" text-anchor="middle" x="237.5" y="-201.07" font-family="Times New Roman,serif" font-size="14.00">Body Fat Brozek 시각 분석 보고서 (미리보기 중심)</text>
<text xml:space="preserve" text-anchor="middle" x="237.5" y="-183.82" font-family="Times New Roman,serif" font-size="14.00">orange_example_10/bodyfat_analysis_report.md</text>
</g>
<!-- orange_example_10/titanic_adaboost_report -->
<g id="node5" class="node">
<title>orange_example_10/titanic_adaboost_report</title>
<path fill="none" stroke="black" d="M365.12,-278.38C365.12,-278.38 109.88,-278.38 109.88,-278.38 103.88,-278.38 97.88,-272.38 97.88,-266.38 97.88,-266.38 97.88,-248.62 97.88,-248.62 97.88,-242.62 103.88,-236.62 109.88,-236.62 109.88,-236.62 365.12,-236.62 365.12,-236.62 371.12,-236.62 377.12,-242.62 377.12,-248.62 377.12,-248.62 377.12,-266.38 377.12,-266.38 377.12,-272.38 371.12,-278.38 365.12,-278.38"/>
<text xml:space="preserve" text-anchor="middle" x="237.5" y="-261.07" font-family="Times New Roman,serif" font-size="14.00">Titanic AdaBoost 분석 보고서</text>
<text xml:space="preserve" text-anchor="middle" x="237.5" y="-243.82" font-family="Times New Roman,serif" font-size="14.00">orange_example_10/titanic_adaboost_report.md</text>
</g>
<!-- orange_example_10/titanic_survival_report -->
<g id="node6" class="node">
<title>orange_example_10/titanic_survival_report</title>
<path fill="none" stroke="black" d="M362.88,-338.38C362.88,-338.38 112.12,-338.38 112.12,-338.38 106.12,-338.38 100.12,-332.38 100.12,-326.38 100.12,-326.38 100.12,-308.62 100.12,-308.62 100.12,-302.62 106.12,-296.62 112.12,-296.62 112.12,-296.62 362.88,-296.62 362.88,-296.62 368.88,-296.62 374.88,-302.62 374.88,-308.62 374.88,-308.62 374.88,-326.38 374.88,-326.38 374.88,-332.38 368.88,-338.38 362.88,-338.38"/>
<text xml:space="preserve" text-anchor="middle" x="237.5" y="-321.07" font-family="Times New Roman,serif" font-size="14.00">Titanic 생존 분석 보고서</text>
<text xml:space="preserve" text-anchor="middle" x="237.5" y="-303.82" font-family="Times New Roman,serif" font-size="14.00">orange_example_10/titanic_survival_report.md</text>
</g>
<!-- README -->
<g id="node7" class="node">
<title>README</title>
<path fill="none" stroke="black" d="M279.25,-397C279.25,-397 195.75,-397 195.75,-397 189.75,-397 183.75,-391 183.75,-385 183.75,-385 183.75,-368 183.75,-368 183.75,-362 189.75,-356 195.75,-356 195.75,-356 279.25,-356 279.25,-356 285.25,-356 291.25,-362 291.25,-368 291.25,-368 291.25,-385 291.25,-385 291.25,-391 285.25,-397 279.25,-397"/>
<text xml:space="preserve" text-anchor="middle" x="237.5" y="-379.7" font-family="Times New Roman,serif" font-size="14.00">AxDxConsultant</text>
<text xml:space="preserve" text-anchor="middle" x="237.5" y="-363.2" font-family="Times New Roman,serif" font-size="14.00">README.md</text>
</g>
<!-- 실습결과물/06/deep&#45;research&#45;report -->
<g id="node8" class="node">
<title>실습결과물/06/deep&#45;research&#45;report</title>
<path fill="none" stroke="black" d="M403.38,-457.75C403.38,-457.75 71.62,-457.75 71.62,-457.75 65.62,-457.75 59.62,-451.75 59.62,-445.75 59.62,-445.75 59.62,-427.25 59.62,-427.25 59.62,-421.25 65.62,-415.25 71.62,-415.25 71.62,-415.25 403.38,-415.25 403.38,-415.25 409.38,-415.25 415.38,-421.25 415.38,-427.25 415.38,-427.25 415.38,-445.75 415.38,-445.75 415.38,-451.75 409.38,-457.75 403.38,-457.75"/>
<text xml:space="preserve" text-anchor="middle" x="237.5" y="-440.45" font-family="Times New Roman,serif" font-size="14.00">PaperclipAI 교육 커리큘럼 및 강의자용 운영 패키지</text>
<text xml:space="preserve" text-anchor="middle" x="237.5" y="-423.2" font-family="Times New Roman,serif" font-size="14.00">실습결과물/06/deep&#45;research&#45;report.md</text>
</g>
<!-- 실습결과물/06/mermaidTest -->
<g id="node9" class="node">
<title>실습결과물/06/mermaidTest</title>
<path fill="none" stroke="black" d="M330.25,-518.75C330.25,-518.75 144.75,-518.75 144.75,-518.75 138.75,-518.75 132.75,-512.75 132.75,-506.75 132.75,-506.75 132.75,-488.25 132.75,-488.25 132.75,-482.25 138.75,-476.25 144.75,-476.25 144.75,-476.25 330.25,-476.25 330.25,-476.25 336.25,-476.25 342.25,-482.25 342.25,-488.25 342.25,-488.25 342.25,-506.75 342.25,-506.75 342.25,-512.75 336.25,-518.75 330.25,-518.75"/>
<text xml:space="preserve" text-anchor="middle" x="237.5" y="-501.45" font-family="Times New Roman,serif" font-size="14.00">머메이드 테스트</text>
<text xml:space="preserve" text-anchor="middle" x="237.5" y="-484.2" font-family="Times New Roman,serif" font-size="14.00">실습결과물/06/mermaidTest.md</text>
</g>
<!-- 실습결과물/06/paperclipai교육요약 -->
<g id="node10" class="node">
<title>실습결과물/06/paperclipai교육요약</title>
<path fill="none" stroke="black" d="M355.75,-579.75C355.75,-579.75 119.25,-579.75 119.25,-579.75 113.25,-579.75 107.25,-573.75 107.25,-567.75 107.25,-567.75 107.25,-549.25 107.25,-549.25 107.25,-543.25 113.25,-537.25 119.25,-537.25 119.25,-537.25 355.75,-537.25 355.75,-537.25 361.75,-537.25 367.75,-543.25 367.75,-549.25 367.75,-549.25 367.75,-567.75 367.75,-567.75 367.75,-573.75 361.75,-579.75 355.75,-579.75"/>
<text xml:space="preserve" text-anchor="middle" x="237.5" y="-562.45" font-family="Times New Roman,serif" font-size="14.00">2. 교육 요약본 (1페이지)</text>
<text xml:space="preserve" text-anchor="middle" x="237.5" y="-545.2" font-family="Times New Roman,serif" font-size="14.00">실습결과물/06/paperclipai교육요약.md</text>
</g>
<!-- 실습결과물/06/paperclipai사업계획서 -->
<g id="node11" class="node">
<title>실습결과물/06/paperclipai사업계획서</title>
<path fill="none" stroke="black" d="M363.62,-640.75C363.62,-640.75 111.38,-640.75 111.38,-640.75 105.38,-640.75 99.38,-634.75 99.38,-628.75 99.38,-628.75 99.38,-610.25 99.38,-610.25 99.38,-604.25 105.38,-598.25 111.38,-598.25 111.38,-598.25 363.62,-598.25 363.62,-598.25 369.62,-598.25 375.62,-604.25 375.62,-610.25 375.62,-610.25 375.62,-628.75 375.62,-628.75 375.62,-634.75 369.62,-640.75 363.62,-640.75"/>
<text xml:space="preserve" text-anchor="middle" x="237.5" y="-623.45" font-family="Times New Roman,serif" font-size="14.00">1. 사업계획서 (요약형)</text>
<text xml:space="preserve" text-anchor="middle" x="237.5" y="-606.2" font-family="Times New Roman,serif" font-size="14.00">실습결과물/06/paperclipai사업계획서.md</text>
</g>
<!-- 실습결과물/07/01&#45;업무&#45;흐름&#45;구조화 -->
<g id="node12" class="node">
<title>실습결과물/07/01&#45;업무&#45;흐름&#45;구조화</title>
<path fill="none" stroke="black" d="M851.38,-792.75C851.38,-792.75 600.62,-792.75 600.62,-792.75 594.62,-792.75 588.62,-786.75 588.62,-780.75 588.62,-780.75 588.62,-762.25 588.62,-762.25 588.62,-756.25 594.62,-750.25 600.62,-750.25 600.62,-750.25 851.38,-750.25 851.38,-750.25 857.38,-750.25 863.38,-756.25 863.38,-762.25 863.38,-762.25 863.38,-780.75 863.38,-780.75 863.38,-786.75 857.38,-792.75 851.38,-792.75"/>
<text xml:space="preserve" text-anchor="middle" x="726" y="-775.45" font-family="Times New Roman,serif" font-size="14.00">1. 업무 흐름 구조화</text>
<text xml:space="preserve" text-anchor="middle" x="726" y="-758.2" font-family="Times New Roman,serif" font-size="14.00">실습결과물/07/01&#45;업무&#45;흐름&#45;구조화.md</text>
</g>
<!-- 실습결과물/07/02&#45;업무&#45;흐름&#45;mermaid -->
<g id="node13" class="node">
<title>실습결과물/07/02&#45;업무&#45;흐름&#45;mermaid</title>
<path fill="none" stroke="black" d="M852.5,-731.75C852.5,-731.75 599.5,-731.75 599.5,-731.75 593.5,-731.75 587.5,-725.75 587.5,-719.75 587.5,-719.75 587.5,-701.25 587.5,-701.25 587.5,-695.25 593.5,-689.25 599.5,-689.25 599.5,-689.25 852.5,-689.25 852.5,-689.25 858.5,-689.25 864.5,-695.25 864.5,-701.25 864.5,-701.25 864.5,-719.75 864.5,-719.75 864.5,-725.75 858.5,-731.75 852.5,-731.75"/>
<text xml:space="preserve" text-anchor="middle" x="726" y="-714.45" font-family="Times New Roman,serif" font-size="14.00">업무 흐름 (Mermaid)</text>
<text xml:space="preserve" text-anchor="middle" x="726" y="-697.2" font-family="Times New Roman,serif" font-size="14.00">실습결과물/07/02&#45;업무&#45;흐름&#45;mermaid.md</text>
</g>
<!-- 실습결과물/07/03&#45;업무&#45;비효율&#45;수치화&#45;템플릿 -->
<g id="node14" class="node">
<title>실습결과물/07/03&#45;업무&#45;비효율&#45;수치화&#45;템플릿</title>
<path fill="none" stroke="black" d="M885.12,-670.75C885.12,-670.75 566.88,-670.75 566.88,-670.75 560.88,-670.75 554.88,-664.75 554.88,-658.75 554.88,-658.75 554.88,-640.25 554.88,-640.25 554.88,-634.25 560.88,-628.25 566.88,-628.25 566.88,-628.25 885.12,-628.25 885.12,-628.25 891.12,-628.25 897.12,-634.25 897.12,-640.25 897.12,-640.25 897.12,-658.75 897.12,-658.75 897.12,-664.75 891.12,-670.75 885.12,-670.75"/>
<text xml:space="preserve" text-anchor="middle" x="726" y="-653.45" font-family="Times New Roman,serif" font-size="14.00">나의 업무 비효율 수치화 템플릿 작성</text>
<text xml:space="preserve" text-anchor="middle" x="726" y="-636.2" font-family="Times New Roman,serif" font-size="14.00">실습결과물/07/03&#45;업무&#45;비효율&#45;수치화&#45;템플릿.md</text>
</g>
<!-- 실습결과물/07/04&#45;as&#45;is&#45;프로세스&#45;스케치 -->
<g id="node15" class="node">
<title>실습결과물/07/04&#45;as&#45;is&#45;프로세스&#45;스케치</title>
<path fill="none" stroke="black" d="M863.75,-609.75C863.75,-609.75 588.25,-609.75 588.25,-609.75 582.25,-609.75 576.25,-603.75 576.25,-597.75 576.25,-597.75 576.25,-579.25 576.25,-579.25 576.25,-573.25 582.25,-567.25 588.25,-567.25 588.25,-567.25 863.75,-567.25 863.75,-567.25 869.75,-567.25 875.75,-573.25 875.75,-579.25 875.75,-579.25 875.75,-597.75 875.75,-597.75 875.75,-603.75 869.75,-609.75 863.75,-609.75"/>
<text xml:space="preserve" text-anchor="middle" x="726" y="-592.45" font-family="Times New Roman,serif" font-size="14.00">AS&#45;IS 프로세스 스케치</text>
<text xml:space="preserve" text-anchor="middle" x="726" y="-575.2" font-family="Times New Roman,serif" font-size="14.00">실습결과물/07/04&#45;as&#45;is&#45;프로세스&#45;스케치.md</text>
</g>
<!-- 실습결과물/07/5가지단계로 나누기 -->
<g id="node16" class="node">
<title>실습결과물/07/5가지단계로 나누기</title>
<path fill="none" stroke="black" d="M362.5,-701.75C362.5,-701.75 112.5,-701.75 112.5,-701.75 106.5,-701.75 100.5,-695.75 100.5,-689.75 100.5,-689.75 100.5,-671.25 100.5,-671.25 100.5,-665.25 106.5,-659.25 112.5,-659.25 112.5,-659.25 362.5,-659.25 362.5,-659.25 368.5,-659.25 374.5,-665.25 374.5,-671.25 374.5,-671.25 374.5,-689.75 374.5,-689.75 374.5,-695.75 368.5,-701.75 362.5,-701.75"/>
<text xml:space="preserve" text-anchor="middle" x="237.5" y="-684.45" font-family="Times New Roman,serif" font-size="14.00">나의 어제 하루 업무 5단계 쪼개기</text>
<text xml:space="preserve" text-anchor="middle" x="237.5" y="-667.2" font-family="Times New Roman,serif" font-size="14.00">실습결과물/07/5가지단계로 나누기.md</text>
</g>
<!-- 실습결과물/07/5가지단계로 나누기&#45;&gt;실습결과물/07/01&#45;업무&#45;흐름&#45;구조화 -->
<g id="edge1" class="edge">
<title>실습결과물/07/5가지단계로 나누기&#45;&gt;실습결과물/07/01&#45;업무&#45;흐름&#45;구조화</title>
<path fill="none" stroke="black" d="M329.31,-702.23C382.14,-714.44 450.12,-729.4 511,-740.5 532.33,-744.39 554.92,-748.1 577.12,-751.51"/>
<polygon fill="black" stroke="black" points="576.43,-754.95 586.84,-752.99 577.48,-748.03 576.43,-754.95"/>
</g>
<!-- 실습결과물/07/5가지단계로 나누기&#45;&gt;실습결과물/07/02&#45;업무&#45;흐름&#45;mermaid -->
<g id="edge2" class="edge">
<title>실습결과물/07/5가지단계로 나누기&#45;&gt;실습결과물/07/02&#45;업무&#45;흐름&#45;mermaid</title>
<path fill="none" stroke="black" d="M374.99,-688.92C437.56,-692.78 511.9,-697.36 575.94,-701.31"/>
<polygon fill="black" stroke="black" points="575.65,-704.8 585.84,-701.92 576.08,-697.81 575.65,-704.8"/>
</g>
<!-- 실습결과물/07/5가지단계로 나누기&#45;&gt;실습결과물/07/03&#45;업무&#45;비효율&#45;수치화&#45;템플릿 -->
<g id="edge3" class="edge">
<title>실습결과물/07/5가지단계로 나누기&#45;&gt;실습결과물/07/03&#45;업무&#45;비효율&#45;수치화&#45;템플릿</title>
<path fill="none" stroke="black" d="M374.99,-671.8C427.19,-668.48 487.56,-664.63 543.32,-661.08"/>
<polygon fill="black" stroke="black" points="543.51,-664.57 553.27,-660.44 543.06,-657.59 543.51,-664.57"/>
</g>
<!-- 실습결과물/07/5가지단계로 나누기&#45;&gt;실습결과물/07/04&#45;as&#45;is&#45;프로세스&#45;스케치 -->
<g id="edge4" class="edge">
<title>실습결과물/07/5가지단계로 나누기&#45;&gt;실습결과물/07/04&#45;as&#45;is&#45;프로세스&#45;스케치</title>
<path fill="none" stroke="black" d="M374.95,-675.83C408.66,-671.14 443.99,-663.07 475,-649.5 494.08,-641.15 491.98,-627.98 511,-619.5 527.83,-612 546.08,-606.23 564.58,-601.81"/>
<polygon fill="black" stroke="black" points="565.33,-605.23 574.32,-599.63 563.8,-598.4 565.33,-605.23"/>
</g>
<!-- 실습결과물/07/업무분석보고서 -->
<g id="node17" class="node">
<title>실습결과물/07/업무분석보고서</title>
<path fill="none" stroke="black" d="M349.38,-853C349.38,-853 125.62,-853 125.62,-853 119.62,-853 113.62,-847 113.62,-841 113.62,-841 113.62,-824 113.62,-824 113.62,-818 119.62,-812 125.62,-812 125.62,-812 349.38,-812 349.38,-812 355.38,-812 361.38,-818 361.38,-824 361.38,-824 361.38,-841 361.38,-841 361.38,-847 355.38,-853 349.38,-853"/>
<text xml:space="preserve" text-anchor="middle" x="237.5" y="-835.7" font-family="Times New Roman,serif" font-size="14.00">업무분석보고서</text>
<text xml:space="preserve" text-anchor="middle" x="237.5" y="-819.95" font-family="Times New Roman,serif" font-size="14.00">실습결과물/07/업무분석보고서.md</text>
</g>
<!-- 실습결과물/08/01&#45;핵심&#45;업무&#45;리스트업&#45;및&#45;명세서&#45;프로세스 -->
<g id="node18" class="node">
<title>실습결과물/08/01&#45;핵심&#45;업무&#45;리스트업&#45;및&#45;명세서&#45;프로세스</title>
<path fill="none" stroke="black" d="M929,-1097.75C929,-1097.75 523,-1097.75 523,-1097.75 517,-1097.75 511,-1091.75 511,-1085.75 511,-1085.75 511,-1067.25 511,-1067.25 511,-1061.25 517,-1055.25 523,-1055.25 523,-1055.25 929,-1055.25 929,-1055.25 935,-1055.25 941,-1061.25 941,-1067.25 941,-1067.25 941,-1085.75 941,-1085.75 941,-1091.75 935,-1097.75 929,-1097.75"/>
<text xml:space="preserve" text-anchor="middle" x="726" y="-1080.45" font-family="Times New Roman,serif" font-size="14.00">나의 핵심 업무 리스트업</text>
<text xml:space="preserve" text-anchor="middle" x="726" y="-1063.2" font-family="Times New Roman,serif" font-size="14.00">실습결과물/08/01&#45;핵심&#45;업무&#45;리스트업&#45;및&#45;명세서&#45;프로세스.md</text>
</g>
<!-- 실습결과물/08/02&#45;AI&#45;활용영역&#45;보조&#45;요약&#45;생성&#45;분석 -->
<g id="node19" class="node">
<title>실습결과물/08/02&#45;AI&#45;활용영역&#45;보조&#45;요약&#45;생성&#45;분석</title>
<path fill="none" stroke="black" d="M904.62,-1036.75C904.62,-1036.75 547.38,-1036.75 547.38,-1036.75 541.38,-1036.75 535.38,-1030.75 535.38,-1024.75 535.38,-1024.75 535.38,-1006.25 535.38,-1006.25 535.38,-1000.25 541.38,-994.25 547.38,-994.25 547.38,-994.25 904.62,-994.25 904.62,-994.25 910.62,-994.25 916.62,-1000.25 916.62,-1006.25 916.62,-1006.25 916.62,-1024.75 916.62,-1024.75 916.62,-1030.75 910.62,-1036.75 904.62,-1036.75"/>
<text xml:space="preserve" text-anchor="middle" x="726" y="-1019.45" font-family="Times New Roman,serif" font-size="14.00">02&#45;AI&#45;활용영역&#45;보조&#45;요약&#45;생성&#45;분석</text>
<text xml:space="preserve" text-anchor="middle" x="726" y="-1002.2" font-family="Times New Roman,serif" font-size="14.00">실습결과물/08/02&#45;AI&#45;활용영역&#45;보조&#45;요약&#45;생성&#45;분석.md</text>
</g>
<!-- 실습결과물/08/03&#45;정량평가&#45;우선순위 -->
<g id="node20" class="node">
<title>실습결과물/08/03&#45;정량평가&#45;우선순위</title>
<path fill="none" stroke="black" d="M857,-975.75C857,-975.75 595,-975.75 595,-975.75 589,-975.75 583,-969.75 583,-963.75 583,-963.75 583,-945.25 583,-945.25 583,-939.25 589,-933.25 595,-933.25 595,-933.25 857,-933.25 857,-933.25 863,-933.25 869,-939.25 869,-945.25 869,-945.25 869,-963.75 869,-963.75 869,-969.75 863,-975.75 857,-975.75"/>
<text xml:space="preserve" text-anchor="middle" x="726" y="-958.45" font-family="Times New Roman,serif" font-size="14.00">03&#45;정량평가&#45;우선순위</text>
<text xml:space="preserve" text-anchor="middle" x="726" y="-941.2" font-family="Times New Roman,serif" font-size="14.00">실습결과물/08/03&#45;정량평가&#45;우선순위.md</text>
</g>
<!-- 실습결과물/08/04&#45;value&#45;estimation&#45;canvas -->
<g id="node21" class="node">
<title>실습결과물/08/04&#45;value&#45;estimation&#45;canvas</title>
<path fill="none" stroke="black" d="M857.75,-914.75C857.75,-914.75 594.25,-914.75 594.25,-914.75 588.25,-914.75 582.25,-908.75 582.25,-902.75 582.25,-902.75 582.25,-884.25 582.25,-884.25 582.25,-878.25 588.25,-872.25 594.25,-872.25 594.25,-872.25 857.75,-872.25 857.75,-872.25 863.75,-872.25 869.75,-878.25 869.75,-884.25 869.75,-884.25 869.75,-902.75 869.75,-902.75 869.75,-908.75 863.75,-914.75 857.75,-914.75"/>
<text xml:space="preserve" text-anchor="middle" x="726" y="-897.45" font-family="Times New Roman,serif" font-size="14.00">📊 나의 Value Estimation Canvas</text>
<text xml:space="preserve" text-anchor="middle" x="726" y="-880.2" font-family="Times New Roman,serif" font-size="14.00">실습결과물/08/04&#45;value&#45;estimation&#45;canvas.md</text>
</g>
<!-- 실습결과물/08/05&#45;명세서&#45;초안&#45;자동생성&#45;AI&#45;워크플로우 -->
<g id="node22" class="node">
<title>실습결과물/08/05&#45;명세서&#45;초안&#45;자동생성&#45;AI&#45;워크플로우</title>
<path fill="none" stroke="black" d="M918.12,-853.75C918.12,-853.75 533.88,-853.75 533.88,-853.75 527.88,-853.75 521.88,-847.75 521.88,-841.75 521.88,-841.75 521.88,-823.25 521.88,-823.25 521.88,-817.25 527.88,-811.25 533.88,-811.25 533.88,-811.25 918.12,-811.25 918.12,-811.25 924.12,-811.25 930.12,-817.25 930.12,-823.25 930.12,-823.25 930.12,-841.75 930.12,-841.75 930.12,-847.75 924.12,-853.75 918.12,-853.75"/>
<text xml:space="preserve" text-anchor="middle" x="726" y="-836.45" font-family="Times New Roman,serif" font-size="14.00">명세서 초안 자동 생성 AI 워크플로우</text>
<text xml:space="preserve" text-anchor="middle" x="726" y="-819.2" font-family="Times New Roman,serif" font-size="14.00">실습결과물/08/05&#45;명세서&#45;초안&#45;자동생성&#45;AI&#45;워크플로우.md</text>
</g>
<!-- 실습결과물/08/업무리스트 -->
<g id="node23" class="node">
<title>실습결과물/08/업무리스트</title>
<path fill="none" stroke="black" d="M333.62,-975.75C333.62,-975.75 141.38,-975.75 141.38,-975.75 135.38,-975.75 129.38,-969.75 129.38,-963.75 129.38,-963.75 129.38,-945.25 129.38,-945.25 129.38,-939.25 135.38,-933.25 141.38,-933.25 141.38,-933.25 333.62,-933.25 333.62,-933.25 339.62,-933.25 345.62,-939.25 345.62,-945.25 345.62,-945.25 345.62,-963.75 345.62,-963.75 345.62,-969.75 339.62,-975.75 333.62,-975.75"/>
<text xml:space="preserve" text-anchor="middle" x="237.5" y="-958.45" font-family="Times New Roman,serif" font-size="14.00">나의 핵심 업무 리스트업</text>
<text xml:space="preserve" text-anchor="middle" x="237.5" y="-941.2" font-family="Times New Roman,serif" font-size="14.00">실습결과물/08/업무리스트.md</text>
</g>
<!-- 실습결과물/08/업무리스트&#45;&gt;실습결과물/08/01&#45;핵심&#45;업무&#45;리스트업&#45;및&#45;명세서&#45;프로세스 -->
<g id="edge5" class="edge">
<title>실습결과물/08/업무리스트&#45;&gt;실습결과물/08/01&#45;핵심&#45;업무&#45;리스트업&#45;및&#45;명세서&#45;프로세스</title>
<path fill="none" stroke="black" d="M345.84,-948.96C389,-951.5 437.34,-960.81 475,-985.5 501.01,-1002.55 485.11,-1028.27 511,-1045.5 512.9,-1046.77 514.84,-1047.99 516.8,-1049.17"/>
<polygon fill="black" stroke="black" points="515.08,-1052.22 525.52,-1054.02 518.48,-1046.1 515.08,-1052.22"/>
</g>
<!-- 실습결과물/08/업무리스트&#45;&gt;실습결과물/08/02&#45;AI&#45;활용영역&#45;보조&#45;요약&#45;생성&#45;분석 -->
<g id="edge6" class="edge">
<title>실습결과물/08/업무리스트&#45;&gt;실습결과물/08/02&#45;AI&#45;활용영역&#45;보조&#45;요약&#45;생성&#45;분석</title>
<path fill="none" stroke="black" d="M345.87,-967.96C403,-975.13 474.87,-984.14 540.62,-992.38"/>
<polygon fill="black" stroke="black" points="540.11,-995.84 550.47,-993.62 540.98,-988.9 540.11,-995.84"/>
</g>
<!-- 실습결과물/08/업무리스트&#45;&gt;실습결과물/08/03&#45;정량평가&#45;우선순위 -->
<g id="edge7" class="edge">
<title>실습결과물/08/업무리스트&#45;&gt;실습결과물/08/03&#45;정량평가&#45;우선순위</title>
<path fill="none" stroke="black" d="M345.87,-954.5C412.14,-954.5 498.23,-954.5 571.62,-954.5"/>
<polygon fill="black" stroke="black" points="571.3,-958 581.3,-954.5 571.3,-951 571.3,-958"/>
</g>
<!-- 실습결과물/08/업무리스트&#45;&gt;실습결과물/08/04&#45;value&#45;estimation&#45;canvas -->
<g id="edge8" class="edge">
<title>실습결과물/08/업무리스트&#45;&gt;실습결과물/08/04&#45;value&#45;estimation&#45;canvas</title>
<path fill="none" stroke="black" d="M345.87,-941.04C411.87,-932.76 497.54,-922.02 570.73,-912.84"/>
<polygon fill="black" stroke="black" points="570.91,-916.35 580.4,-911.63 570.04,-909.4 570.91,-916.35"/>
</g>
<!-- 실습결과물/08/업무리스트&#45;&gt;실습결과물/08/05&#45;명세서&#45;초안&#45;자동생성&#45;AI&#45;워크플로우 -->
<g id="edge9" class="edge">
<title>실습결과물/08/업무리스트&#45;&gt;실습결과물/08/05&#45;명세서&#45;초안&#45;자동생성&#45;AI&#45;워크플로우</title>
<path fill="none" stroke="black" d="M293.76,-932.8C348.22,-912.2 434.2,-881.73 511,-863.5 521.75,-860.95 532.86,-858.57 544.1,-856.37"/>
<polygon fill="black" stroke="black" points="544.73,-859.81 553.89,-854.5 543.42,-852.93 544.73,-859.81"/>
</g>
<!-- 실습결과물/09/노래요청 -->
<g id="node24" class="node">
<title>실습결과물/09/노래요청</title>
<path fill="none" stroke="black" d="M325.75,-1036.75C325.75,-1036.75 149.25,-1036.75 149.25,-1036.75 143.25,-1036.75 137.25,-1030.75 137.25,-1024.75 137.25,-1024.75 137.25,-1006.25 137.25,-1006.25 137.25,-1000.25 143.25,-994.25 149.25,-994.25 149.25,-994.25 325.75,-994.25 325.75,-994.25 331.75,-994.25 337.75,-1000.25 337.75,-1006.25 337.75,-1006.25 337.75,-1024.75 337.75,-1024.75 337.75,-1030.75 331.75,-1036.75 325.75,-1036.75"/>
<text xml:space="preserve" text-anchor="middle" x="237.5" y="-1019.45" font-family="Times New Roman,serif" font-size="14.00">suno 노래 요청</text>
<text xml:space="preserve" text-anchor="middle" x="237.5" y="-1002.2" font-family="Times New Roman,serif" font-size="14.00">실습결과물/09/노래요청.md</text>
</g>
<!-- 실습결과물/09/문제 정의서 -->
<g id="node25" class="node">
<title>실습결과물/09/문제 정의서</title>
<path fill="none" stroke="black" d="M386.12,-1097.75C386.12,-1097.75 88.88,-1097.75 88.88,-1097.75 82.88,-1097.75 76.88,-1091.75 76.88,-1085.75 76.88,-1085.75 76.88,-1067.25 76.88,-1067.25 76.88,-1061.25 82.88,-1055.25 88.88,-1055.25 88.88,-1055.25 386.12,-1055.25 386.12,-1055.25 392.12,-1055.25 398.12,-1061.25 398.12,-1067.25 398.12,-1067.25 398.12,-1085.75 398.12,-1085.75 398.12,-1091.75 392.12,-1097.75 386.12,-1097.75"/>
<text xml:space="preserve" text-anchor="middle" x="237.5" y="-1080.45" font-family="Times New Roman,serif" font-size="14.00">📄 AI 협업 기반 문제 정의서 (Master Document)</text>
<text xml:space="preserve" text-anchor="middle" x="237.5" y="-1063.2" font-family="Times New Roman,serif" font-size="14.00">실습결과물/09/문제 정의서.md</text>
</g>
<!-- 실습결과물/09/미션20대여성상품 -->
<g id="node26" class="node">
<title>실습결과물/09/미션20대여성상품</title>
<path fill="none" stroke="black" d="M357.25,-1158.75C357.25,-1158.75 117.75,-1158.75 117.75,-1158.75 111.75,-1158.75 105.75,-1152.75 105.75,-1146.75 105.75,-1146.75 105.75,-1128.25 105.75,-1128.25 105.75,-1122.25 111.75,-1116.25 117.75,-1116.25 117.75,-1116.25 357.25,-1116.25 357.25,-1116.25 363.25,-1116.25 369.25,-1122.25 369.25,-1128.25 369.25,-1128.25 369.25,-1146.75 369.25,-1146.75 369.25,-1152.75 363.25,-1158.75 357.25,-1158.75"/>
<text xml:space="preserve" text-anchor="middle" x="237.5" y="-1141.45" font-family="Times New Roman,serif" font-size="14.00">1. 가성비 인식 개선 아이디어 20가지</text>
<text xml:space="preserve" text-anchor="middle" x="237.5" y="-1124.2" font-family="Times New Roman,serif" font-size="14.00">실습결과물/09/미션20대여성상품.md</text>
</g>
<!-- 실습결과물/09/현상에서문제로 -->
<g id="node27" class="node">
<title>실습결과물/09/현상에서문제로</title>
<path fill="none" stroke="black" d="M349.38,-1219.75C349.38,-1219.75 125.62,-1219.75 125.62,-1219.75 119.62,-1219.75 113.62,-1213.75 113.62,-1207.75 113.62,-1207.75 113.62,-1189.25 113.62,-1189.25 113.62,-1183.25 119.62,-1177.25 125.62,-1177.25 125.62,-1177.25 349.38,-1177.25 349.38,-1177.25 355.38,-1177.25 361.38,-1183.25 361.38,-1189.25 361.38,-1189.25 361.38,-1207.75 361.38,-1207.75 361.38,-1213.75 355.38,-1219.75 349.38,-1219.75"/>
<text xml:space="preserve" text-anchor="middle" x="237.5" y="-1202.45" font-family="Times New Roman,serif" font-size="14.00">문제 정의 정리</text>
<text xml:space="preserve" text-anchor="middle" x="237.5" y="-1185.2" font-family="Times New Roman,serif" font-size="14.00">실습결과물/09/현상에서문제로.md</text>
</g>
<!-- 실습결과물/13/AIDX_5일차_교시별_요약 -->
<g id="node28" class="node">
<title>실습결과물/13/AIDX_5일차_교시별_요약</title>
<path fill="none" stroke="black" d="M379.75,-1280.75C379.75,-1280.75 95.25,-1280.75 95.25,-1280.75 89.25,-1280.75 83.25,-1274.75 83.25,-1268.75 83.25,-1268.75 83.25,-1250.25 83.25,-1250.25 83.25,-1244.25 89.25,-1238.25 95.25,-1238.25 95.25,-1238.25 379.75,-1238.25 379.75,-1238.25 385.75,-1238.25 391.75,-1244.25 391.75,-1250.25 391.75,-1250.25 391.75,-1268.75 391.75,-1268.75 391.75,-1274.75 385.75,-1280.75 379.75,-1280.75"/>
<text xml:space="preserve" text-anchor="middle" x="237.5" y="-1263.45" font-family="Times New Roman,serif" font-size="14.00">AIDX_5일차_교시별_요약</text>
<text xml:space="preserve" text-anchor="middle" x="237.5" y="-1246.2" font-family="Times New Roman,serif" font-size="14.00">실습결과물/13/AIDX_5일차_교시별_요약.md</text>
</g>
<!-- 실습결과물/13/광물자료조사 -->
<g id="node29" class="node">
<title>실습결과물/13/광물자료조사</title>
<path fill="none" stroke="black" d="M341.5,-1340C341.5,-1340 133.5,-1340 133.5,-1340 127.5,-1340 121.5,-1334 121.5,-1328 121.5,-1328 121.5,-1311 121.5,-1311 121.5,-1305 127.5,-1299 133.5,-1299 133.5,-1299 341.5,-1299 341.5,-1299 347.5,-1299 353.5,-1305 353.5,-1311 353.5,-1311 353.5,-1328 353.5,-1328 353.5,-1334 347.5,-1340 341.5,-1340"/>
<text xml:space="preserve" text-anchor="middle" x="237.5" y="-1322.7" font-family="Times New Roman,serif" font-size="14.00">광물자료조사</text>
<text xml:space="preserve" text-anchor="middle" x="237.5" y="-1306.95" font-family="Times New Roman,serif" font-size="14.00">실습결과물/13/광물자료조사.md</text>
</g>
<!-- 실습결과물/13/노트북lm 수업 요약보고서 -->
<g id="node30" class="node">
<title>실습결과물/13/노트북lm 수업 요약보고서</title>
<path fill="none" stroke="black" d="M384.25,-1400.75C384.25,-1400.75 90.75,-1400.75 90.75,-1400.75 84.75,-1400.75 78.75,-1394.75 78.75,-1388.75 78.75,-1388.75 78.75,-1370.25 78.75,-1370.25 78.75,-1364.25 84.75,-1358.25 90.75,-1358.25 90.75,-1358.25 384.25,-1358.25 384.25,-1358.25 390.25,-1358.25 396.25,-1364.25 396.25,-1370.25 396.25,-1370.25 396.25,-1388.75 396.25,-1388.75 396.25,-1394.75 390.25,-1400.75 384.25,-1400.75"/>
<text xml:space="preserve" text-anchor="middle" x="237.5" y="-1383.45" font-family="Times New Roman,serif" font-size="14.00">노트북lm 수업 요약보고서</text>
<text xml:space="preserve" text-anchor="middle" x="237.5" y="-1366.2" font-family="Times New Roman,serif" font-size="14.00">실습결과물/13/노트북lm 수업 요약보고서.md</text>
</g>
<!-- 실습결과물/13/블로그 형태 -->
<g id="node31" class="node">
<title>실습결과물/13/블로그 형태</title>
<path fill="none" stroke="black" d="M335.5,-1461.75C335.5,-1461.75 139.5,-1461.75 139.5,-1461.75 133.5,-1461.75 127.5,-1455.75 127.5,-1449.75 127.5,-1449.75 127.5,-1431.25 127.5,-1431.25 127.5,-1425.25 133.5,-1419.25 139.5,-1419.25 139.5,-1419.25 335.5,-1419.25 335.5,-1419.25 341.5,-1419.25 347.5,-1425.25 347.5,-1431.25 347.5,-1431.25 347.5,-1449.75 347.5,-1449.75 347.5,-1455.75 341.5,-1461.75 335.5,-1461.75"/>
<text xml:space="preserve" text-anchor="middle" x="237.5" y="-1444.45" font-family="Times New Roman,serif" font-size="14.00">블로그 형태</text>
<text xml:space="preserve" text-anchor="middle" x="237.5" y="-1427.2" font-family="Times New Roman,serif" font-size="14.00">실습결과물/13/블로그 형태.md</text>
</g>
<!-- 실습결과물/13/수중드론_블로그 -->
<g id="node32" class="node">
<title>실습결과물/13/수중드론_블로그</title>
<path fill="none" stroke="black" d="M352.75,-1522.75C352.75,-1522.75 122.25,-1522.75 122.25,-1522.75 116.25,-1522.75 110.25,-1516.75 110.25,-1510.75 110.25,-1510.75 110.25,-1492.25 110.25,-1492.25 110.25,-1486.25 116.25,-1480.25 122.25,-1480.25 122.25,-1480.25 352.75,-1480.25 352.75,-1480.25 358.75,-1480.25 364.75,-1486.25 364.75,-1492.25 364.75,-1492.25 364.75,-1510.75 364.75,-1510.75 364.75,-1516.75 358.75,-1522.75 352.75,-1522.75"/>
<text xml:space="preserve" text-anchor="middle" x="237.5" y="-1505.45" font-family="Times New Roman,serif" font-size="14.00">수중드론_블로그</text>
<text xml:space="preserve" text-anchor="middle" x="237.5" y="-1488.2" font-family="Times New Roman,serif" font-size="14.00">실습결과물/13/수중드론_블로그.md</text>
</g>
<!-- 실습결과물/13/수중드론_사업화_기획안 -->
<g id="node33" class="node">
<title>실습결과물/13/수중드론_사업화_기획안</title>
<path fill="none" stroke="black" d="M379.75,-1583.75C379.75,-1583.75 95.25,-1583.75 95.25,-1583.75 89.25,-1583.75 83.25,-1577.75 83.25,-1571.75 83.25,-1571.75 83.25,-1553.25 83.25,-1553.25 83.25,-1547.25 89.25,-1541.25 95.25,-1541.25 95.25,-1541.25 379.75,-1541.25 379.75,-1541.25 385.75,-1541.25 391.75,-1547.25 391.75,-1553.25 391.75,-1553.25 391.75,-1571.75 391.75,-1571.75 391.75,-1577.75 385.75,-1583.75 379.75,-1583.75"/>
<text xml:space="preserve" text-anchor="middle" x="237.5" y="-1566.45" font-family="Times New Roman,serif" font-size="14.00">수중드론 사업화 기획안(운영형)</text>
<text xml:space="preserve" text-anchor="middle" x="237.5" y="-1549.2" font-family="Times New Roman,serif" font-size="14.00">실습결과물/13/수중드론_사업화_기획안.md</text>
</g>
<!-- 실습결과물/13/해양드론딥리서치결과 -->
<g id="node34" class="node">
<title>실습결과물/13/해양드론딥리서치결과</title>
<path fill="none" stroke="black" d="M392.5,-1644.75C392.5,-1644.75 82.5,-1644.75 82.5,-1644.75 76.5,-1644.75 70.5,-1638.75 70.5,-1632.75 70.5,-1632.75 70.5,-1614.25 70.5,-1614.25 70.5,-1608.25 76.5,-1602.25 82.5,-1602.25 82.5,-1602.25 392.5,-1602.25 392.5,-1602.25 398.5,-1602.25 404.5,-1608.25 404.5,-1614.25 404.5,-1614.25 404.5,-1632.75 404.5,-1632.75 404.5,-1638.75 398.5,-1644.75 392.5,-1644.75"/>
<text xml:space="preserve" text-anchor="middle" x="237.5" y="-1627.45" font-family="Times New Roman,serif" font-size="14.00">해양드론을 활용한 사업화 가능성 분석 보고서</text>
<text xml:space="preserve" text-anchor="middle" x="237.5" y="-1610.2" font-family="Times New Roman,serif" font-size="14.00">실습결과물/13/해양드론딥리서치결과.md</text>
</g>
<!-- 실습결과물/13/해양드론조사보고서 -->
<g id="node35" class="node">
<title>실습결과물/13/해양드론조사보고서</title>
<path fill="none" stroke="black" d="M365.12,-1705.75C365.12,-1705.75 109.88,-1705.75 109.88,-1705.75 103.88,-1705.75 97.88,-1699.75 97.88,-1693.75 97.88,-1693.75 97.88,-1675.25 97.88,-1675.25 97.88,-1669.25 103.88,-1663.25 109.88,-1663.25 109.88,-1663.25 365.12,-1663.25 365.12,-1663.25 371.12,-1663.25 377.12,-1669.25 377.12,-1675.25 377.12,-1675.25 377.12,-1693.75 377.12,-1693.75 377.12,-1699.75 371.12,-1705.75 365.12,-1705.75"/>
<text xml:space="preserve" text-anchor="middle" x="237.5" y="-1688.45" font-family="Times New Roman,serif" font-size="14.00">해양드론 조사 보고서</text>
<text xml:space="preserve" text-anchor="middle" x="237.5" y="-1671.2" font-family="Times New Roman,serif" font-size="14.00">실습결과물/13/해양드론조사보고서.md</text>
</g>
<!-- 실습결과물/14/2026_3_13_주간 업무일지 -->
<g id="node36" class="node">
<title>실습결과물/14/2026_3_13_주간 업무일지</title>
<path fill="none" stroke="black" d="M377.12,-1766.75C377.12,-1766.75 97.88,-1766.75 97.88,-1766.75 91.88,-1766.75 85.88,-1760.75 85.88,-1754.75 85.88,-1754.75 85.88,-1736.25 85.88,-1736.25 85.88,-1730.25 91.88,-1724.25 97.88,-1724.25 97.88,-1724.25 377.12,-1724.25 377.12,-1724.25 383.12,-1724.25 389.12,-1730.25 389.12,-1736.25 389.12,-1736.25 389.12,-1754.75 389.12,-1754.75 389.12,-1760.75 383.12,-1766.75 377.12,-1766.75"/>
<text xml:space="preserve" text-anchor="middle" x="237.5" y="-1749.45" font-family="Times New Roman,serif" font-size="14.00">🗓️ 주간 업무 보고서</text>
<text xml:space="preserve" text-anchor="middle" x="237.5" y="-1732.2" font-family="Times New Roman,serif" font-size="14.00">실습결과물/14/2026_3_13_주간 업무일지.md</text>
</g>
<!-- 실습결과물/14/2026_3_20_주간 업무일지 -->
<g id="node37" class="node">
<title>실습결과물/14/2026_3_20_주간 업무일지</title>
<path fill="none" stroke="black" d="M377.12,-1827.75C377.12,-1827.75 97.88,-1827.75 97.88,-1827.75 91.88,-1827.75 85.88,-1821.75 85.88,-1815.75 85.88,-1815.75 85.88,-1797.25 85.88,-1797.25 85.88,-1791.25 91.88,-1785.25 97.88,-1785.25 97.88,-1785.25 377.12,-1785.25 377.12,-1785.25 383.12,-1785.25 389.12,-1791.25 389.12,-1797.25 389.12,-1797.25 389.12,-1815.75 389.12,-1815.75 389.12,-1821.75 383.12,-1827.75 377.12,-1827.75"/>
<text xml:space="preserve" text-anchor="middle" x="237.5" y="-1810.45" font-family="Times New Roman,serif" font-size="14.00">🗓️ 주간 업무 보고서</text>
<text xml:space="preserve" text-anchor="middle" x="237.5" y="-1793.2" font-family="Times New Roman,serif" font-size="14.00">실습결과물/14/2026_3_20_주간 업무일지.md</text>
</g>
<!-- 실습결과물/14/2026_3_27_주간 업무일지 -->
<g id="node38" class="node">
<title>실습결과물/14/2026_3_27_주간 업무일지</title>
<path fill="none" stroke="black" d="M377.12,-1888.75C377.12,-1888.75 97.88,-1888.75 97.88,-1888.75 91.88,-1888.75 85.88,-1882.75 85.88,-1876.75 85.88,-1876.75 85.88,-1858.25 85.88,-1858.25 85.88,-1852.25 91.88,-1846.25 97.88,-1846.25 97.88,-1846.25 377.12,-1846.25 377.12,-1846.25 383.12,-1846.25 389.12,-1852.25 389.12,-1858.25 389.12,-1858.25 389.12,-1876.75 389.12,-1876.75 389.12,-1882.75 383.12,-1888.75 377.12,-1888.75"/>
<text xml:space="preserve" text-anchor="middle" x="237.5" y="-1871.45" font-family="Times New Roman,serif" font-size="14.00">🗓️ 주간 업무 보고서</text>
<text xml:space="preserve" text-anchor="middle" x="237.5" y="-1854.2" font-family="Times New Roman,serif" font-size="14.00">실습결과물/14/2026_3_27_주간 업무일지.md</text>
</g>
<!-- 실습결과물/14/2026_4_10_주간 업무일지 -->
<g id="node39" class="node">
<title>실습결과물/14/2026_4_10_주간 업무일지</title>
<path fill="none" stroke="black" d="M377.12,-1949.75C377.12,-1949.75 97.88,-1949.75 97.88,-1949.75 91.88,-1949.75 85.88,-1943.75 85.88,-1937.75 85.88,-1937.75 85.88,-1919.25 85.88,-1919.25 85.88,-1913.25 91.88,-1907.25 97.88,-1907.25 97.88,-1907.25 377.12,-1907.25 377.12,-1907.25 383.12,-1907.25 389.12,-1913.25 389.12,-1919.25 389.12,-1919.25 389.12,-1937.75 389.12,-1937.75 389.12,-1943.75 383.12,-1949.75 377.12,-1949.75"/>
<text xml:space="preserve" text-anchor="middle" x="237.5" y="-1932.45" font-family="Times New Roman,serif" font-size="14.00">🗓️ 주간 업무 보고서</text>
<text xml:space="preserve" text-anchor="middle" x="237.5" y="-1915.2" font-family="Times New Roman,serif" font-size="14.00">실습결과물/14/2026_4_10_주간 업무일지.md</text>
</g>
<!-- 실습결과물/14/2026_4_3_주간 업무일지 -->
<g id="node40" class="node">
<title>실습결과물/14/2026_4_3_주간 업무일지</title>
<path fill="none" stroke="black" d="M373.75,-2010.75C373.75,-2010.75 101.25,-2010.75 101.25,-2010.75 95.25,-2010.75 89.25,-2004.75 89.25,-1998.75 89.25,-1998.75 89.25,-1980.25 89.25,-1980.25 89.25,-1974.25 95.25,-1968.25 101.25,-1968.25 101.25,-1968.25 373.75,-1968.25 373.75,-1968.25 379.75,-1968.25 385.75,-1974.25 385.75,-1980.25 385.75,-1980.25 385.75,-1998.75 385.75,-1998.75 385.75,-2004.75 379.75,-2010.75 373.75,-2010.75"/>
<text xml:space="preserve" text-anchor="middle" x="237.5" y="-1993.45" font-family="Times New Roman,serif" font-size="14.00">🗓️ 주간 업무 보고서</text>
<text xml:space="preserve" text-anchor="middle" x="237.5" y="-1976.2" font-family="Times New Roman,serif" font-size="14.00">실습결과물/14/2026_4_3_주간 업무일지.md</text>
</g>
<!-- 실습결과물/14/AI요청 프롬프트 -->
<g id="node41" class="node">
<title>실습결과물/14/AI요청 프롬프트</title>
<path fill="none" stroke="black" d="M350.5,-2071.75C350.5,-2071.75 124.5,-2071.75 124.5,-2071.75 118.5,-2071.75 112.5,-2065.75 112.5,-2059.75 112.5,-2059.75 112.5,-2041.25 112.5,-2041.25 112.5,-2035.25 118.5,-2029.25 124.5,-2029.25 124.5,-2029.25 350.5,-2029.25 350.5,-2029.25 356.5,-2029.25 362.5,-2035.25 362.5,-2041.25 362.5,-2041.25 362.5,-2059.75 362.5,-2059.75 362.5,-2065.75 356.5,-2071.75 350.5,-2071.75"/>
<text xml:space="preserve" text-anchor="middle" x="237.5" y="-2054.45" font-family="Times New Roman,serif" font-size="14.00">AI요청 프롬프트</text>
<text xml:space="preserve" text-anchor="middle" x="237.5" y="-2037.2" font-family="Times New Roman,serif" font-size="14.00">실습결과물/14/AI요청 프롬프트.md</text>
</g>
<!-- 실습결과물/14/고려빙의_스토리라인 -->
<g id="node42" class="node">
<title>실습결과물/14/고려빙의_스토리라인</title>
<path fill="none" stroke="black" d="M368.5,-2132.75C368.5,-2132.75 106.5,-2132.75 106.5,-2132.75 100.5,-2132.75 94.5,-2126.75 94.5,-2120.75 94.5,-2120.75 94.5,-2102.25 94.5,-2102.25 94.5,-2096.25 100.5,-2090.25 106.5,-2090.25 106.5,-2090.25 368.5,-2090.25 368.5,-2090.25 374.5,-2090.25 380.5,-2096.25 380.5,-2102.25 380.5,-2102.25 380.5,-2120.75 380.5,-2120.75 380.5,-2126.75 374.5,-2132.75 368.5,-2132.75"/>
<text xml:space="preserve" text-anchor="middle" x="237.5" y="-2115.45" font-family="Times New Roman,serif" font-size="14.00">철혈의 새벽: 고려의 그림자 설계자</text>
<text xml:space="preserve" text-anchor="middle" x="237.5" y="-2098.2" font-family="Times New Roman,serif" font-size="14.00">실습결과물/14/고려빙의_스토리라인.md</text>
</g>
<!-- 실습결과물/14/목파_5부작_목차 -->
<g id="node43" class="node">
<title>실습결과물/14/목파_5부작_목차</title>
<path fill="none" stroke="black" d="M378.62,-2193.75C378.62,-2193.75 96.38,-2193.75 96.38,-2193.75 90.38,-2193.75 84.38,-2187.75 84.38,-2181.75 84.38,-2181.75 84.38,-2163.25 84.38,-2163.25 84.38,-2157.25 90.38,-2151.25 96.38,-2151.25 96.38,-2151.25 378.62,-2151.25 378.62,-2151.25 384.62,-2151.25 390.62,-2157.25 390.62,-2163.25 390.62,-2163.25 390.62,-2181.75 390.62,-2181.75 390.62,-2187.75 384.62,-2193.75 378.62,-2193.75"/>
<text xml:space="preserve" text-anchor="middle" x="237.5" y="-2176.45" font-family="Times New Roman,serif" font-size="14.00">철혈의 새벽: 고려의 그림자 설계자 (5부작)</text>
<text xml:space="preserve" text-anchor="middle" x="237.5" y="-2159.2" font-family="Times New Roman,serif" font-size="14.00">실습결과물/14/목파_5부작_목차.md</text>
</g>
<!-- 실습결과물/14/소설1권 -->
<g id="node44" class="node">
<title>실습결과물/14/소설1권</title>
<path fill="none" stroke="black" d="M353.12,-2254.75C353.12,-2254.75 121.88,-2254.75 121.88,-2254.75 115.88,-2254.75 109.88,-2248.75 109.88,-2242.75 109.88,-2242.75 109.88,-2224.25 109.88,-2224.25 109.88,-2218.25 115.88,-2212.25 121.88,-2212.25 121.88,-2212.25 353.12,-2212.25 353.12,-2212.25 359.12,-2212.25 365.12,-2218.25 365.12,-2224.25 365.12,-2224.25 365.12,-2242.75 365.12,-2242.75 365.12,-2248.75 359.12,-2254.75 353.12,-2254.75"/>
<text xml:space="preserve" text-anchor="middle" x="237.5" y="-2237.45" font-family="Times New Roman,serif" font-size="14.00">철혈의 새벽: 고려의 그림자 설계자</text>
<text xml:space="preserve" text-anchor="middle" x="237.5" y="-2220.2" font-family="Times New Roman,serif" font-size="14.00">실습결과물/14/소설1권.md</text>
</g>
<!-- 실습결과물/14/소설2권 -->
<g id="node45" class="node">
<title>실습결과물/14/소설2권</title>
<path fill="none" stroke="black" d="M353.12,-2315.75C353.12,-2315.75 121.88,-2315.75 121.88,-2315.75 115.88,-2315.75 109.88,-2309.75 109.88,-2303.75 109.88,-2303.75 109.88,-2285.25 109.88,-2285.25 109.88,-2279.25 115.88,-2273.25 121.88,-2273.25 121.88,-2273.25 353.12,-2273.25 353.12,-2273.25 359.12,-2273.25 365.12,-2279.25 365.12,-2285.25 365.12,-2285.25 365.12,-2303.75 365.12,-2303.75 365.12,-2309.75 359.12,-2315.75 353.12,-2315.75"/>
<text xml:space="preserve" text-anchor="middle" x="237.5" y="-2298.45" font-family="Times New Roman,serif" font-size="14.00">철혈의 새벽: 고려의 그림자 설계자</text>
<text xml:space="preserve" text-anchor="middle" x="237.5" y="-2281.2" font-family="Times New Roman,serif" font-size="14.00">실습결과물/14/소설2권.md</text>
</g>
<!-- 실습결과물/14/소설3권 -->
<g id="node46" class="node">
<title>실습결과물/14/소설3권</title>
<path fill="none" stroke="black" d="M353.12,-2376.75C353.12,-2376.75 121.88,-2376.75 121.88,-2376.75 115.88,-2376.75 109.88,-2370.75 109.88,-2364.75 109.88,-2364.75 109.88,-2346.25 109.88,-2346.25 109.88,-2340.25 115.88,-2334.25 121.88,-2334.25 121.88,-2334.25 353.12,-2334.25 353.12,-2334.25 359.12,-2334.25 365.12,-2340.25 365.12,-2346.25 365.12,-2346.25 365.12,-2364.75 365.12,-2364.75 365.12,-2370.75 359.12,-2376.75 353.12,-2376.75"/>
<text xml:space="preserve" text-anchor="middle" x="237.5" y="-2359.45" font-family="Times New Roman,serif" font-size="14.00">철혈의 새벽: 고려의 그림자 설계자</text>
<text xml:space="preserve" text-anchor="middle" x="237.5" y="-2342.2" font-family="Times New Roman,serif" font-size="14.00">실습결과물/14/소설3권.md</text>
</g>
<!-- 실습결과물/14/소설4권 -->
<g id="node47" class="node">
<title>실습결과물/14/소설4권</title>
<path fill="none" stroke="black" d="M353.12,-2437.75C353.12,-2437.75 121.88,-2437.75 121.88,-2437.75 115.88,-2437.75 109.88,-2431.75 109.88,-2425.75 109.88,-2425.75 109.88,-2407.25 109.88,-2407.25 109.88,-2401.25 115.88,-2395.25 121.88,-2395.25 121.88,-2395.25 353.12,-2395.25 353.12,-2395.25 359.12,-2395.25 365.12,-2401.25 365.12,-2407.25 365.12,-2407.25 365.12,-2425.75 365.12,-2425.75 365.12,-2431.75 359.12,-2437.75 353.12,-2437.75"/>
<text xml:space="preserve" text-anchor="middle" x="237.5" y="-2420.45" font-family="Times New Roman,serif" font-size="14.00">철혈의 새벽: 고려의 그림자 설계자</text>
<text xml:space="preserve" text-anchor="middle" x="237.5" y="-2403.2" font-family="Times New Roman,serif" font-size="14.00">실습결과물/14/소설4권.md</text>
</g>
<!-- 실습결과물/14/소설5권 -->
<g id="node48" class="node">
<title>실습결과물/14/소설5권</title>
<path fill="none" stroke="black" d="M353.12,-2498.75C353.12,-2498.75 121.88,-2498.75 121.88,-2498.75 115.88,-2498.75 109.88,-2492.75 109.88,-2486.75 109.88,-2486.75 109.88,-2468.25 109.88,-2468.25 109.88,-2462.25 115.88,-2456.25 121.88,-2456.25 121.88,-2456.25 353.12,-2456.25 353.12,-2456.25 359.12,-2456.25 365.12,-2462.25 365.12,-2468.25 365.12,-2468.25 365.12,-2486.75 365.12,-2486.75 365.12,-2492.75 359.12,-2498.75 353.12,-2498.75"/>
<text xml:space="preserve" text-anchor="middle" x="237.5" y="-2481.45" font-family="Times New Roman,serif" font-size="14.00">철혈의 새벽: 고려의 그림자 설계자</text>
<text xml:space="preserve" text-anchor="middle" x="237.5" y="-2464.2" font-family="Times New Roman,serif" font-size="14.00">실습결과물/14/소설5권.md</text>
</g>
<!-- 실습결과물/14/소설_연속작성_토큰로그 -->
<g id="node49" class="node">
<title>실습결과물/14/소설_연속작성_토큰로그</title>
<path fill="none" stroke="black" d="M402.25,-2559.75C402.25,-2559.75 72.75,-2559.75 72.75,-2559.75 66.75,-2559.75 60.75,-2553.75 60.75,-2547.75 60.75,-2547.75 60.75,-2529.25 60.75,-2529.25 60.75,-2523.25 66.75,-2517.25 72.75,-2517.25 72.75,-2517.25 402.25,-2517.25 402.25,-2517.25 408.25,-2517.25 414.25,-2523.25 414.25,-2529.25 414.25,-2529.25 414.25,-2547.75 414.25,-2547.75 414.25,-2553.75 408.25,-2559.75 402.25,-2559.75"/>
<text xml:space="preserve" text-anchor="middle" x="237.5" y="-2542.45" font-family="Times New Roman,serif" font-size="14.00">소설 5부작 작성 로그 (컨텍스트 압축 + 토큰 추정)</text>
<text xml:space="preserve" text-anchor="middle" x="237.5" y="-2525.2" font-family="Times New Roman,serif" font-size="14.00">실습결과물/14/소설_연속작성_토큰로그.md</text>
</g>
<!-- 실습결과물/14/수중드론_사업화_1페이지_BLUF -->
<g id="node50" class="node">
<title>실습결과물/14/수중드론_사업화_1페이지_BLUF</title>
<path fill="none" stroke="black" d="M403.38,-2620.75C403.38,-2620.75 71.62,-2620.75 71.62,-2620.75 65.62,-2620.75 59.62,-2614.75 59.62,-2608.75 59.62,-2608.75 59.62,-2590.25 59.62,-2590.25 59.62,-2584.25 65.62,-2578.25 71.62,-2578.25 71.62,-2578.25 403.38,-2578.25 403.38,-2578.25 409.38,-2578.25 415.38,-2584.25 415.38,-2590.25 415.38,-2590.25 415.38,-2608.75 415.38,-2608.75 415.38,-2614.75 409.38,-2620.75 403.38,-2620.75"/>
<text xml:space="preserve" text-anchor="middle" x="237.5" y="-2603.45" font-family="Times New Roman,serif" font-size="14.00">수중드론 사업화 1페이지 요약안 (BLUF)</text>
<text xml:space="preserve" text-anchor="middle" x="237.5" y="-2586.2" font-family="Times New Roman,serif" font-size="14.00">실습결과물/14/수중드론_사업화_1페이지_BLUF.md</text>
</g>
<!-- 실습결과물/14/수중드론_사업화_1페이지_BLUF_열정설득서술형 -->
<g id="node51" class="node">
<title>실습결과물/14/수중드론_사업화_1페이지_BLUF_열정설득서술형</title>
<path fill="none" stroke="black" d="M462.25,-2681.75C462.25,-2681.75 12.75,-2681.75 12.75,-2681.75 6.75,-2681.75 0.75,-2675.75 0.75,-2669.75 0.75,-2669.75 0.75,-2651.25 0.75,-2651.25 0.75,-2645.25 6.75,-2639.25 12.75,-2639.25 12.75,-2639.25 462.25,-2639.25 462.25,-2639.25 468.25,-2639.25 474.25,-2645.25 474.25,-2651.25 474.25,-2651.25 474.25,-2669.75 474.25,-2669.75 474.25,-2675.75 468.25,-2681.75 462.25,-2681.75"/>
<text xml:space="preserve" text-anchor="middle" x="237.5" y="-2664.45" font-family="Times New Roman,serif" font-size="14.00">수중드론 사업화 1페이지 제안서 (열정·설득 서술형)</text>
<text xml:space="preserve" text-anchor="middle" x="237.5" y="-2647.2" font-family="Times New Roman,serif" font-size="14.00">실습결과물/14/수중드론_사업화_1페이지_BLUF_열정설득서술형.md</text>
</g>
<!-- 실습결과물/14/수중드론_사업화_1페이지_BLUF_포멀서술형 -->
<g id="node52" class="node">
<title>실습결과물/14/수중드론_사업화_1페이지_BLUF_포멀서술형</title>
<path fill="none" stroke="black" d="M446.5,-2742.75C446.5,-2742.75 28.5,-2742.75 28.5,-2742.75 22.5,-2742.75 16.5,-2736.75 16.5,-2730.75 16.5,-2730.75 16.5,-2712.25 16.5,-2712.25 16.5,-2706.25 22.5,-2700.25 28.5,-2700.25 28.5,-2700.25 446.5,-2700.25 446.5,-2700.25 452.5,-2700.25 458.5,-2706.25 458.5,-2712.25 458.5,-2712.25 458.5,-2730.75 458.5,-2730.75 458.5,-2736.75 452.5,-2742.75 446.5,-2742.75"/>
<text xml:space="preserve" text-anchor="middle" x="237.5" y="-2725.45" font-family="Times New Roman,serif" font-size="14.00">수중드론 사업화 1페이지 보고서 (포멀 서술형)</text>
<text xml:space="preserve" text-anchor="middle" x="237.5" y="-2708.2" font-family="Times New Roman,serif" font-size="14.00">실습결과물/14/수중드론_사업화_1페이지_BLUF_포멀서술형.md</text>
</g>
<!-- 실습결과물/14/수중드론_사업화_기획안 -->
<g id="node53" class="node">
<title>실습결과물/14/수중드론_사업화_기획안</title>
<path fill="none" stroke="black" d="M379.75,-2803.75C379.75,-2803.75 95.25,-2803.75 95.25,-2803.75 89.25,-2803.75 83.25,-2797.75 83.25,-2791.75 83.25,-2791.75 83.25,-2773.25 83.25,-2773.25 83.25,-2767.25 89.25,-2761.25 95.25,-2761.25 95.25,-2761.25 379.75,-2761.25 379.75,-2761.25 385.75,-2761.25 391.75,-2767.25 391.75,-2773.25 391.75,-2773.25 391.75,-2791.75 391.75,-2791.75 391.75,-2797.75 385.75,-2803.75 379.75,-2803.75"/>
<text xml:space="preserve" text-anchor="middle" x="237.5" y="-2786.45" font-family="Times New Roman,serif" font-size="14.00">수중드론 사업화 기획안(운영형)</text>
<text xml:space="preserve" text-anchor="middle" x="237.5" y="-2769.2" font-family="Times New Roman,serif" font-size="14.00">실습결과물/14/수중드론_사업화_기획안.md</text>
</g>
<!-- 실습결과물/14/수중드론_사업화_상세기획안 -->
<g id="node54" class="node">
<title>실습결과물/14/수중드론_사업화_상세기획안</title>
<path fill="none" stroke="black" d="M395.5,-2864.75C395.5,-2864.75 79.5,-2864.75 79.5,-2864.75 73.5,-2864.75 67.5,-2858.75 67.5,-2852.75 67.5,-2852.75 67.5,-2834.25 67.5,-2834.25 67.5,-2828.25 73.5,-2822.25 79.5,-2822.25 79.5,-2822.25 395.5,-2822.25 395.5,-2822.25 401.5,-2822.25 407.5,-2828.25 407.5,-2834.25 407.5,-2834.25 407.5,-2852.75 407.5,-2852.75 407.5,-2858.75 401.5,-2864.75 395.5,-2864.75"/>
<text xml:space="preserve" text-anchor="middle" x="237.5" y="-2847.45" font-family="Times New Roman,serif" font-size="14.00">수중드론 사업화 상세 기획안</text>
<text xml:space="preserve" text-anchor="middle" x="237.5" y="-2830.2" font-family="Times New Roman,serif" font-size="14.00">실습결과물/14/수중드론_사업화_상세기획안.md</text>
</g>
<!-- 실습결과물/14/수중드론_사업화_타당성 -->
<g id="node55" class="node">
<title>실습결과물/14/수중드론_사업화_타당성</title>
<path fill="none" stroke="black" d="M463,-2925.75C463,-2925.75 12,-2925.75 12,-2925.75 6,-2925.75 0,-2919.75 0,-2913.75 0,-2913.75 0,-2895.25 0,-2895.25 0,-2889.25 6,-2883.25 12,-2883.25 12,-2883.25 463,-2883.25 463,-2883.25 469,-2883.25 475,-2889.25 475,-2895.25 475,-2895.25 475,-2913.75 475,-2913.75 475,-2919.75 469,-2925.75 463,-2925.75"/>
<text xml:space="preserve" text-anchor="middle" x="237.5" y="-2908.45" font-family="Times New Roman,serif" font-size="14.00">수중드론 사업화 운영안 초안 타당성 검증 및 객관적 피드백 보고서</text>
<text xml:space="preserve" text-anchor="middle" x="237.5" y="-2891.2" font-family="Times New Roman,serif" font-size="14.00">실습결과물/14/수중드론_사업화_타당성.md</text>
</g>
<!-- 실습결과물/14/시대상 과 역사적 사실 -->
<g id="node56" class="node">
<title>실습결과물/14/시대상 과 역사적 사실</title>
<path fill="none" stroke="black" d="M444.25,-2986.75C444.25,-2986.75 30.75,-2986.75 30.75,-2986.75 24.75,-2986.75 18.75,-2980.75 18.75,-2974.75 18.75,-2974.75 18.75,-2956.25 18.75,-2956.25 18.75,-2950.25 24.75,-2944.25 30.75,-2944.25 30.75,-2944.25 444.25,-2944.25 444.25,-2944.25 450.25,-2944.25 456.25,-2950.25 456.25,-2956.25 456.25,-2956.25 456.25,-2974.75 456.25,-2974.75 456.25,-2980.75 450.25,-2986.75 444.25,-2986.75"/>
<text xml:space="preserve" text-anchor="middle" x="237.5" y="-2969.45" font-family="Times New Roman,serif" font-size="14.00">후삼국~고려 건국기 시대상과 역사적 사실 검증 메모 (889~936)</text>
<text xml:space="preserve" text-anchor="middle" x="237.5" y="-2952.2" font-family="Times New Roman,serif" font-size="14.00">실습결과물/14/시대상 과 역사적 사실.md</text>
</g>
<!-- 실습결과물/14/업무일지 작성프롬프트 -->
<g id="node57" class="node">
<title>실습결과물/14/업무일지 작성프롬프트</title>
<path fill="none" stroke="black" d="M374.88,-3047.75C374.88,-3047.75 100.12,-3047.75 100.12,-3047.75 94.12,-3047.75 88.12,-3041.75 88.12,-3035.75 88.12,-3035.75 88.12,-3017.25 88.12,-3017.25 88.12,-3011.25 94.12,-3005.25 100.12,-3005.25 100.12,-3005.25 374.88,-3005.25 374.88,-3005.25 380.88,-3005.25 386.88,-3011.25 386.88,-3017.25 386.88,-3017.25 386.88,-3035.75 386.88,-3035.75 386.88,-3041.75 380.88,-3047.75 374.88,-3047.75"/>
<text xml:space="preserve" text-anchor="middle" x="237.5" y="-3030.45" font-family="Times New Roman,serif" font-size="14.00">업무일지 작성 프롬프트</text>
<text xml:space="preserve" text-anchor="middle" x="237.5" y="-3013.2" font-family="Times New Roman,serif" font-size="14.00">실습결과물/14/업무일지 작성프롬프트.md</text>
</g>
<!-- 실습결과물/14/이메일발송프롬프트 -->
<g id="node58" class="node">
<title>실습결과물/14/이메일발송프롬프트</title>
<path fill="none" stroke="black" d="M365.12,-3108.75C365.12,-3108.75 109.88,-3108.75 109.88,-3108.75 103.88,-3108.75 97.88,-3102.75 97.88,-3096.75 97.88,-3096.75 97.88,-3078.25 97.88,-3078.25 97.88,-3072.25 103.88,-3066.25 109.88,-3066.25 109.88,-3066.25 365.12,-3066.25 365.12,-3066.25 371.12,-3066.25 377.12,-3072.25 377.12,-3078.25 377.12,-3078.25 377.12,-3096.75 377.12,-3096.75 377.12,-3102.75 371.12,-3108.75 365.12,-3108.75"/>
<text xml:space="preserve" text-anchor="middle" x="237.5" y="-3091.45" font-family="Times New Roman,serif" font-size="14.00">이메일 발송 프롬프트</text>
<text xml:space="preserve" text-anchor="middle" x="237.5" y="-3074.2" font-family="Times New Roman,serif" font-size="14.00">실습결과물/14/이메일발송프롬프트.md</text>
</g>
<!-- 실습결과물/15/wikiLLM -->
<g id="node59" class="node">
<title>실습결과물/15/wikiLLM</title>
<path fill="none" stroke="black" d="M349,-3169.75C349,-3169.75 126,-3169.75 126,-3169.75 120,-3169.75 114,-3163.75 114,-3157.75 114,-3157.75 114,-3139.25 114,-3139.25 114,-3133.25 120,-3127.25 126,-3127.25 126,-3127.25 349,-3127.25 349,-3127.25 355,-3127.25 361,-3133.25 361,-3139.25 361,-3139.25 361,-3157.75 361,-3157.75 361,-3163.75 355,-3169.75 349,-3169.75"/>
<text xml:space="preserve" text-anchor="middle" x="237.5" y="-3152.45" font-family="Times New Roman,serif" font-size="14.00">wikillm 을 구현하기 위한 프롬프트</text>
<text xml:space="preserve" text-anchor="middle" x="237.5" y="-3135.2" font-family="Times New Roman,serif" font-size="14.00">실습결과물/15/wikiLLM.md</text>
</g>
</g>
</svg>
