<?xml version="1.0" encoding="UTF-8" standalone="no"?>
<!DOCTYPE svg PUBLIC "-//W3C//DTD SVG 1.1//EN"
 "http://www.w3.org/Graphics/SVG/1.1/DTD/svg11.dtd">
<!-- Generated by graphviz version 14.1.5 (20260411.2331)
 -->
<!-- Title: llm_wiki Pages: 1 -->
<svg width="2187pt" height="2039pt"
 viewBox="0.00 0.00 2187.00 2039.00" xmlns="http://www.w3.org/2000/svg" xmlns:xlink="http://www.w3.org/1999/xlink">
<g id="graph0" class="graph" transform="scale(1 1) rotate(0) translate(4 2034.75)">
<title>llm_wiki</title>
<polygon fill="white" stroke="none" points="-4,4 -4,-2034.75 2183.25,-2034.75 2183.25,4 -4,4"/>
<!-- AGENTS -->
<g id="node1" class="node">
<title>AGENTS</title>
<path fill="none" stroke="black" d="M1185,-110C1185,-110 1086.5,-110 1086.5,-110 1080.5,-110 1074.5,-104 1074.5,-98 1074.5,-98 1074.5,-81 1074.5,-81 1074.5,-75 1080.5,-69 1086.5,-69 1086.5,-69 1185,-69 1185,-69 1191,-69 1197,-75 1197,-81 1197,-81 1197,-98 1197,-98 1197,-104 1191,-110 1185,-110"/>
<text xml:space="preserve" text-anchor="middle" x="1135.75" y="-92.7" font-family="Times New Roman,serif" font-size="14.00">LLM Wiki Schema</text>
<text xml:space="preserve" text-anchor="middle" x="1135.75" y="-76.2" font-family="Times New Roman,serif" font-size="14.00">AGENTS.md</text>
</g>
<!-- llm_wiki/README -->
<g id="node2" class="node">
<title>llm_wiki/README</title>
<path fill="none" stroke="black" d="M1198.12,-41C1198.12,-41 1073.38,-41 1073.38,-41 1067.38,-41 1061.38,-35 1061.38,-29 1061.38,-29 1061.38,-12 1061.38,-12 1061.38,-6 1067.38,0 1073.38,0 1073.38,0 1198.12,0 1198.12,0 1204.12,0 1210.12,-6 1210.12,-12 1210.12,-12 1210.12,-29 1210.12,-29 1210.12,-35 1204.12,-41 1198.12,-41"/>
<text xml:space="preserve" text-anchor="middle" x="1135.75" y="-23.7" font-family="Times New Roman,serif" font-size="14.00">Local LLM Wiki</text>
<text xml:space="preserve" text-anchor="middle" x="1135.75" y="-7.2" font-family="Times New Roman,serif" font-size="14.00">llm_wiki/README.md</text>
</g>
<!-- notion_app_date_filter_fallback_skill/SKILL -->
<g id="node3" class="node">
<title>notion_app_date_filter_fallback_skill/SKILL</title>
<path fill="none" stroke="black" d="M305.88,-140C305.88,-140 46.88,-140 46.88,-140 40.88,-140 34.88,-134 34.88,-128 34.88,-128 34.88,-111 34.88,-111 34.88,-105 40.88,-99 46.88,-99 46.88,-99 305.88,-99 305.88,-99 311.88,-99 317.88,-105 317.88,-111 317.88,-111 317.88,-128 317.88,-128 317.88,-134 311.88,-140 305.88,-140"/>
<text xml:space="preserve" text-anchor="middle" x="176.38" y="-122.7" font-family="Times New Roman,serif" font-size="14.00">Notion App Date Filter Fallback Skill</text>
<text xml:space="preserve" text-anchor="middle" x="176.38" y="-106.2" font-family="Times New Roman,serif" font-size="14.00">notion_app_date_filter_fallback_skill/SKILL.md</text>
</g>
<!-- orange_example_10/bodyfat_analysis_report -->
<g id="node4" class="node">
<title>orange_example_10/bodyfat_analysis_report</title>
<path fill="none" stroke="black" d="M335.12,-199.38C335.12,-199.38 17.62,-199.38 17.62,-199.38 11.62,-199.38 5.62,-193.38 5.62,-187.38 5.62,-187.38 5.62,-169.62 5.62,-169.62 5.62,-163.62 11.62,-157.62 17.62,-157.62 17.62,-157.62 335.12,-157.62 335.12,-157.62 341.12,-157.62 347.12,-163.62 347.12,-169.62 347.12,-169.62 347.12,-187.38 347.12,-187.38 347.12,-193.38 341.12,-199.38 335.12,-199.38"/>
<text xml:space="preserve" text-anchor="middle" x="176.38" y="-182.07" font-family="Times New Roman,serif" font-size="14.00">Body Fat Brozek 시각 분석 보고서 (미리보기 중심)</text>
<text xml:space="preserve" text-anchor="middle" x="176.38" y="-164.82" font-family="Times New Roman,serif" font-size="14.00">orange_example_10/bodyfat_analysis_report.md</text>
</g>
<!-- orange_example_10/titanic_adaboost_report -->
<g id="node5" class="node">
<title>orange_example_10/titanic_adaboost_report</title>
<path fill="none" stroke="black" d="M304,-259.38C304,-259.38 48.75,-259.38 48.75,-259.38 42.75,-259.38 36.75,-253.38 36.75,-247.38 36.75,-247.38 36.75,-229.62 36.75,-229.62 36.75,-223.62 42.75,-217.62 48.75,-217.62 48.75,-217.62 304,-217.62 304,-217.62 310,-217.62 316,-223.62 316,-229.62 316,-229.62 316,-247.38 316,-247.38 316,-253.38 310,-259.38 304,-259.38"/>
<text xml:space="preserve" text-anchor="middle" x="176.38" y="-242.07" font-family="Times New Roman,serif" font-size="14.00">Titanic AdaBoost 분석 보고서</text>
<text xml:space="preserve" text-anchor="middle" x="176.38" y="-224.82" font-family="Times New Roman,serif" font-size="14.00">orange_example_10/titanic_adaboost_report.md</text>
</g>
<!-- orange_example_10/titanic_survival_report -->
<g id="node6" class="node">
<title>orange_example_10/titanic_survival_report</title>
<path fill="none" stroke="black" d="M301.75,-319.38C301.75,-319.38 51,-319.38 51,-319.38 45,-319.38 39,-313.38 39,-307.38 39,-307.38 39,-289.62 39,-289.62 39,-283.62 45,-277.62 51,-277.62 51,-277.62 301.75,-277.62 301.75,-277.62 307.75,-277.62 313.75,-283.62 313.75,-289.62 313.75,-289.62 313.75,-307.38 313.75,-307.38 313.75,-313.38 307.75,-319.38 301.75,-319.38"/>
<text xml:space="preserve" text-anchor="middle" x="176.38" y="-302.07" font-family="Times New Roman,serif" font-size="14.00">Titanic 생존 분석 보고서</text>
<text xml:space="preserve" text-anchor="middle" x="176.38" y="-284.82" font-family="Times New Roman,serif" font-size="14.00">orange_example_10/titanic_survival_report.md</text>
</g>
<!-- README -->
<g id="node7" class="node">
<title>README</title>
<path fill="none" stroke="black" d="M218.12,-378C218.12,-378 134.62,-378 134.62,-378 128.62,-378 122.62,-372 122.62,-366 122.62,-366 122.62,-349 122.62,-349 122.62,-343 128.62,-337 134.62,-337 134.62,-337 218.12,-337 218.12,-337 224.12,-337 230.12,-343 230.12,-349 230.12,-349 230.12,-366 230.12,-366 230.12,-372 224.12,-378 218.12,-378"/>
<text xml:space="preserve" text-anchor="middle" x="176.38" y="-360.7" font-family="Times New Roman,serif" font-size="14.00">AxDxConsultant</text>
<text xml:space="preserve" text-anchor="middle" x="176.38" y="-344.2" font-family="Times New Roman,serif" font-size="14.00">README.md</text>
</g>
<!-- 실습결과물/06/00&#45;INDEX -->
<g id="node8" class="node">
<title>실습결과물/06/00&#45;INDEX</title>
<path fill="none" stroke="black" d="M263.12,-438.75C263.12,-438.75 89.62,-438.75 89.62,-438.75 83.62,-438.75 77.62,-432.75 77.62,-426.75 77.62,-426.75 77.62,-408.25 77.62,-408.25 77.62,-402.25 83.62,-396.25 89.62,-396.25 89.62,-396.25 263.12,-396.25 263.12,-396.25 269.12,-396.25 275.12,-402.25 275.12,-408.25 275.12,-408.25 275.12,-426.75 275.12,-426.75 275.12,-432.75 269.12,-438.75 263.12,-438.75"/>
<text xml:space="preserve" text-anchor="middle" x="176.38" y="-421.45" font-family="Times New Roman,serif" font-size="14.00">실습결과물 06 인덱스</text>
<text xml:space="preserve" text-anchor="middle" x="176.38" y="-404.2" font-family="Times New Roman,serif" font-size="14.00">실습결과물/06/00&#45;INDEX.md</text>
</g>
<!-- 실습결과물/06/deep&#45;research&#45;report -->
<g id="node9" class="node">
<title>실습결과물/06/deep&#45;research&#45;report</title>
<path fill="none" stroke="black" d="M791.38,-529.75C791.38,-529.75 459.62,-529.75 459.62,-529.75 453.62,-529.75 447.62,-523.75 447.62,-517.75 447.62,-517.75 447.62,-499.25 447.62,-499.25 447.62,-493.25 453.62,-487.25 459.62,-487.25 459.62,-487.25 791.38,-487.25 791.38,-487.25 797.38,-487.25 803.38,-493.25 803.38,-499.25 803.38,-499.25 803.38,-517.75 803.38,-517.75 803.38,-523.75 797.38,-529.75 791.38,-529.75"/>
<text xml:space="preserve" text-anchor="middle" x="625.5" y="-512.45" font-family="Times New Roman,serif" font-size="14.00">PaperclipAI 교육 커리큘럼 및 강의자용 운영 패키지</text>
<text xml:space="preserve" text-anchor="middle" x="625.5" y="-495.2" font-family="Times New Roman,serif" font-size="14.00">실습결과물/06/deep&#45;research&#45;report.md</text>
</g>
<!-- 실습결과물/06/00&#45;INDEX&#45;&gt;실습결과물/06/deep&#45;research&#45;report -->
<g id="edge1" class="edge">
<title>실습결과물/06/00&#45;INDEX&#45;&gt;실습결과물/06/deep&#45;research&#45;report</title>
<path fill="none" stroke="black" d="M244.34,-439.22C285.61,-451.92 339.81,-467.39 388.75,-477.5 404.11,-480.67 420.1,-483.58 436.19,-486.25"/>
<polygon fill="black" stroke="black" points="435.42,-489.67 445.85,-487.81 436.54,-482.76 435.42,-489.67"/>
</g>
<!-- 실습결과물/06/mermaidTest -->
<g id="node10" class="node">
<title>실습결과물/06/mermaidTest</title>
<path fill="none" stroke="black" d="M718.25,-468.75C718.25,-468.75 532.75,-468.75 532.75,-468.75 526.75,-468.75 520.75,-462.75 520.75,-456.75 520.75,-456.75 520.75,-438.25 520.75,-438.25 520.75,-432.25 526.75,-426.25 532.75,-426.25 532.75,-426.25 718.25,-426.25 718.25,-426.25 724.25,-426.25 730.25,-432.25 730.25,-438.25 730.25,-438.25 730.25,-456.75 730.25,-456.75 730.25,-462.75 724.25,-468.75 718.25,-468.75"/>
<text xml:space="preserve" text-anchor="middle" x="625.5" y="-451.45" font-family="Times New Roman,serif" font-size="14.00">머메이드 테스트</text>
<text xml:space="preserve" text-anchor="middle" x="625.5" y="-434.2" font-family="Times New Roman,serif" font-size="14.00">실습결과물/06/mermaidTest.md</text>
</g>
<!-- 실습결과물/06/00&#45;INDEX&#45;&gt;실습결과물/06/mermaidTest -->
<g id="edge4" class="edge">
<title>실습결과물/06/00&#45;INDEX&#45;&gt;실습결과물/06/mermaidTest</title>
<path fill="none" stroke="black" d="M275.5,-424.08C344.31,-428.7 436.56,-434.89 508.94,-439.75"/>
<polygon fill="black" stroke="black" points="508.66,-443.24 518.87,-440.41 509.13,-436.25 508.66,-443.24"/>
</g>
<!-- 실습결과물/06/paperclipai교육요약 -->
<g id="node11" class="node">
<title>실습결과물/06/paperclipai교육요약</title>
<path fill="none" stroke="black" d="M743.75,-407.75C743.75,-407.75 507.25,-407.75 507.25,-407.75 501.25,-407.75 495.25,-401.75 495.25,-395.75 495.25,-395.75 495.25,-377.25 495.25,-377.25 495.25,-371.25 501.25,-365.25 507.25,-365.25 507.25,-365.25 743.75,-365.25 743.75,-365.25 749.75,-365.25 755.75,-371.25 755.75,-377.25 755.75,-377.25 755.75,-395.75 755.75,-395.75 755.75,-401.75 749.75,-407.75 743.75,-407.75"/>
<text xml:space="preserve" text-anchor="middle" x="625.5" y="-390.45" font-family="Times New Roman,serif" font-size="14.00">2. 교육 요약본 (1페이지)</text>
<text xml:space="preserve" text-anchor="middle" x="625.5" y="-373.2" font-family="Times New Roman,serif" font-size="14.00">실습결과물/06/paperclipai교육요약.md</text>
</g>
<!-- 실습결과물/06/00&#45;INDEX&#45;&gt;실습결과물/06/paperclipai교육요약 -->
<g id="edge2" class="edge">
<title>실습결과물/06/00&#45;INDEX&#45;&gt;실습결과물/06/paperclipai교육요약</title>
<path fill="none" stroke="black" d="M275.5,-410.7C336.5,-406.47 415.92,-400.96 483.58,-396.27"/>
<polygon fill="black" stroke="black" points="483.53,-399.78 493.26,-395.6 483.04,-392.8 483.53,-399.78"/>
</g>
<!-- 실습결과물/06/paperclipai사업계획서 -->
<g id="node12" class="node">
<title>실습결과물/06/paperclipai사업계획서</title>
<path fill="none" stroke="black" d="M751.62,-346.75C751.62,-346.75 499.38,-346.75 499.38,-346.75 493.38,-346.75 487.38,-340.75 487.38,-334.75 487.38,-334.75 487.38,-316.25 487.38,-316.25 487.38,-310.25 493.38,-304.25 499.38,-304.25 499.38,-304.25 751.62,-304.25 751.62,-304.25 757.62,-304.25 763.62,-310.25 763.62,-316.25 763.62,-316.25 763.62,-334.75 763.62,-334.75 763.62,-340.75 757.62,-346.75 751.62,-346.75"/>
<text xml:space="preserve" text-anchor="middle" x="625.5" y="-329.45" font-family="Times New Roman,serif" font-size="14.00">1. 사업계획서 (요약형)</text>
<text xml:space="preserve" text-anchor="middle" x="625.5" y="-312.2" font-family="Times New Roman,serif" font-size="14.00">실습결과물/06/paperclipai사업계획서.md</text>
</g>
<!-- 실습결과물/06/00&#45;INDEX&#45;&gt;실습결과물/06/paperclipai사업계획서 -->
<g id="edge3" class="edge">
<title>실습결과물/06/00&#45;INDEX&#45;&gt;실습결과물/06/paperclipai사업계획서</title>
<path fill="none" stroke="black" d="M275.23,-409.38C301.25,-404.79 328.77,-397.64 352.75,-386.5 371.64,-377.73 369.67,-364.85 388.75,-356.5 415.74,-344.68 446.01,-337.04 475.63,-332.17"/>
<polygon fill="black" stroke="black" points="476.09,-335.64 485.45,-330.67 475.03,-328.72 476.09,-335.64"/>
</g>
<!-- 실습결과물/07/00&#45;INDEX -->
<g id="node13" class="node">
<title>실습결과물/07/00&#45;INDEX</title>
<path fill="none" stroke="black" d="M263.12,-665.75C263.12,-665.75 89.62,-665.75 89.62,-665.75 83.62,-665.75 77.62,-659.75 77.62,-653.75 77.62,-653.75 77.62,-635.25 77.62,-635.25 77.62,-629.25 83.62,-623.25 89.62,-623.25 89.62,-623.25 263.12,-623.25 263.12,-623.25 269.12,-623.25 275.12,-629.25 275.12,-635.25 275.12,-635.25 275.12,-653.75 275.12,-653.75 275.12,-659.75 269.12,-665.75 263.12,-665.75"/>
<text xml:space="preserve" text-anchor="middle" x="176.38" y="-648.45" font-family="Times New Roman,serif" font-size="14.00">실습결과물 07 인덱스</text>
<text xml:space="preserve" text-anchor="middle" x="176.38" y="-631.2" font-family="Times New Roman,serif" font-size="14.00">실습결과물/07/00&#45;INDEX.md</text>
</g>
<!-- 실습결과물/07/01&#45;업무&#45;흐름&#45;구조화 -->
<g id="node14" class="node">
<title>실습결과물/07/01&#45;업무&#45;흐름&#45;구조화</title>
<path fill="none" stroke="black" d="M1261.12,-786.75C1261.12,-786.75 1010.38,-786.75 1010.38,-786.75 1004.38,-786.75 998.38,-780.75 998.38,-774.75 998.38,-774.75 998.38,-756.25 998.38,-756.25 998.38,-750.25 1004.38,-744.25 1010.38,-744.25 1010.38,-744.25 1261.12,-744.25 1261.12,-744.25 1267.12,-744.25 1273.12,-750.25 1273.12,-756.25 1273.12,-756.25 1273.12,-774.75 1273.12,-774.75 1273.12,-780.75 1267.12,-786.75 1261.12,-786.75"/>
<text xml:space="preserve" text-anchor="middle" x="1135.75" y="-769.45" font-family="Times New Roman,serif" font-size="14.00">1. 업무 흐름 구조화</text>
<text xml:space="preserve" text-anchor="middle" x="1135.75" y="-752.2" font-family="Times New Roman,serif" font-size="14.00">실습결과물/07/01&#45;업무&#45;흐름&#45;구조화.md</text>
</g>
<!-- 실습결과물/07/00&#45;INDEX&#45;&gt;실습결과물/07/01&#45;업무&#45;흐름&#45;구조화 -->
<g id="edge5" class="edge">
<title>실습결과물/07/00&#45;INDEX&#45;&gt;실습결과물/07/01&#45;업무&#45;흐름&#45;구조화</title>
<path fill="none" stroke="black" d="M205.88,-666.02C244.77,-693.9 317.77,-741.14 388.75,-759.5 590.9,-811.8 834.29,-800.61 986.81,-785.15"/>
<polygon fill="black" stroke="black" points="987,-788.65 996.59,-784.14 986.28,-781.69 987,-788.65"/>
</g>
<!-- 실습결과물/07/02&#45;업무&#45;흐름&#45;mermaid -->
<g id="node15" class="node">
<title>실습결과물/07/02&#45;업무&#45;흐름&#45;mermaid</title>
<path fill="none" stroke="black" d="M1262.25,-725.75C1262.25,-725.75 1009.25,-725.75 1009.25,-725.75 1003.25,-725.75 997.25,-719.75 997.25,-713.75 997.25,-713.75 997.25,-695.25 997.25,-695.25 997.25,-689.25 1003.25,-683.25 1009.25,-683.25 1009.25,-683.25 1262.25,-683.25 1262.25,-683.25 1268.25,-683.25 1274.25,-689.25 1274.25,-695.25 1274.25,-695.25 1274.25,-713.75 1274.25,-713.75 1274.25,-719.75 1268.25,-725.75 1262.25,-725.75"/>
<text xml:space="preserve" text-anchor="middle" x="1135.75" y="-708.45" font-family="Times New Roman,serif" font-size="14.00">업무 흐름 (Mermaid)</text>
<text xml:space="preserve" text-anchor="middle" x="1135.75" y="-691.2" font-family="Times New Roman,serif" font-size="14.00">실습결과물/07/02&#45;업무&#45;흐름&#45;mermaid.md</text>
</g>
<!-- 실습결과물/07/00&#45;INDEX&#45;&gt;실습결과물/07/02&#45;업무&#45;흐름&#45;mermaid -->
<g id="edge6" class="edge">
<title>실습결과물/07/00&#45;INDEX&#45;&gt;실습결과물/07/02&#45;업무&#45;흐름&#45;mermaid</title>
<path fill="none" stroke="black" d="M215.2,-666.15C256.36,-688.37 324.85,-721.46 388.75,-734.5 594.95,-776.57 652.12,-746.03 862.25,-734.5 902.43,-732.29 945.8,-728.27 985.86,-723.88"/>
<polygon fill="black" stroke="black" points="986.01,-727.38 995.56,-722.8 985.23,-720.42 986.01,-727.38"/>
</g>
<!-- 실습결과물/07/03&#45;업무&#45;비효율&#45;수치화&#45;템플릿 -->
<g id="node16" class="node">
<title>실습결과물/07/03&#45;업무&#45;비효율&#45;수치화&#45;템플릿</title>
<path fill="none" stroke="black" d="M1294.88,-664.75C1294.88,-664.75 976.62,-664.75 976.62,-664.75 970.62,-664.75 964.62,-658.75 964.62,-652.75 964.62,-652.75 964.62,-634.25 964.62,-634.25 964.62,-628.25 970.62,-622.25 976.62,-622.25 976.62,-622.25 1294.88,-622.25 1294.88,-622.25 1300.88,-622.25 1306.88,-628.25 1306.88,-634.25 1306.88,-634.25 1306.88,-652.75 1306.88,-652.75 1306.88,-658.75 1300.88,-664.75 1294.88,-664.75"/>
<text xml:space="preserve" text-anchor="middle" x="1135.75" y="-647.45" font-family="Times New Roman,serif" font-size="14.00">나의 업무 비효율 수치화 템플릿 작성</text>
<text xml:space="preserve" text-anchor="middle" x="1135.75" y="-630.2" font-family="Times New Roman,serif" font-size="14.00">실습결과물/07/03&#45;업무&#45;비효율&#45;수치화&#45;템플릿.md</text>
</g>
<!-- 실습결과물/07/00&#45;INDEX&#45;&gt;실습결과물/07/03&#45;업무&#45;비효율&#45;수치화&#45;템플릿 -->
<g id="edge7" class="edge">
<title>실습결과물/07/00&#45;INDEX&#45;&gt;실습결과물/07/03&#45;업무&#45;비효율&#45;수치화&#45;템플릿</title>
<path fill="none" stroke="black" d="M275.47,-627.64C311.03,-622.31 351.59,-617.12 388.75,-614.5 598.67,-599.68 652.1,-603.35 862.25,-614.5 891.66,-616.06 922.78,-618.56 953.06,-621.46"/>
<polygon fill="black" stroke="black" points="952.37,-624.91 962.66,-622.39 953.05,-617.94 952.37,-624.91"/>
</g>
<!-- 실습결과물/07/04&#45;as&#45;is&#45;프로세스&#45;스케치 -->
<g id="node17" class="node">
<title>실습결과물/07/04&#45;as&#45;is&#45;프로세스&#45;스케치</title>
<path fill="none" stroke="black" d="M1273.5,-603.75C1273.5,-603.75 998,-603.75 998,-603.75 992,-603.75 986,-597.75 986,-591.75 986,-591.75 986,-573.25 986,-573.25 986,-567.25 992,-561.25 998,-561.25 998,-561.25 1273.5,-561.25 1273.5,-561.25 1279.5,-561.25 1285.5,-567.25 1285.5,-573.25 1285.5,-573.25 1285.5,-591.75 1285.5,-591.75 1285.5,-597.75 1279.5,-603.75 1273.5,-603.75"/>
<text xml:space="preserve" text-anchor="middle" x="1135.75" y="-586.45" font-family="Times New Roman,serif" font-size="14.00">AS&#45;IS 프로세스 스케치</text>
<text xml:space="preserve" text-anchor="middle" x="1135.75" y="-569.2" font-family="Times New Roman,serif" font-size="14.00">실습결과물/07/04&#45;as&#45;is&#45;프로세스&#45;스케치.md</text>
</g>
<!-- 실습결과물/07/00&#45;INDEX&#45;&gt;실습결과물/07/04&#45;as&#45;is&#45;프로세스&#45;스케치 -->
<g id="edge8" class="edge">
<title>실습결과물/07/00&#45;INDEX&#45;&gt;실습결과물/07/04&#45;as&#45;is&#45;프로세스&#45;스케치</title>
<path fill="none" stroke="black" d="M263.96,-622.78C301.98,-614.21 347.32,-605.27 388.75,-600.5 589.64,-577.36 822.9,-575.75 974.37,-578.01"/>
<polygon fill="black" stroke="black" points="974.02,-581.51 984.07,-578.17 974.13,-574.51 974.02,-581.51"/>
</g>
<!-- 실습결과물/07/업무분석보고서 -->
<g id="node19" class="node">
<title>실습결과물/07/업무분석보고서</title>
<path fill="none" stroke="black" d="M737.38,-665C737.38,-665 513.62,-665 513.62,-665 507.62,-665 501.62,-659 501.62,-653 501.62,-653 501.62,-636 501.62,-636 501.62,-630 507.62,-624 513.62,-624 513.62,-624 737.38,-624 737.38,-624 743.38,-624 749.38,-630 749.38,-636 749.38,-636 749.38,-653 749.38,-653 749.38,-659 743.38,-665 737.38,-665"/>
<text xml:space="preserve" text-anchor="middle" x="625.5" y="-647.7" font-family="Times New Roman,serif" font-size="14.00">업무분석보고서</text>
<text xml:space="preserve" text-anchor="middle" x="625.5" y="-631.95" font-family="Times New Roman,serif" font-size="14.00">실습결과물/07/업무분석보고서.md</text>
</g>
<!-- 실습결과물/07/00&#45;INDEX&#45;&gt;실습결과물/07/업무분석보고서 -->
<g id="edge9" class="edge">
<title>실습결과물/07/00&#45;INDEX&#45;&gt;실습결과물/07/업무분석보고서</title>
<path fill="none" stroke="black" d="M275.5,-638.8C338.45,-637.62 421.01,-637.43 490.03,-638.25"/>
<polygon fill="black" stroke="black" points="489.87,-641.75 499.91,-638.38 489.96,-634.75 489.87,-641.75"/>
</g>
<!-- 실습결과물/07/5가지단계로 나누기 -->
<g id="node18" class="node">
<title>실습결과물/07/5가지단계로 나누기</title>
<path fill="none" stroke="black" d="M750.5,-725.75C750.5,-725.75 500.5,-725.75 500.5,-725.75 494.5,-725.75 488.5,-719.75 488.5,-713.75 488.5,-713.75 488.5,-695.25 488.5,-695.25 488.5,-689.25 494.5,-683.25 500.5,-683.25 500.5,-683.25 750.5,-683.25 750.5,-683.25 756.5,-683.25 762.5,-689.25 762.5,-695.25 762.5,-695.25 762.5,-713.75 762.5,-713.75 762.5,-719.75 756.5,-725.75 750.5,-725.75"/>
<text xml:space="preserve" text-anchor="middle" x="625.5" y="-708.45" font-family="Times New Roman,serif" font-size="14.00">나의 어제 하루 업무 5단계 쪼개기</text>
<text xml:space="preserve" text-anchor="middle" x="625.5" y="-691.2" font-family="Times New Roman,serif" font-size="14.00">실습결과물/07/5가지단계로 나누기.md</text>
</g>
<!-- 실습결과물/07/5가지단계로 나누기&#45;&gt;실습결과물/07/01&#45;업무&#45;흐름&#45;구조화 -->
<g id="edge10" class="edge">
<title>실습결과물/07/5가지단계로 나누기&#45;&gt;실습결과물/07/01&#45;업무&#45;흐름&#45;구조화</title>
<path fill="none" stroke="black" d="M762.7,-720.85C831.92,-729.15 916.14,-739.26 986.93,-747.76"/>
<polygon fill="black" stroke="black" points="986.32,-751.21 996.67,-748.93 987.16,-744.26 986.32,-751.21"/>
</g>
<!-- 실습결과물/07/5가지단계로 나누기&#45;&gt;실습결과물/07/02&#45;업무&#45;흐름&#45;mermaid -->
<g id="edge11" class="edge">
<title>실습결과물/07/5가지단계로 나누기&#45;&gt;실습결과물/07/02&#45;업무&#45;흐름&#45;mermaid</title>
<path fill="none" stroke="black" d="M762.7,-704.5C831.5,-704.5 915.12,-704.5 985.64,-704.5"/>
<polygon fill="black" stroke="black" points="985.33,-708 995.33,-704.5 985.33,-701 985.33,-708"/>
</g>
<!-- 실습결과물/07/5가지단계로 나누기&#45;&gt;실습결과물/07/03&#45;업무&#45;비효율&#45;수치화&#45;템플릿 -->
<g id="edge12" class="edge">
<title>실습결과물/07/5가지단계로 나누기&#45;&gt;실습결과물/07/03&#45;업무&#45;비효율&#45;수치화&#45;템플릿</title>
<path fill="none" stroke="black" d="M762.7,-688.15C821.23,-681.13 890.48,-672.82 953.27,-665.28"/>
<polygon fill="black" stroke="black" points="953.5,-668.78 963.01,-664.11 952.66,-661.83 953.5,-668.78"/>
</g>
<!-- 실습결과물/07/5가지단계로 나누기&#45;&gt;실습결과물/07/04&#45;as&#45;is&#45;프로세스&#45;스케치 -->
<g id="edge13" class="edge">
<title>실습결과물/07/5가지단계로 나누기&#45;&gt;실습결과물/07/04&#45;as&#45;is&#45;프로세스&#45;스케치</title>
<path fill="none" stroke="black" d="M762.94,-707.95C797.55,-703.45 833.13,-693.67 862.25,-674.5 888.55,-657.19 871.99,-630.86 898.25,-613.5 920.95,-598.5 947.57,-589.16 974.61,-583.56"/>
<polygon fill="black" stroke="black" points="975.13,-587.02 984.31,-581.73 973.84,-580.14 975.13,-587.02"/>
</g>
<!-- 실습결과물/07/업무분석보고서&#45;&gt;실습결과물/07/00&#45;INDEX -->
<g id="edge14" class="edge">
<title>실습결과물/07/업무분석보고서&#45;&gt;실습결과물/07/00&#45;INDEX</title>
<path fill="none" stroke="black" d="M501.43,-650.6C434.29,-651.53 351.9,-651.46 286.99,-650.4"/>
<polygon fill="black" stroke="black" points="287.07,-646.9 277.01,-650.23 286.95,-653.9 287.07,-646.9"/>
</g>
<!-- 실습결과물/07/업무분석보고서&#45;&gt;실습결과물/07/01&#45;업무&#45;흐름&#45;구조화 -->
<g id="edge15" class="edge">
<title>실습결과물/07/업무분석보고서&#45;&gt;실습결과물/07/01&#45;업무&#45;흐름&#45;구조화</title>
<path fill="none" stroke="black" d="M749.7,-639.71C788.29,-643.36 829.34,-653.01 862.25,-674.5 888.29,-691.5 872.24,-717.45 898.25,-734.5 924.43,-751.66 955.76,-761.39 986.93,-766.58"/>
<polygon fill="black" stroke="black" points="986.03,-769.99 996.44,-768.01 987.07,-763.07 986.03,-769.99"/>
</g>
<!-- 실습결과물/07/업무분석보고서&#45;&gt;실습결과물/07/02&#45;업무&#45;흐름&#45;mermaid -->
<g id="edge16" class="edge">
<title>실습결과물/07/업무분석보고서&#45;&gt;실습결과물/07/02&#45;업무&#45;흐름&#45;mermaid</title>
<path fill="none" stroke="black" d="M749.86,-659.06C820.84,-667.44 910.54,-678.03 985.48,-686.88"/>
<polygon fill="black" stroke="black" points="985.05,-690.35 995.39,-688.05 985.87,-683.4 985.05,-690.35"/>
</g>
<!-- 실습결과물/07/업무분석보고서&#45;&gt;실습결과물/07/03&#45;업무&#45;비효율&#45;수치화&#45;템플릿 -->
<g id="edge17" class="edge">
<title>실습결과물/07/업무분석보고서&#45;&gt;실습결과물/07/03&#45;업무&#45;비효율&#45;수치화&#45;템플릿</title>
<path fill="none" stroke="black" d="M749.86,-644.26C810.95,-644.14 885.9,-643.99 953.37,-643.86"/>
<polygon fill="black" stroke="black" points="953.06,-647.36 963.06,-643.84 953.05,-640.36 953.06,-647.36"/>
</g>
<!-- 실습결과물/07/업무분석보고서&#45;&gt;실습결과물/07/04&#45;as&#45;is&#45;프로세스&#45;스케치 -->
<g id="edge18" class="edge">
<title>실습결과물/07/업무분석보고서&#45;&gt;실습결과물/07/04&#45;as&#45;is&#45;프로세스&#45;스케치</title>
<path fill="none" stroke="black" d="M749.86,-629.45C817.49,-621.2 902.1,-610.88 974.76,-602.02"/>
<polygon fill="black" stroke="black" points="974.85,-605.53 984.35,-600.85 974,-598.58 974.85,-605.53"/>
</g>
<!-- 실습결과물/08/00&#45;INDEX -->
<g id="node20" class="node">
<title>실습결과물/08/00&#45;INDEX</title>
<path fill="none" stroke="black" d="M263.12,-963.75C263.12,-963.75 89.62,-963.75 89.62,-963.75 83.62,-963.75 77.62,-957.75 77.62,-951.75 77.62,-951.75 77.62,-933.25 77.62,-933.25 77.62,-927.25 83.62,-921.25 89.62,-921.25 89.62,-921.25 263.12,-921.25 263.12,-921.25 269.12,-921.25 275.12,-927.25 275.12,-933.25 275.12,-933.25 275.12,-951.75 275.12,-951.75 275.12,-957.75 269.12,-963.75 263.12,-963.75"/>
<text xml:space="preserve" text-anchor="middle" x="176.38" y="-946.45" font-family="Times New Roman,serif" font-size="14.00">실습결과물 08 인덱스</text>
<text xml:space="preserve" text-anchor="middle" x="176.38" y="-929.2" font-family="Times New Roman,serif" font-size="14.00">실습결과물/08/00&#45;INDEX.md</text>
</g>
<!-- 실습결과물/08/01&#45;핵심&#45;업무&#45;리스트업&#45;및&#45;명세서&#45;프로세스 -->
<g id="node21" class="node">
<title>실습결과물/08/01&#45;핵심&#45;업무&#45;리스트업&#45;및&#45;명세서&#45;프로세스</title>
<path fill="none" stroke="black" d="M1338.75,-1091.75C1338.75,-1091.75 932.75,-1091.75 932.75,-1091.75 926.75,-1091.75 920.75,-1085.75 920.75,-1079.75 920.75,-1079.75 920.75,-1061.25 920.75,-1061.25 920.75,-1055.25 926.75,-1049.25 932.75,-1049.25 932.75,-1049.25 1338.75,-1049.25 1338.75,-1049.25 1344.75,-1049.25 1350.75,-1055.25 1350.75,-1061.25 1350.75,-1061.25 1350.75,-1079.75 1350.75,-1079.75 1350.75,-1085.75 1344.75,-1091.75 1338.75,-1091.75"/>
<text xml:space="preserve" text-anchor="middle" x="1135.75" y="-1074.45" font-family="Times New Roman,serif" font-size="14.00">나의 핵심 업무 리스트업</text>
<text xml:space="preserve" text-anchor="middle" x="1135.75" y="-1057.2" font-family="Times New Roman,serif" font-size="14.00">실습결과물/08/01&#45;핵심&#45;업무&#45;리스트업&#45;및&#45;명세서&#45;프로세스.md</text>
</g>
<!-- 실습결과물/08/00&#45;INDEX&#45;&gt;실습결과물/08/01&#45;핵심&#45;업무&#45;리스트업&#45;및&#45;명세서&#45;프로세스 -->
<g id="edge20" class="edge">
<title>실습결과물/08/00&#45;INDEX&#45;&gt;실습결과물/08/01&#45;핵심&#45;업무&#45;리스트업&#45;및&#45;명세서&#45;프로세스</title>
<path fill="none" stroke="black" d="M222.77,-964.21C264.78,-983.2 329.5,-1009.68 388.75,-1022.5 560.92,-1059.74 760.22,-1070.99 909.49,-1073.33"/>
<polygon fill="black" stroke="black" points="909.04,-1076.83 919.09,-1073.47 909.14,-1069.83 909.04,-1076.83"/>
</g>
<!-- 실습결과물/08/02&#45;AI&#45;활용영역&#45;보조&#45;요약&#45;생성&#45;분석 -->
<g id="node22" class="node">
<title>실습결과물/08/02&#45;AI&#45;활용영역&#45;보조&#45;요약&#45;생성&#45;분석</title>
<path fill="none" stroke="black" d="M1314.38,-1030.75C1314.38,-1030.75 957.12,-1030.75 957.12,-1030.75 951.12,-1030.75 945.12,-1024.75 945.12,-1018.75 945.12,-1018.75 945.12,-1000.25 945.12,-1000.25 945.12,-994.25 951.12,-988.25 957.12,-988.25 957.12,-988.25 1314.38,-988.25 1314.38,-988.25 1320.38,-988.25 1326.38,-994.25 1326.38,-1000.25 1326.38,-1000.25 1326.38,-1018.75 1326.38,-1018.75 1326.38,-1024.75 1320.38,-1030.75 1314.38,-1030.75"/>
<text xml:space="preserve" text-anchor="middle" x="1135.75" y="-1013.45" font-family="Times New Roman,serif" font-size="14.00">02&#45;AI&#45;활용영역&#45;보조&#45;요약&#45;생성&#45;분석</text>
<text xml:space="preserve" text-anchor="middle" x="1135.75" y="-996.2" font-family="Times New Roman,serif" font-size="14.00">실습결과물/08/02&#45;AI&#45;활용영역&#45;보조&#45;요약&#45;생성&#45;분석.md</text>
</g>
<!-- 실습결과물/08/00&#45;INDEX&#45;&gt;실습결과물/08/02&#45;AI&#45;활용영역&#45;보조&#45;요약&#45;생성&#45;분석 -->
<g id="edge21" class="edge">
<title>실습결과물/08/00&#45;INDEX&#45;&gt;실습결과물/08/02&#45;AI&#45;활용영역&#45;보조&#45;요약&#45;생성&#45;분석</title>
<path fill="none" stroke="black" d="M245.6,-964.23C286.62,-976.22 340.14,-989.96 388.75,-996.5 572.07,-1021.17 783,-1022.36 933.69,-1018.59"/>
<polygon fill="black" stroke="black" points="933.47,-1022.1 943.38,-1018.34 933.29,-1015.1 933.47,-1022.1"/>
</g>
<!-- 실습결과물/08/03&#45;정량평가&#45;우선순위 -->
<g id="node23" class="node">
<title>실습결과물/08/03&#45;정량평가&#45;우선순위</title>
<path fill="none" stroke="black" d="M1266.75,-969.75C1266.75,-969.75 1004.75,-969.75 1004.75,-969.75 998.75,-969.75 992.75,-963.75 992.75,-957.75 992.75,-957.75 992.75,-939.25 992.75,-939.25 992.75,-933.25 998.75,-927.25 1004.75,-927.25 1004.75,-927.25 1266.75,-927.25 1266.75,-927.25 1272.75,-927.25 1278.75,-933.25 1278.75,-939.25 1278.75,-939.25 1278.75,-957.75 1278.75,-957.75 1278.75,-963.75 1272.75,-969.75 1266.75,-969.75"/>
<text xml:space="preserve" text-anchor="middle" x="1135.75" y="-952.45" font-family="Times New Roman,serif" font-size="14.00">03&#45;정량평가&#45;우선순위</text>
<text xml:space="preserve" text-anchor="middle" x="1135.75" y="-935.2" font-family="Times New Roman,serif" font-size="14.00">실습결과물/08/03&#45;정량평가&#45;우선순위.md</text>
</g>
<!-- 실습결과물/08/00&#45;INDEX&#45;&gt;실습결과물/08/03&#45;정량평가&#45;우선순위 -->
<g id="edge22" class="edge">
<title>실습결과물/08/00&#45;INDEX&#45;&gt;실습결과물/08/03&#45;정량평가&#45;우선순위</title>
<path fill="none" stroke="black" d="M275.5,-939.14C311.15,-938.07 351.77,-937.02 388.75,-936.5 599.17,-933.51 651.86,-931.87 862.25,-936.5 900.71,-937.35 942.2,-938.86 980.92,-940.54"/>
<polygon fill="black" stroke="black" points="980.64,-944.03 990.79,-940.98 980.95,-937.04 980.64,-944.03"/>
</g>
<!-- 실습결과물/08/04&#45;value&#45;estimation&#45;canvas -->
<g id="node24" class="node">
<title>실습결과물/08/04&#45;value&#45;estimation&#45;canvas</title>
<path fill="none" stroke="black" d="M1267.5,-908.75C1267.5,-908.75 1004,-908.75 1004,-908.75 998,-908.75 992,-902.75 992,-896.75 992,-896.75 992,-878.25 992,-878.25 992,-872.25 998,-866.25 1004,-866.25 1004,-866.25 1267.5,-866.25 1267.5,-866.25 1273.5,-866.25 1279.5,-872.25 1279.5,-878.25 1279.5,-878.25 1279.5,-896.75 1279.5,-896.75 1279.5,-902.75 1273.5,-908.75 1267.5,-908.75"/>
<text xml:space="preserve" text-anchor="middle" x="1135.75" y="-891.45" font-family="Times New Roman,serif" font-size="14.00">📊 나의 Value Estimation Canvas</text>
<text xml:space="preserve" text-anchor="middle" x="1135.75" y="-874.2" font-family="Times New Roman,serif" font-size="14.00">실습결과물/08/04&#45;value&#45;estimation&#45;canvas.md</text>
</g>
<!-- 실습결과물/08/00&#45;INDEX&#45;&gt;실습결과물/08/04&#45;value&#45;estimation&#45;canvas -->
<g id="edge23" class="edge">
<title>실습결과물/08/00&#45;INDEX&#45;&gt;실습결과물/08/04&#45;value&#45;estimation&#45;canvas</title>
<path fill="none" stroke="black" d="M275.5,-936.36C311.16,-934.16 351.77,-931.68 388.75,-929.5 593.41,-917.45 829.7,-904.27 980.56,-895.95"/>
<polygon fill="black" stroke="black" points="980.42,-899.46 990.21,-895.42 980.04,-892.47 980.42,-899.46"/>
</g>
<!-- 실습결과물/08/05&#45;명세서&#45;초안&#45;자동생성&#45;AI&#45;워크플로우 -->
<g id="node25" class="node">
<title>실습결과물/08/05&#45;명세서&#45;초안&#45;자동생성&#45;AI&#45;워크플로우</title>
<path fill="none" stroke="black" d="M1327.88,-847.75C1327.88,-847.75 943.62,-847.75 943.62,-847.75 937.62,-847.75 931.62,-841.75 931.62,-835.75 931.62,-835.75 931.62,-817.25 931.62,-817.25 931.62,-811.25 937.62,-805.25 943.62,-805.25 943.62,-805.25 1327.88,-805.25 1327.88,-805.25 1333.88,-805.25 1339.88,-811.25 1339.88,-817.25 1339.88,-817.25 1339.88,-835.75 1339.88,-835.75 1339.88,-841.75 1333.88,-847.75 1327.88,-847.75"/>
<text xml:space="preserve" text-anchor="middle" x="1135.75" y="-830.45" font-family="Times New Roman,serif" font-size="14.00">명세서 초안 자동 생성 AI 워크플로우</text>
<text xml:space="preserve" text-anchor="middle" x="1135.75" y="-813.2" font-family="Times New Roman,serif" font-size="14.00">실습결과물/08/05&#45;명세서&#45;초안&#45;자동생성&#45;AI&#45;워크플로우.md</text>
</g>
<!-- 실습결과물/08/00&#45;INDEX&#45;&gt;실습결과물/08/05&#45;명세서&#45;초안&#45;자동생성&#45;AI&#45;워크플로우 -->
<g id="edge24" class="edge">
<title>실습결과물/08/00&#45;INDEX&#45;&gt;실습결과물/08/05&#45;명세서&#45;초안&#45;자동생성&#45;AI&#45;워크플로우</title>
<path fill="none" stroke="black" d="M273.55,-920.76C309.55,-913.19 350.88,-905.19 388.75,-899.5 567.03,-872.72 770.81,-853.54 920.29,-841.59"/>
<polygon fill="black" stroke="black" points="920.21,-845.11 929.9,-840.82 919.66,-838.13 920.21,-845.11"/>
</g>
<!-- 실습결과물/08/업무리스트 -->
<g id="node26" class="node">
<title>실습결과물/08/업무리스트</title>
<path fill="none" stroke="black" d="M721.62,-987.75C721.62,-987.75 529.38,-987.75 529.38,-987.75 523.38,-987.75 517.38,-981.75 517.38,-975.75 517.38,-975.75 517.38,-957.25 517.38,-957.25 517.38,-951.25 523.38,-945.25 529.38,-945.25 529.38,-945.25 721.62,-945.25 721.62,-945.25 727.62,-945.25 733.62,-951.25 733.62,-957.25 733.62,-957.25 733.62,-975.75 733.62,-975.75 733.62,-981.75 727.62,-987.75 721.62,-987.75"/>
<text xml:space="preserve" text-anchor="middle" x="625.5" y="-970.45" font-family="Times New Roman,serif" font-size="14.00">나의 핵심 업무 리스트업</text>
<text xml:space="preserve" text-anchor="middle" x="625.5" y="-953.2" font-family="Times New Roman,serif" font-size="14.00">실습결과물/08/업무리스트.md</text>
</g>
<!-- 실습결과물/08/00&#45;INDEX&#45;&gt;실습결과물/08/업무리스트 -->
<g id="edge19" class="edge">
<title>실습결과물/08/00&#45;INDEX&#45;&gt;실습결과물/08/업무리스트</title>
<path fill="none" stroke="black" d="M275.5,-947.77C343.33,-951.41 433.95,-956.27 505.85,-960.13"/>
<polygon fill="black" stroke="black" points="505.54,-963.62 515.71,-960.66 505.91,-956.63 505.54,-963.62"/>
</g>
<!-- 실습결과물/08/업무리스트&#45;&gt;실습결과물/08/01&#45;핵심&#45;업무&#45;리스트업&#45;및&#45;명세서&#45;프로세스 -->
<g id="edge25" class="edge">
<title>실습결과물/08/업무리스트&#45;&gt;실습결과물/08/01&#45;핵심&#45;업무&#45;리스트업&#45;및&#45;명세서&#45;프로세스</title>
<path fill="none" stroke="black" d="M697.13,-988.23C751.63,-1004.32 829.14,-1025.75 898.25,-1039.5 911.63,-1042.16 925.48,-1044.65 939.46,-1046.97"/>
<polygon fill="black" stroke="black" points="938.77,-1050.4 949.21,-1048.55 939.89,-1043.49 938.77,-1050.4"/>
</g>
<!-- 실습결과물/08/업무리스트&#45;&gt;실습결과물/08/02&#45;AI&#45;활용영역&#45;보조&#45;요약&#45;생성&#45;분석 -->
<g id="edge26" class="edge">
<title>실습결과물/08/업무리스트&#45;&gt;실습결과물/08/02&#45;AI&#45;활용영역&#45;보조&#45;요약&#45;생성&#45;분석</title>
<path fill="none" stroke="black" d="M733.98,-975.59C791.93,-980.5 865.34,-986.71 933.46,-992.47"/>
<polygon fill="black" stroke="black" points="933.02,-995.95 943.28,-993.3 933.61,-988.97 933.02,-995.95"/>
</g>
<!-- 실습결과물/08/업무리스트&#45;&gt;실습결과물/08/03&#45;정량평가&#45;우선순위 -->
<g id="edge27" class="edge">
<title>실습결과물/08/업무리스트&#45;&gt;실습결과물/08/03&#45;정량평가&#45;우선순위</title>
<path fill="none" stroke="black" d="M733.98,-962.69C805.9,-960.15 901.65,-956.76 981.52,-953.93"/>
<polygon fill="black" stroke="black" points="981.3,-957.44 991.17,-953.59 981.05,-950.44 981.3,-957.44"/>
</g>
<!-- 실습결과물/08/업무리스트&#45;&gt;실습결과물/08/04&#45;value&#45;estimation&#45;canvas -->
<g id="edge28" class="edge">
<title>실습결과물/08/업무리스트&#45;&gt;실습결과물/08/04&#45;value&#45;estimation&#45;canvas</title>
<path fill="none" stroke="black" d="M734.1,-946.36C783.95,-937.32 844.03,-926.84 898.25,-918.5 924.78,-914.42 953.04,-910.42 980.45,-906.72"/>
<polygon fill="black" stroke="black" points="980.77,-910.21 990.22,-905.41 979.84,-903.27 980.77,-910.21"/>
</g>
<!-- 실습결과물/08/업무리스트&#45;&gt;실습결과물/08/05&#45;명세서&#45;초안&#45;자동생성&#45;AI&#45;워크플로우 -->
<g id="edge29" class="edge">
<title>실습결과물/08/업무리스트&#45;&gt;실습결과물/08/05&#45;명세서&#45;초안&#45;자동생성&#45;AI&#45;워크플로우</title>
<path fill="none" stroke="black" d="M670.53,-944.82C723.33,-919.78 815.14,-879.24 898.25,-857.5 907.96,-854.96 917.95,-852.62 928.08,-850.47"/>
<polygon fill="black" stroke="black" points="928.54,-853.95 937.64,-848.52 927.14,-847.09 928.54,-853.95"/>
</g>
<!-- 실습결과물/09/00&#45;INDEX -->
<g id="node27" class="node">
<title>실습결과물/09/00&#45;INDEX</title>
<path fill="none" stroke="black" d="M263.12,-1226.75C263.12,-1226.75 89.62,-1226.75 89.62,-1226.75 83.62,-1226.75 77.62,-1220.75 77.62,-1214.75 77.62,-1214.75 77.62,-1196.25 77.62,-1196.25 77.62,-1190.25 83.62,-1184.25 89.62,-1184.25 89.62,-1184.25 263.12,-1184.25 263.12,-1184.25 269.12,-1184.25 275.12,-1190.25 275.12,-1196.25 275.12,-1196.25 275.12,-1214.75 275.12,-1214.75 275.12,-1220.75 269.12,-1226.75 263.12,-1226.75"/>
<text xml:space="preserve" text-anchor="middle" x="176.38" y="-1209.45" font-family="Times New Roman,serif" font-size="14.00">실습결과물 09 인덱스</text>
<text xml:space="preserve" text-anchor="middle" x="176.38" y="-1192.2" font-family="Times New Roman,serif" font-size="14.00">실습결과물/09/00&#45;INDEX.md</text>
</g>
<!-- 실습결과물/09/노래요청 -->
<g id="node28" class="node">
<title>실습결과물/09/노래요청</title>
<path fill="none" stroke="black" d="M713.75,-1317.75C713.75,-1317.75 537.25,-1317.75 537.25,-1317.75 531.25,-1317.75 525.25,-1311.75 525.25,-1305.75 525.25,-1305.75 525.25,-1287.25 525.25,-1287.25 525.25,-1281.25 531.25,-1275.25 537.25,-1275.25 537.25,-1275.25 713.75,-1275.25 713.75,-1275.25 719.75,-1275.25 725.75,-1281.25 725.75,-1287.25 725.75,-1287.25 725.75,-1305.75 725.75,-1305.75 725.75,-1311.75 719.75,-1317.75 713.75,-1317.75"/>
<text xml:space="preserve" text-anchor="middle" x="625.5" y="-1300.45" font-family="Times New Roman,serif" font-size="14.00">suno 노래 요청</text>
<text xml:space="preserve" text-anchor="middle" x="625.5" y="-1283.2" font-family="Times New Roman,serif" font-size="14.00">실습결과물/09/노래요청.md</text>
</g>
<!-- 실습결과물/09/00&#45;INDEX&#45;&gt;실습결과물/09/노래요청 -->
<g id="edge33" class="edge">
<title>실습결과물/09/00&#45;INDEX&#45;&gt;실습결과물/09/노래요청</title>
<path fill="none" stroke="black" d="M244.34,-1227.22C285.61,-1239.92 339.81,-1255.39 388.75,-1265.5 429.22,-1273.86 474.09,-1280.42 513.73,-1285.31"/>
<polygon fill="black" stroke="black" points="513.18,-1288.77 523.53,-1286.5 514.02,-1281.82 513.18,-1288.77"/>
</g>
<!-- 실습결과물/09/문제 정의서 -->
<g id="node29" class="node">
<title>실습결과물/09/문제 정의서</title>
<path fill="none" stroke="black" d="M774.12,-1256.75C774.12,-1256.75 476.88,-1256.75 476.88,-1256.75 470.88,-1256.75 464.88,-1250.75 464.88,-1244.75 464.88,-1244.75 464.88,-1226.25 464.88,-1226.25 464.88,-1220.25 470.88,-1214.25 476.88,-1214.25 476.88,-1214.25 774.12,-1214.25 774.12,-1214.25 780.12,-1214.25 786.12,-1220.25 786.12,-1226.25 786.12,-1226.25 786.12,-1244.75 786.12,-1244.75 786.12,-1250.75 780.12,-1256.75 774.12,-1256.75"/>
<text xml:space="preserve" text-anchor="middle" x="625.5" y="-1239.45" font-family="Times New Roman,serif" font-size="14.00">📄 AI 협업 기반 문제 정의서 (Master Document)</text>
<text xml:space="preserve" text-anchor="middle" x="625.5" y="-1222.2" font-family="Times New Roman,serif" font-size="14.00">실습결과물/09/문제 정의서.md</text>
</g>
<!-- 실습결과물/09/00&#45;INDEX&#45;&gt;실습결과물/09/문제 정의서 -->
<g id="edge31" class="edge">
<title>실습결과물/09/00&#45;INDEX&#45;&gt;실습결과물/09/문제 정의서</title>
<path fill="none" stroke="black" d="M275.5,-1212.08C327.65,-1215.58 393.27,-1219.99 453.49,-1224.03"/>
<polygon fill="black" stroke="black" points="452.95,-1227.5 463.16,-1224.67 453.42,-1220.51 452.95,-1227.5"/>
</g>
<!-- 실습결과물/09/미션20대여성상품 -->
<g id="node30" class="node">
<title>실습결과물/09/미션20대여성상품</title>
<path fill="none" stroke="black" d="M745.25,-1195.75C745.25,-1195.75 505.75,-1195.75 505.75,-1195.75 499.75,-1195.75 493.75,-1189.75 493.75,-1183.75 493.75,-1183.75 493.75,-1165.25 493.75,-1165.25 493.75,-1159.25 499.75,-1153.25 505.75,-1153.25 505.75,-1153.25 745.25,-1153.25 745.25,-1153.25 751.25,-1153.25 757.25,-1159.25 757.25,-1165.25 757.25,-1165.25 757.25,-1183.75 757.25,-1183.75 757.25,-1189.75 751.25,-1195.75 745.25,-1195.75"/>
<text xml:space="preserve" text-anchor="middle" x="625.5" y="-1178.45" font-family="Times New Roman,serif" font-size="14.00">1. 가성비 인식 개선 아이디어 20가지</text>
<text xml:space="preserve" text-anchor="middle" x="625.5" y="-1161.2" font-family="Times New Roman,serif" font-size="14.00">실습결과물/09/미션20대여성상품.md</text>
</g>
<!-- 실습결과물/09/00&#45;INDEX&#45;&gt;실습결과물/09/미션20대여성상품 -->
<g id="edge32" class="edge">
<title>실습결과물/09/00&#45;INDEX&#45;&gt;실습결과물/09/미션20대여성상품</title>
<path fill="none" stroke="black" d="M275.5,-1198.7C336.13,-1194.49 414.97,-1189.03 482.37,-1184.35"/>
<polygon fill="black" stroke="black" points="482.27,-1187.87 492,-1183.69 481.78,-1180.89 482.27,-1187.87"/>
</g>
<!-- 실습결과물/09/현상에서문제로 -->
<g id="node31" class="node">
<title>실습결과물/09/현상에서문제로</title>
<path fill="none" stroke="black" d="M737.38,-1134.75C737.38,-1134.75 513.62,-1134.75 513.62,-1134.75 507.62,-1134.75 501.62,-1128.75 501.62,-1122.75 501.62,-1122.75 501.62,-1104.25 501.62,-1104.25 501.62,-1098.25 507.62,-1092.25 513.62,-1092.25 513.62,-1092.25 737.38,-1092.25 737.38,-1092.25 743.38,-1092.25 749.38,-1098.25 749.38,-1104.25 749.38,-1104.25 749.38,-1122.75 749.38,-1122.75 749.38,-1128.75 743.38,-1134.75 737.38,-1134.75"/>
<text xml:space="preserve" text-anchor="middle" x="625.5" y="-1117.45" font-family="Times New Roman,serif" font-size="14.00">문제 정의 정리</text>
<text xml:space="preserve" text-anchor="middle" x="625.5" y="-1100.2" font-family="Times New Roman,serif" font-size="14.00">실습결과물/09/현상에서문제로.md</text>
</g>
<!-- 실습결과물/09/00&#45;INDEX&#45;&gt;실습결과물/09/현상에서문제로 -->
<g id="edge30" class="edge">
<title>실습결과물/09/00&#45;INDEX&#45;&gt;실습결과물/09/현상에서문제로</title>
<path fill="none" stroke="black" d="M242.9,-1183.83C284.33,-1170.82 339.21,-1154.84 388.75,-1144.5 421.33,-1137.7 456.78,-1132.1 490.05,-1127.63"/>
<polygon fill="black" stroke="black" points="490.29,-1131.13 499.75,-1126.36 489.38,-1124.19 490.29,-1131.13"/>
</g>
<!-- 실습결과물/13/00&#45;INDEX -->
<g id="node32" class="node">
<title>실습결과물/13/00&#45;INDEX</title>
<path fill="none" stroke="black" d="M712.25,-1829.75C712.25,-1829.75 538.75,-1829.75 538.75,-1829.75 532.75,-1829.75 526.75,-1823.75 526.75,-1817.75 526.75,-1817.75 526.75,-1799.25 526.75,-1799.25 526.75,-1793.25 532.75,-1787.25 538.75,-1787.25 538.75,-1787.25 712.25,-1787.25 712.25,-1787.25 718.25,-1787.25 724.25,-1793.25 724.25,-1799.25 724.25,-1799.25 724.25,-1817.75 724.25,-1817.75 724.25,-1823.75 718.25,-1829.75 712.25,-1829.75"/>
<text xml:space="preserve" text-anchor="middle" x="625.5" y="-1812.45" font-family="Times New Roman,serif" font-size="14.00">실습결과물 13 인덱스</text>
<text xml:space="preserve" text-anchor="middle" x="625.5" y="-1795.2" font-family="Times New Roman,serif" font-size="14.00">실습결과물/13/00&#45;INDEX.md</text>
</g>
<!-- 실습결과물/13/AIDX_5일차_교시별_요약 -->
<g id="node33" class="node">
<title>실습결과물/13/AIDX_5일차_교시별_요약</title>
<path fill="none" stroke="black" d="M1278,-2028.75C1278,-2028.75 993.5,-2028.75 993.5,-2028.75 987.5,-2028.75 981.5,-2022.75 981.5,-2016.75 981.5,-2016.75 981.5,-1998.25 981.5,-1998.25 981.5,-1992.25 987.5,-1986.25 993.5,-1986.25 993.5,-1986.25 1278,-1986.25 1278,-1986.25 1284,-1986.25 1290,-1992.25 1290,-1998.25 1290,-1998.25 1290,-2016.75 1290,-2016.75 1290,-2022.75 1284,-2028.75 1278,-2028.75"/>
<text xml:space="preserve" text-anchor="middle" x="1135.75" y="-2011.45" font-family="Times New Roman,serif" font-size="14.00">AIDX_5일차_교시별_요약</text>
<text xml:space="preserve" text-anchor="middle" x="1135.75" y="-1994.2" font-family="Times New Roman,serif" font-size="14.00">실습결과물/13/AIDX_5일차_교시별_요약.md</text>
</g>
<!-- 실습결과물/13/00&#45;INDEX&#45;&gt;실습결과물/13/AIDX_5일차_교시별_요약 -->
<g id="edge34" class="edge">
<title>실습결과물/13/00&#45;INDEX&#45;&gt;실습결과물/13/AIDX_5일차_교시별_요약</title>
<path fill="none" stroke="black" d="M652.63,-1830.24C698.87,-1867.39 799.56,-1942.45 898.25,-1977.5 920.91,-1985.55 945.47,-1991.49 969.89,-1995.86"/>
<polygon fill="black" stroke="black" points="969.16,-1999.29 979.61,-1997.51 970.33,-1992.39 969.16,-1999.29"/>
</g>
<!-- 실습결과물/13/광물자료조사 -->
<g id="node34" class="node">
<title>실습결과물/13/광물자료조사</title>
<path fill="none" stroke="black" d="M1239.75,-1968C1239.75,-1968 1031.75,-1968 1031.75,-1968 1025.75,-1968 1019.75,-1962 1019.75,-1956 1019.75,-1956 1019.75,-1939 1019.75,-1939 1019.75,-1933 1025.75,-1927 1031.75,-1927 1031.75,-1927 1239.75,-1927 1239.75,-1927 1245.75,-1927 1251.75,-1933 1251.75,-1939 1251.75,-1939 1251.75,-1956 1251.75,-1956 1251.75,-1962 1245.75,-1968 1239.75,-1968"/>
<text xml:space="preserve" text-anchor="middle" x="1135.75" y="-1950.7" font-family="Times New Roman,serif" font-size="14.00">광물자료조사</text>
<text xml:space="preserve" text-anchor="middle" x="1135.75" y="-1934.95" font-family="Times New Roman,serif" font-size="14.00">실습결과물/13/광물자료조사.md</text>
</g>
<!-- 실습결과물/13/00&#45;INDEX&#45;&gt;실습결과물/13/광물자료조사 -->
<g id="edge41" class="edge">
<title>실습결과물/13/00&#45;INDEX&#45;&gt;실습결과물/13/광물자료조사</title>
<path fill="none" stroke="black" d="M670.51,-1830.24C723.3,-1855.34 815.1,-1895.93 898.25,-1917.5 933.47,-1926.64 972.38,-1933.03 1008.31,-1937.5"/>
<polygon fill="black" stroke="black" points="1007.51,-1940.93 1017.85,-1938.64 1008.34,-1933.98 1007.51,-1940.93"/>
</g>
<!-- 실습결과물/13/노트북lm 수업 요약보고서 -->
<g id="node35" class="node">
<title>실습결과물/13/노트북lm 수업 요약보고서</title>
<path fill="none" stroke="black" d="M1282.5,-1908.75C1282.5,-1908.75 989,-1908.75 989,-1908.75 983,-1908.75 977,-1902.75 977,-1896.75 977,-1896.75 977,-1878.25 977,-1878.25 977,-1872.25 983,-1866.25 989,-1866.25 989,-1866.25 1282.5,-1866.25 1282.5,-1866.25 1288.5,-1866.25 1294.5,-1872.25 1294.5,-1878.25 1294.5,-1878.25 1294.5,-1896.75 1294.5,-1896.75 1294.5,-1902.75 1288.5,-1908.75 1282.5,-1908.75"/>
<text xml:space="preserve" text-anchor="middle" x="1135.75" y="-1891.45" font-family="Times New Roman,serif" font-size="14.00">노트북lm 수업 요약보고서</text>
<text xml:space="preserve" text-anchor="middle" x="1135.75" y="-1874.2" font-family="Times New Roman,serif" font-size="14.00">실습결과물/13/노트북lm 수업 요약보고서.md</text>
</g>
<!-- 실습결과물/13/00&#45;INDEX&#45;&gt;실습결과물/13/노트북lm 수업 요약보고서 -->
<g id="edge35" class="edge">
<title>실습결과물/13/00&#45;INDEX&#45;&gt;실습결과물/13/노트북lm 수업 요약보고서</title>
<path fill="none" stroke="black" d="M724.44,-1826.88C776.05,-1836.3 840.48,-1847.62 898.25,-1856.5 919.87,-1859.82 942.64,-1863.1 965.16,-1866.2"/>
<polygon fill="black" stroke="black" points="964.67,-1869.66 975.05,-1867.55 965.61,-1862.73 964.67,-1869.66"/>
</g>
<!-- 실습결과물/13/블로그 형태 -->
<g id="node36" class="node">
<title>실습결과물/13/블로그 형태</title>
<path fill="none" stroke="black" d="M1233.75,-1847.75C1233.75,-1847.75 1037.75,-1847.75 1037.75,-1847.75 1031.75,-1847.75 1025.75,-1841.75 1025.75,-1835.75 1025.75,-1835.75 1025.75,-1817.25 1025.75,-1817.25 1025.75,-1811.25 1031.75,-1805.25 1037.75,-1805.25 1037.75,-1805.25 1233.75,-1805.25 1233.75,-1805.25 1239.75,-1805.25 1245.75,-1811.25 1245.75,-1817.25 1245.75,-1817.25 1245.75,-1835.75 1245.75,-1835.75 1245.75,-1841.75 1239.75,-1847.75 1233.75,-1847.75"/>
<text xml:space="preserve" text-anchor="middle" x="1135.75" y="-1830.45" font-family="Times New Roman,serif" font-size="14.00">블로그 형태</text>
<text xml:space="preserve" text-anchor="middle" x="1135.75" y="-1813.2" font-family="Times New Roman,serif" font-size="14.00">실습결과물/13/블로그 형태.md</text>
</g>
<!-- 실습결과물/13/00&#45;INDEX&#45;&gt;실습결과물/13/블로그 형태 -->
<g id="edge40" class="edge">
<title>실습결과물/13/00&#45;INDEX&#45;&gt;실습결과물/13/블로그 형태</title>
<path fill="none" stroke="black" d="M724.5,-1811.97C807.12,-1814.9 925.71,-1819.1 1014.15,-1822.23"/>
<polygon fill="black" stroke="black" points="1013.97,-1825.72 1024.09,-1822.58 1014.22,-1818.73 1013.97,-1825.72"/>
</g>
<!-- 실습결과물/13/수중드론_블로그 -->
<g id="node37" class="node">
<title>실습결과물/13/수중드론_블로그</title>
<path fill="none" stroke="black" d="M1251,-1786.75C1251,-1786.75 1020.5,-1786.75 1020.5,-1786.75 1014.5,-1786.75 1008.5,-1780.75 1008.5,-1774.75 1008.5,-1774.75 1008.5,-1756.25 1008.5,-1756.25 1008.5,-1750.25 1014.5,-1744.25 1020.5,-1744.25 1020.5,-1744.25 1251,-1744.25 1251,-1744.25 1257,-1744.25 1263,-1750.25 1263,-1756.25 1263,-1756.25 1263,-1774.75 1263,-1774.75 1263,-1780.75 1257,-1786.75 1251,-1786.75"/>
<text xml:space="preserve" text-anchor="middle" x="1135.75" y="-1769.45" font-family="Times New Roman,serif" font-size="14.00">수중드론_블로그</text>
<text xml:space="preserve" text-anchor="middle" x="1135.75" y="-1752.2" font-family="Times New Roman,serif" font-size="14.00">실습결과물/13/수중드론_블로그.md</text>
</g>
<!-- 실습결과물/13/00&#45;INDEX&#45;&gt;실습결과물/13/수중드론_블로그 -->
<g id="edge39" class="edge">
<title>실습결과물/13/00&#45;INDEX&#45;&gt;실습결과물/13/수중드론_블로그</title>
<path fill="none" stroke="black" d="M724.5,-1800.21C801.79,-1793.67 910.56,-1784.47 996.68,-1777.18"/>
<polygon fill="black" stroke="black" points="996.96,-1780.67 1006.63,-1776.34 996.37,-1773.7 996.96,-1780.67"/>
</g>
<!-- 실습결과물/13/수중드론_사업화_기획안 -->
<g id="node38" class="node">
<title>실습결과물/13/수중드론_사업화_기획안</title>
<path fill="none" stroke="black" d="M1278,-1664.75C1278,-1664.75 993.5,-1664.75 993.5,-1664.75 987.5,-1664.75 981.5,-1658.75 981.5,-1652.75 981.5,-1652.75 981.5,-1634.25 981.5,-1634.25 981.5,-1628.25 987.5,-1622.25 993.5,-1622.25 993.5,-1622.25 1278,-1622.25 1278,-1622.25 1284,-1622.25 1290,-1628.25 1290,-1634.25 1290,-1634.25 1290,-1652.75 1290,-1652.75 1290,-1658.75 1284,-1664.75 1278,-1664.75"/>
<text xml:space="preserve" text-anchor="middle" x="1135.75" y="-1647.45" font-family="Times New Roman,serif" font-size="14.00">수중드론 사업화 기획안(운영형)</text>
<text xml:space="preserve" text-anchor="middle" x="1135.75" y="-1630.2" font-family="Times New Roman,serif" font-size="14.00">실습결과물/13/수중드론_사업화_기획안.md</text>
</g>
<!-- 실습결과물/13/00&#45;INDEX&#45;&gt;실습결과물/13/수중드론_사업화_기획안 -->
<g id="edge38" class="edge">
<title>실습결과물/13/00&#45;INDEX&#45;&gt;실습결과물/13/수중드론_사업화_기획안</title>
<path fill="none" stroke="black" d="M724.5,-1806.3C770.67,-1800.66 823.89,-1786.96 862.25,-1755.5 892.71,-1730.52 866.69,-1698.07 898.25,-1674.5 919.23,-1658.84 944.26,-1649.02 970.08,-1643.11"/>
<polygon fill="black" stroke="black" points="970.61,-1646.58 979.7,-1641.12 969.2,-1639.72 970.61,-1646.58"/>
</g>
<!-- 실습결과물/13/해양드론딥리서치결과 -->
<g id="node39" class="node">
<title>실습결과물/13/해양드론딥리서치결과</title>
<path fill="none" stroke="black" d="M1290.75,-1603.75C1290.75,-1603.75 980.75,-1603.75 980.75,-1603.75 974.75,-1603.75 968.75,-1597.75 968.75,-1591.75 968.75,-1591.75 968.75,-1573.25 968.75,-1573.25 968.75,-1567.25 974.75,-1561.25 980.75,-1561.25 980.75,-1561.25 1290.75,-1561.25 1290.75,-1561.25 1296.75,-1561.25 1302.75,-1567.25 1302.75,-1573.25 1302.75,-1573.25 1302.75,-1591.75 1302.75,-1591.75 1302.75,-1597.75 1296.75,-1603.75 1290.75,-1603.75"/>
<text xml:space="preserve" text-anchor="middle" x="1135.75" y="-1586.45" font-family="Times New Roman,serif" font-size="14.00">해양드론을 활용한 사업화 가능성 분석 보고서</text>
<text xml:space="preserve" text-anchor="middle" x="1135.75" y="-1569.2" font-family="Times New Roman,serif" font-size="14.00">실습결과물/13/해양드론딥리서치결과.md</text>
</g>
<!-- 실습결과물/13/00&#45;INDEX&#45;&gt;실습결과물/13/해양드론딥리서치결과 -->
<g id="edge37" class="edge">
<title>실습결과물/13/00&#45;INDEX&#45;&gt;실습결과물/13/해양드론딥리서치결과</title>
<path fill="none" stroke="black" d="M724.6,-1793.25C771.78,-1781.28 825.86,-1760.03 862.25,-1722.5 897.77,-1685.87 858.94,-1646.02 898.25,-1613.5 915.45,-1599.28 935.89,-1589.67 957.44,-1583.36"/>
<polygon fill="black" stroke="black" points="958.22,-1586.77 966.98,-1580.83 956.42,-1580.01 958.22,-1586.77"/>
</g>
<!-- 실습결과물/13/해양드론조사보고서 -->
<g id="node40" class="node">
<title>실습결과물/13/해양드론조사보고서</title>
<path fill="none" stroke="black" d="M1263.38,-1725.75C1263.38,-1725.75 1008.12,-1725.75 1008.12,-1725.75 1002.12,-1725.75 996.12,-1719.75 996.12,-1713.75 996.12,-1713.75 996.12,-1695.25 996.12,-1695.25 996.12,-1689.25 1002.12,-1683.25 1008.12,-1683.25 1008.12,-1683.25 1263.38,-1683.25 1263.38,-1683.25 1269.38,-1683.25 1275.38,-1689.25 1275.38,-1695.25 1275.38,-1695.25 1275.38,-1713.75 1275.38,-1713.75 1275.38,-1719.75 1269.38,-1725.75 1263.38,-1725.75"/>
<text xml:space="preserve" text-anchor="middle" x="1135.75" y="-1708.45" font-family="Times New Roman,serif" font-size="14.00">해양드론 조사 보고서</text>
<text xml:space="preserve" text-anchor="middle" x="1135.75" y="-1691.2" font-family="Times New Roman,serif" font-size="14.00">실습결과물/13/해양드론조사보고서.md</text>
</g>
<!-- 실습결과물/13/00&#45;INDEX&#45;&gt;실습결과물/13/해양드론조사보고서 -->
<g id="edge36" class="edge">
<title>실습결과물/13/00&#45;INDEX&#45;&gt;실습결과물/13/해양드론조사보고서</title>
<path fill="none" stroke="black" d="M724.69,-1792.94C767.73,-1784.47 818.35,-1772.23 862.25,-1755.5 879.35,-1748.98 880.87,-1741.24 898.25,-1735.5 925.62,-1726.47 955.6,-1720.06 984.73,-1715.51"/>
<polygon fill="black" stroke="black" points="984.97,-1719.01 994.35,-1714.08 983.94,-1712.08 984.97,-1719.01"/>
</g>
<!-- 실습결과물/14/00&#45;INDEX -->
<g id="node41" class="node">
<title>실습결과물/14/00&#45;INDEX</title>
<path fill="none" stroke="black" d="M1222.5,-1481.75C1222.5,-1481.75 1049,-1481.75 1049,-1481.75 1043,-1481.75 1037,-1475.75 1037,-1469.75 1037,-1469.75 1037,-1451.25 1037,-1451.25 1037,-1445.25 1043,-1439.25 1049,-1439.25 1049,-1439.25 1222.5,-1439.25 1222.5,-1439.25 1228.5,-1439.25 1234.5,-1445.25 1234.5,-1451.25 1234.5,-1451.25 1234.5,-1469.75 1234.5,-1469.75 1234.5,-1475.75 1228.5,-1481.75 1222.5,-1481.75"/>
<text xml:space="preserve" text-anchor="middle" x="1135.75" y="-1464.45" font-family="Times New Roman,serif" font-size="14.00">실습결과물 14 인덱스</text>
<text xml:space="preserve" text-anchor="middle" x="1135.75" y="-1447.2" font-family="Times New Roman,serif" font-size="14.00">실습결과물/14/00&#45;INDEX.md</text>
</g>
<!-- 실습결과물/14/10&#45;주간업무일지&#45;INDEX -->
<g id="node42" class="node">
<title>실습결과물/14/10&#45;주간업무일지&#45;INDEX</title>
<path fill="none" stroke="black" d="M1693.75,-1816.75C1693.75,-1816.75 1421.25,-1816.75 1421.25,-1816.75 1415.25,-1816.75 1409.25,-1810.75 1409.25,-1804.75 1409.25,-1804.75 1409.25,-1786.25 1409.25,-1786.25 1409.25,-1780.25 1415.25,-1774.25 1421.25,-1774.25 1421.25,-1774.25 1693.75,-1774.25 1693.75,-1774.25 1699.75,-1774.25 1705.75,-1780.25 1705.75,-1786.25 1705.75,-1786.25 1705.75,-1804.75 1705.75,-1804.75 1705.75,-1810.75 1699.75,-1816.75 1693.75,-1816.75"/>
<text xml:space="preserve" text-anchor="middle" x="1557.5" y="-1799.45" font-family="Times New Roman,serif" font-size="14.00">주간 업무일지 인덱스</text>
<text xml:space="preserve" text-anchor="middle" x="1557.5" y="-1782.2" font-family="Times New Roman,serif" font-size="14.00">실습결과물/14/10&#45;주간업무일지&#45;INDEX.md</text>
</g>
<!-- 실습결과물/14/00&#45;INDEX&#45;&gt;실습결과물/14/10&#45;주간업무일지&#45;INDEX -->
<g id="edge42" class="edge">
<title>실습결과물/14/00&#45;INDEX&#45;&gt;실습결과물/14/10&#45;주간업무일지&#45;INDEX</title>
<path fill="none" stroke="black" d="M1234.88,-1441.8C1281.85,-1441.17 1335.87,-1450.08 1373.25,-1482.5 1418.22,-1521.5 1381.46,-1558.86 1409.25,-1611.5 1441.47,-1672.52 1497.8,-1731.33 1530.66,-1765.63"/>
<polygon fill="black" stroke="black" points="1527.99,-1767.91 1537.43,-1772.72 1533.05,-1763.07 1527.99,-1767.91"/>
</g>
<!-- 실습결과물/14/20&#45;수중드론&#45;INDEX -->
<g id="node43" class="node">
<title>실습결과물/14/20&#45;수중드론&#45;INDEX</title>
<path fill="none" stroke="black" d="M296.88,-1516.75C296.88,-1516.75 55.88,-1516.75 55.88,-1516.75 49.88,-1516.75 43.88,-1510.75 43.88,-1504.75 43.88,-1504.75 43.88,-1486.25 43.88,-1486.25 43.88,-1480.25 49.88,-1474.25 55.88,-1474.25 55.88,-1474.25 296.88,-1474.25 296.88,-1474.25 302.88,-1474.25 308.88,-1480.25 308.88,-1486.25 308.88,-1486.25 308.88,-1504.75 308.88,-1504.75 308.88,-1510.75 302.88,-1516.75 296.88,-1516.75"/>
<text xml:space="preserve" text-anchor="middle" x="176.38" y="-1499.45" font-family="Times New Roman,serif" font-size="14.00">수중드론 사업화 인덱스</text>
<text xml:space="preserve" text-anchor="middle" x="176.38" y="-1482.2" font-family="Times New Roman,serif" font-size="14.00">실습결과물/14/20&#45;수중드론&#45;INDEX.md</text>
</g>
<!-- 실습결과물/14/00&#45;INDEX&#45;&gt;실습결과물/14/20&#45;수중드론&#45;INDEX -->
<g id="edge43" class="edge">
<title>실습결과물/14/00&#45;INDEX&#45;&gt;실습결과물/14/20&#45;수중드론&#45;INDEX</title>
<path fill="none" stroke="black" d="M1036.53,-1462.87C893.7,-1461.78 620.44,-1457.36 388.75,-1474.5 366.59,-1476.14 343.22,-1478.66 320.42,-1481.43"/>
<polygon fill="black" stroke="black" points="320.28,-1477.92 310.79,-1482.63 321.14,-1484.87 320.28,-1477.92"/>
</g>
<!-- 실습결과물/14/30&#45;소설&#45;INDEX -->
<g id="node49" class="node">
<title>실습결과물/14/30&#45;소설&#45;INDEX</title>
<path fill="none" stroke="black" d="M1662.25,-1481.75C1662.25,-1481.75 1452.75,-1481.75 1452.75,-1481.75 1446.75,-1481.75 1440.75,-1475.75 1440.75,-1469.75 1440.75,-1469.75 1440.75,-1451.25 1440.75,-1451.25 1440.75,-1445.25 1446.75,-1439.25 1452.75,-1439.25 1452.75,-1439.25 1662.25,-1439.25 1662.25,-1439.25 1668.25,-1439.25 1674.25,-1445.25 1674.25,-1451.25 1674.25,-1451.25 1674.25,-1469.75 1674.25,-1469.75 1674.25,-1475.75 1668.25,-1481.75 1662.25,-1481.75"/>
<text xml:space="preserve" text-anchor="middle" x="1557.5" y="-1464.45" font-family="Times New Roman,serif" font-size="14.00">소설 프로젝트 인덱스</text>
<text xml:space="preserve" text-anchor="middle" x="1557.5" y="-1447.2" font-family="Times New Roman,serif" font-size="14.00">실습결과물/14/30&#45;소설&#45;INDEX.md</text>
</g>
<!-- 실습결과물/14/00&#45;INDEX&#45;&gt;실습결과물/14/30&#45;소설&#45;INDEX -->
<g id="edge44" class="edge">
<title>실습결과물/14/00&#45;INDEX&#45;&gt;실습결과물/14/30&#45;소설&#45;INDEX</title>
<path fill="none" stroke="black" d="M1234.9,-1454.68C1292.72,-1453.61 1366.51,-1453.46 1428.82,-1454.23"/>
<polygon fill="black" stroke="black" points="1428.75,-1457.73 1438.8,-1454.37 1428.85,-1450.73 1428.75,-1457.73"/>
</g>
<!-- 실습결과물/14/AI요청 프롬프트 -->
<g id="node50" class="node">
<title>실습결과물/14/AI요청 프롬프트</title>
<path fill="none" stroke="black" d="M1670.5,-1383.75C1670.5,-1383.75 1444.5,-1383.75 1444.5,-1383.75 1438.5,-1383.75 1432.5,-1377.75 1432.5,-1371.75 1432.5,-1371.75 1432.5,-1353.25 1432.5,-1353.25 1432.5,-1347.25 1438.5,-1341.25 1444.5,-1341.25 1444.5,-1341.25 1670.5,-1341.25 1670.5,-1341.25 1676.5,-1341.25 1682.5,-1347.25 1682.5,-1353.25 1682.5,-1353.25 1682.5,-1371.75 1682.5,-1371.75 1682.5,-1377.75 1676.5,-1383.75 1670.5,-1383.75"/>
<text xml:space="preserve" text-anchor="middle" x="1557.5" y="-1366.45" font-family="Times New Roman,serif" font-size="14.00">AI요청 프롬프트</text>
<text xml:space="preserve" text-anchor="middle" x="1557.5" y="-1349.2" font-family="Times New Roman,serif" font-size="14.00">실습결과물/14/AI요청 프롬프트.md</text>
</g>
<!-- 실습결과물/14/00&#45;INDEX&#45;&gt;실습결과물/14/AI요청 프롬프트 -->
<g id="edge45" class="edge">
<title>실습결과물/14/00&#45;INDEX&#45;&gt;실습결과물/14/AI요청 프롬프트</title>
<path fill="none" stroke="black" d="M1234.98,-1460.55C1278.94,-1457.37 1330.4,-1449.07 1373.25,-1429.5 1392.72,-1420.61 1390.26,-1407.39 1409.25,-1397.5 1415.91,-1394.04 1422.91,-1390.91 1430.1,-1388.09"/>
<polygon fill="black" stroke="black" points="1431.15,-1391.43 1439.33,-1384.69 1428.73,-1384.86 1431.15,-1391.43"/>
</g>
<!-- 실습결과물/14/시대상 과 역사적 사실 -->
<g id="node65" class="node">
<title>실습결과물/14/시대상 과 역사적 사실</title>
<path fill="none" stroke="black" d="M2167.25,-1176.75C2167.25,-1176.75 1753.75,-1176.75 1753.75,-1176.75 1747.75,-1176.75 1741.75,-1170.75 1741.75,-1164.75 1741.75,-1164.75 1741.75,-1146.25 1741.75,-1146.25 1741.75,-1140.25 1747.75,-1134.25 1753.75,-1134.25 1753.75,-1134.25 2167.25,-1134.25 2167.25,-1134.25 2173.25,-1134.25 2179.25,-1140.25 2179.25,-1146.25 2179.25,-1146.25 2179.25,-1164.75 2179.25,-1164.75 2179.25,-1170.75 2173.25,-1176.75 2167.25,-1176.75"/>
<text xml:space="preserve" text-anchor="middle" x="1960.5" y="-1159.45" font-family="Times New Roman,serif" font-size="14.00">후삼국~고려 건국기 시대상과 역사적 사실 검증 메모 (889~936)</text>
<text xml:space="preserve" text-anchor="middle" x="1960.5" y="-1142.2" font-family="Times New Roman,serif" font-size="14.00">실습결과물/14/시대상 과 역사적 사실.md</text>
</g>
<!-- 실습결과물/14/00&#45;INDEX&#45;&gt;실습결과물/14/시대상 과 역사적 사실 -->
<g id="edge48" class="edge">
<title>실습결과물/14/00&#45;INDEX&#45;&gt;실습결과물/14/시대상 과 역사적 사실</title>
<path fill="none" stroke="black" d="M1234.96,-1449.51C1396.63,-1431.31 1701.51,-1396.52 1705.75,-1392.5 1773.22,-1328.58 1675,-1251.17 1741.75,-1186.5 1742.64,-1185.64 1743.55,-1184.79 1744.46,-1183.96"/>
<polygon fill="black" stroke="black" points="1746.34,-1186.95 1751.84,-1177.89 1741.9,-1181.54 1746.34,-1186.95"/>
</g>
<!-- 실습결과물/14/업무일지 작성프롬프트 -->
<g id="node66" class="node">
<title>실습결과물/14/업무일지 작성프롬프트</title>
<path fill="none" stroke="black" d="M2097.88,-1725.75C2097.88,-1725.75 1823.12,-1725.75 1823.12,-1725.75 1817.12,-1725.75 1811.12,-1719.75 1811.12,-1713.75 1811.12,-1713.75 1811.12,-1695.25 1811.12,-1695.25 1811.12,-1689.25 1817.12,-1683.25 1823.12,-1683.25 1823.12,-1683.25 2097.88,-1683.25 2097.88,-1683.25 2103.88,-1683.25 2109.88,-1689.25 2109.88,-1695.25 2109.88,-1695.25 2109.88,-1713.75 2109.88,-1713.75 2109.88,-1719.75 2103.88,-1725.75 2097.88,-1725.75"/>
<text xml:space="preserve" text-anchor="middle" x="1960.5" y="-1708.45" font-family="Times New Roman,serif" font-size="14.00">업무일지 작성 프롬프트</text>
<text xml:space="preserve" text-anchor="middle" x="1960.5" y="-1691.2" font-family="Times New Roman,serif" font-size="14.00">실습결과물/14/업무일지 작성프롬프트.md</text>
</g>
<!-- 실습결과물/14/00&#45;INDEX&#45;&gt;실습결과물/14/업무일지 작성프롬프트 -->
<g id="edge46" class="edge">
<title>실습결과물/14/00&#45;INDEX&#45;&gt;실습결과물/14/업무일지 작성프롬프트</title>
<path fill="none" stroke="black" d="M1234.93,-1466.11C1278.05,-1470.42 1328.87,-1478.04 1373.25,-1491.5 1548.05,-1544.53 1567.25,-1619.5 1741.75,-1673.5 1760.21,-1679.21 1779.88,-1683.88 1799.56,-1687.69"/>
<polygon fill="black" stroke="black" points="1798.85,-1691.11 1809.32,-1689.5 1800.13,-1684.23 1798.85,-1691.11"/>
</g>
<!-- 실습결과물/14/이메일발송프롬프트 -->
<g id="node67" class="node">
<title>실습결과물/14/이메일발송프롬프트</title>
<path fill="none" stroke="black" d="M1685.12,-1322.75C1685.12,-1322.75 1429.88,-1322.75 1429.88,-1322.75 1423.88,-1322.75 1417.88,-1316.75 1417.88,-1310.75 1417.88,-1310.75 1417.88,-1292.25 1417.88,-1292.25 1417.88,-1286.25 1423.88,-1280.25 1429.88,-1280.25 1429.88,-1280.25 1685.12,-1280.25 1685.12,-1280.25 1691.12,-1280.25 1697.12,-1286.25 1697.12,-1292.25 1697.12,-1292.25 1697.12,-1310.75 1697.12,-1310.75 1697.12,-1316.75 1691.12,-1322.75 1685.12,-1322.75"/>
<text xml:space="preserve" text-anchor="middle" x="1557.5" y="-1305.45" font-family="Times New Roman,serif" font-size="14.00">이메일 발송 프롬프트</text>
<text xml:space="preserve" text-anchor="middle" x="1557.5" y="-1288.2" font-family="Times New Roman,serif" font-size="14.00">실습결과물/14/이메일발송프롬프트.md</text>
</g>
<!-- 실습결과물/14/00&#45;INDEX&#45;&gt;실습결과물/14/이메일발송프롬프트 -->
<g id="edge47" class="edge">
<title>실습결과물/14/00&#45;INDEX&#45;&gt;실습결과물/14/이메일발송프롬프트</title>
<path fill="none" stroke="black" d="M1234.93,-1469.75C1281.35,-1469 1334.87,-1460.08 1373.25,-1429.5 1409.21,-1400.84 1374.42,-1362.53 1409.25,-1332.5 1410.52,-1331.41 1411.81,-1330.35 1413.14,-1329.33"/>
<polygon fill="black" stroke="black" points="1414.74,-1332.47 1420.98,-1323.92 1410.76,-1326.71 1414.74,-1332.47"/>
</g>
<!-- 실습결과물/14/10&#45;주간업무일지&#45;INDEX&#45;&gt;실습결과물/14/00&#45;INDEX -->
<g id="edge55" class="edge">
<title>실습결과물/14/10&#45;주간업무일지&#45;INDEX&#45;&gt;실습결과물/14/00&#45;INDEX</title>
<path fill="none" stroke="black" d="M1526.11,-1773.98C1492.8,-1744.06 1440.03,-1687.79 1409.25,-1629.5 1381.46,-1576.86 1418.22,-1539.5 1373.25,-1500.5 1338.86,-1470.67 1290.4,-1460.74 1246.29,-1458.41"/>
<polygon fill="black" stroke="black" points="1246.52,-1454.92 1236.39,-1458.03 1246.25,-1461.92 1246.52,-1454.92"/>
</g>
<!-- 실습결과물/14/2026_3_13_주간 업무일지 -->
<g id="node44" class="node">
<title>실습결과물/14/2026_3_13_주간 업무일지</title>
<path fill="none" stroke="black" d="M2100.12,-2030.75C2100.12,-2030.75 1820.88,-2030.75 1820.88,-2030.75 1814.88,-2030.75 1808.88,-2024.75 1808.88,-2018.75 1808.88,-2018.75 1808.88,-2000.25 1808.88,-2000.25 1808.88,-1994.25 1814.88,-1988.25 1820.88,-1988.25 1820.88,-1988.25 2100.12,-1988.25 2100.12,-1988.25 2106.12,-1988.25 2112.12,-1994.25 2112.12,-2000.25 2112.12,-2000.25 2112.12,-2018.75 2112.12,-2018.75 2112.12,-2024.75 2106.12,-2030.75 2100.12,-2030.75"/>
<text xml:space="preserve" text-anchor="middle" x="1960.5" y="-2013.45" font-family="Times New Roman,serif" font-size="14.00">🗓️ 주간 업무 보고서</text>
<text xml:space="preserve" text-anchor="middle" x="1960.5" y="-1996.2" font-family="Times New Roman,serif" font-size="14.00">실습결과물/14/2026_3_13_주간 업무일지.md</text>
</g>
<!-- 실습결과물/14/10&#45;주간업무일지&#45;INDEX&#45;&gt;실습결과물/14/2026_3_13_주간 업무일지 -->
<g id="edge49" class="edge">
<title>실습결과물/14/10&#45;주간업무일지&#45;INDEX&#45;&gt;실습결과물/14/2026_3_13_주간 업무일지</title>
<path fill="none" stroke="black" d="M1572.87,-1817.17C1600.39,-1856.72 1664.72,-1940.04 1741.75,-1978.5 1759.11,-1987.17 1778.15,-1993.61 1797.53,-1998.38"/>
<polygon fill="black" stroke="black" points="1796.64,-2001.77 1807.17,-2000.59 1798.21,-1994.95 1796.64,-2001.77"/>
</g>
<!-- 실습결과물/14/2026_3_20_주간 업무일지 -->
<g id="node45" class="node">
<title>실습결과물/14/2026_3_20_주간 업무일지</title>
<path fill="none" stroke="black" d="M2100.12,-1969.75C2100.12,-1969.75 1820.88,-1969.75 1820.88,-1969.75 1814.88,-1969.75 1808.88,-1963.75 1808.88,-1957.75 1808.88,-1957.75 1808.88,-1939.25 1808.88,-1939.25 1808.88,-1933.25 1814.88,-1927.25 1820.88,-1927.25 1820.88,-1927.25 2100.12,-1927.25 2100.12,-1927.25 2106.12,-1927.25 2112.12,-1933.25 2112.12,-1939.25 2112.12,-1939.25 2112.12,-1957.75 2112.12,-1957.75 2112.12,-1963.75 2106.12,-1969.75 2100.12,-1969.75"/>
<text xml:space="preserve" text-anchor="middle" x="1960.5" y="-1952.45" font-family="Times New Roman,serif" font-size="14.00">🗓️ 주간 업무 보고서</text>
<text xml:space="preserve" text-anchor="middle" x="1960.5" y="-1935.2" font-family="Times New Roman,serif" font-size="14.00">실습결과물/14/2026_3_20_주간 업무일지.md</text>
</g>
<!-- 실습결과물/14/10&#45;주간업무일지&#45;INDEX&#45;&gt;실습결과물/14/2026_3_20_주간 업무일지 -->
<g id="edge50" class="edge">
<title>실습결과물/14/10&#45;주간업무일지&#45;INDEX&#45;&gt;실습결과물/14/2026_3_20_주간 업무일지</title>
<path fill="none" stroke="black" d="M1582.87,-1817.01C1616.21,-1845.13 1679.08,-1893.6 1741.75,-1917.5 1759.35,-1924.21 1778.24,-1929.49 1797.29,-1933.63"/>
<polygon fill="black" stroke="black" points="1796.53,-1937.05 1807.03,-1935.64 1797.94,-1930.19 1796.53,-1937.05"/>
</g>
<!-- 실습결과물/14/2026_3_27_주간 업무일지 -->
<g id="node46" class="node">
<title>실습결과물/14/2026_3_27_주간 업무일지</title>
<path fill="none" stroke="black" d="M2100.12,-1908.75C2100.12,-1908.75 1820.88,-1908.75 1820.88,-1908.75 1814.88,-1908.75 1808.88,-1902.75 1808.88,-1896.75 1808.88,-1896.75 1808.88,-1878.25 1808.88,-1878.25 1808.88,-1872.25 1814.88,-1866.25 1820.88,-1866.25 1820.88,-1866.25 2100.12,-1866.25 2100.12,-1866.25 2106.12,-1866.25 2112.12,-1872.25 2112.12,-1878.25 2112.12,-1878.25 2112.12,-1896.75 2112.12,-1896.75 2112.12,-1902.75 2106.12,-1908.75 2100.12,-1908.75"/>
<text xml:space="preserve" text-anchor="middle" x="1960.5" y="-1891.45" font-family="Times New Roman,serif" font-size="14.00">🗓️ 주간 업무 보고서</text>
<text xml:space="preserve" text-anchor="middle" x="1960.5" y="-1874.2" font-family="Times New Roman,serif" font-size="14.00">실습결과물/14/2026_3_27_주간 업무일지.md</text>
</g>
<!-- 실습결과물/14/10&#45;주간업무일지&#45;INDEX&#45;&gt;실습결과물/14/2026_3_27_주간 업무일지 -->
<g id="edge51" class="edge">
<title>실습결과물/14/10&#45;주간업무일지&#45;INDEX&#45;&gt;실습결과물/14/2026_3_27_주간 업무일지</title>
<path fill="none" stroke="black" d="M1614.7,-1817.13C1650.58,-1830.21 1698.34,-1846.27 1741.75,-1856.5 1759.69,-1860.73 1778.61,-1864.46 1797.5,-1867.74"/>
<polygon fill="black" stroke="black" points="1796.68,-1871.15 1807.12,-1869.37 1797.84,-1864.25 1796.68,-1871.15"/>
</g>
<!-- 실습결과물/14/2026_4_10_주간 업무일지 -->
<g id="node47" class="node">
<title>실습결과물/14/2026_4_10_주간 업무일지</title>
<path fill="none" stroke="black" d="M2100.12,-1847.75C2100.12,-1847.75 1820.88,-1847.75 1820.88,-1847.75 1814.88,-1847.75 1808.88,-1841.75 1808.88,-1835.75 1808.88,-1835.75 1808.88,-1817.25 1808.88,-1817.25 1808.88,-1811.25 1814.88,-1805.25 1820.88,-1805.25 1820.88,-1805.25 2100.12,-1805.25 2100.12,-1805.25 2106.12,-1805.25 2112.12,-1811.25 2112.12,-1817.25 2112.12,-1817.25 2112.12,-1835.75 2112.12,-1835.75 2112.12,-1841.75 2106.12,-1847.75 2100.12,-1847.75"/>
<text xml:space="preserve" text-anchor="middle" x="1960.5" y="-1830.45" font-family="Times New Roman,serif" font-size="14.00">🗓️ 주간 업무 보고서</text>
<text xml:space="preserve" text-anchor="middle" x="1960.5" y="-1813.2" font-family="Times New Roman,serif" font-size="14.00">실습결과물/14/2026_4_10_주간 업무일지.md</text>
</g>
<!-- 실습결과물/14/10&#45;주간업무일지&#45;INDEX&#45;&gt;실습결과물/14/2026_4_10_주간 업무일지 -->
<g id="edge53" class="edge">
<title>실습결과물/14/10&#45;주간업무일지&#45;INDEX&#45;&gt;실습결과물/14/2026_4_10_주간 업무일지</title>
<path fill="none" stroke="black" d="M1706.11,-1806.91C1735.71,-1809.2 1766.97,-1811.62 1797.05,-1813.94"/>
<polygon fill="black" stroke="black" points="1796.76,-1817.43 1807,-1814.71 1797.3,-1810.45 1796.76,-1817.43"/>
</g>
<!-- 실습결과물/14/2026_4_3_주간 업무일지 -->
<g id="node48" class="node">
<title>실습결과물/14/2026_4_3_주간 업무일지</title>
<path fill="none" stroke="black" d="M2096.75,-1786.75C2096.75,-1786.75 1824.25,-1786.75 1824.25,-1786.75 1818.25,-1786.75 1812.25,-1780.75 1812.25,-1774.75 1812.25,-1774.75 1812.25,-1756.25 1812.25,-1756.25 1812.25,-1750.25 1818.25,-1744.25 1824.25,-1744.25 1824.25,-1744.25 2096.75,-1744.25 2096.75,-1744.25 2102.75,-1744.25 2108.75,-1750.25 2108.75,-1756.25 2108.75,-1756.25 2108.75,-1774.75 2108.75,-1774.75 2108.75,-1780.75 2102.75,-1786.75 2096.75,-1786.75"/>
<text xml:space="preserve" text-anchor="middle" x="1960.5" y="-1769.45" font-family="Times New Roman,serif" font-size="14.00">🗓️ 주간 업무 보고서</text>
<text xml:space="preserve" text-anchor="middle" x="1960.5" y="-1752.2" font-family="Times New Roman,serif" font-size="14.00">실습결과물/14/2026_4_3_주간 업무일지.md</text>
</g>
<!-- 실습결과물/14/10&#45;주간업무일지&#45;INDEX&#45;&gt;실습결과물/14/2026_4_3_주간 업무일지 -->
<g id="edge52" class="edge">
<title>실습결과물/14/10&#45;주간업무일지&#45;INDEX&#45;&gt;실습결과물/14/2026_4_3_주간 업무일지</title>
<path fill="none" stroke="black" d="M1706.11,-1784.46C1736.84,-1782.16 1769.35,-1779.73 1800.47,-1777.4"/>
<polygon fill="black" stroke="black" points="1800.65,-1780.89 1810.36,-1776.66 1800.13,-1773.91 1800.65,-1780.89"/>
</g>
<!-- 실습결과물/14/10&#45;주간업무일지&#45;INDEX&#45;&gt;실습결과물/14/업무일지 작성프롬프트 -->
<g id="edge54" class="edge">
<title>실습결과물/14/10&#45;주간업무일지&#45;INDEX&#45;&gt;실습결과물/14/업무일지 작성프롬프트</title>
<path fill="none" stroke="black" d="M1615.95,-1773.82C1651.7,-1761.05 1698.88,-1745.49 1741.75,-1735.5 1760.33,-1731.17 1779.96,-1727.35 1799.51,-1724"/>
<polygon fill="black" stroke="black" points="1799.9,-1727.49 1809.19,-1722.39 1798.75,-1720.58 1799.9,-1727.49"/>
</g>
<!-- 실습결과물/14/20&#45;수중드론&#45;INDEX&#45;&gt;실습결과물/13/수중드론_사업화_기획안 -->
<g id="edge63" class="edge">
<title>실습결과물/14/20&#45;수중드론&#45;INDEX&#45;&gt;실습결과물/13/수중드론_사업화_기획안</title>
<path fill="none" stroke="black" d="M309.19,-1500.51C325.44,-1506.1 340.58,-1514.41 352.75,-1526.5 415.59,-1588.92 320.7,-1665.81 388.75,-1722.5 469.6,-1789.85 768.14,-1769.56 862.25,-1722.5 886.1,-1710.57 875.23,-1687.95 898.25,-1674.5 920.05,-1661.76 944.88,-1653.33 970.07,-1647.88"/>
<polygon fill="black" stroke="black" points="970.65,-1651.33 979.78,-1645.95 969.29,-1644.47 970.65,-1651.33"/>
</g>
<!-- 실습결과물/14/20&#45;수중드론&#45;INDEX&#45;&gt;실습결과물/13/해양드론딥리서치결과 -->
<g id="edge62" class="edge">
<title>실습결과물/14/20&#45;수중드론&#45;INDEX&#45;&gt;실습결과물/13/해양드론딥리서치결과</title>
<path fill="none" stroke="black" d="M309.13,-1514.52C324,-1517.92 338.81,-1521.89 352.75,-1526.5 369.73,-1532.12 371.45,-1539.95 388.75,-1544.5 578.24,-1594.36 803.92,-1598.6 957.06,-1593.7"/>
<polygon fill="black" stroke="black" points="957.03,-1597.21 966.91,-1593.37 956.8,-1590.21 957.03,-1597.21"/>
</g>
<!-- 실습결과물/14/20&#45;수중드론&#45;INDEX&#45;&gt;실습결과물/14/00&#45;INDEX -->
<g id="edge64" class="edge">
<title>실습결과물/14/20&#45;수중드론&#45;INDEX&#45;&gt;실습결과물/14/00&#45;INDEX</title>
<path fill="none" stroke="black" d="M255.4,-1473.8C295.18,-1466.58 344.39,-1459.78 388.75,-1456.5 614.55,-1439.8 879.85,-1443.57 1025.4,-1450.52"/>
<polygon fill="black" stroke="black" points="1024.86,-1453.99 1035.02,-1450.99 1025.2,-1447 1024.86,-1453.99"/>
</g>
<!-- 실습결과물/14/수중드론_사업화_1페이지_BLUF -->
<g id="node59" class="node">
<title>실습결과물/14/수중드론_사업화_1페이지_BLUF</title>
<path fill="none" stroke="black" d="M1301.62,-1420.75C1301.62,-1420.75 969.88,-1420.75 969.88,-1420.75 963.88,-1420.75 957.88,-1414.75 957.88,-1408.75 957.88,-1408.75 957.88,-1390.25 957.88,-1390.25 957.88,-1384.25 963.88,-1378.25 969.88,-1378.25 969.88,-1378.25 1301.62,-1378.25 1301.62,-1378.25 1307.62,-1378.25 1313.62,-1384.25 1313.62,-1390.25 1313.62,-1390.25 1313.62,-1408.75 1313.62,-1408.75 1313.62,-1414.75 1307.62,-1420.75 1301.62,-1420.75"/>
<text xml:space="preserve" text-anchor="middle" x="1135.75" y="-1403.45" font-family="Times New Roman,serif" font-size="14.00">수중드론 사업화 1페이지 요약안 (BLUF)</text>
<text xml:space="preserve" text-anchor="middle" x="1135.75" y="-1386.2" font-family="Times New Roman,serif" font-size="14.00">실습결과물/14/수중드론_사업화_1페이지_BLUF.md</text>
</g>
<!-- 실습결과물/14/20&#45;수중드론&#45;INDEX&#45;&gt;실습결과물/14/수중드론_사업화_1페이지_BLUF -->
<g id="edge59" class="edge">
<title>실습결과물/14/20&#45;수중드론&#45;INDEX&#45;&gt;실습결과물/14/수중드론_사업화_1페이지_BLUF</title>
<path fill="none" stroke="black" d="M263.24,-1473.81C301.44,-1464.94 347.1,-1455.39 388.75,-1449.5 577.46,-1422.79 795.09,-1410.27 946.41,-1404.45"/>
<polygon fill="black" stroke="black" points="946.27,-1407.96 956.13,-1404.08 946,-1400.96 946.27,-1407.96"/>
</g>
<!-- 실습결과물/14/수중드론_사업화_1페이지_BLUF_열정설득서술형 -->
<g id="node60" class="node">
<title>실습결과물/14/수중드론_사업화_1페이지_BLUF_열정설득서술형</title>
<path fill="none" stroke="black" d="M850.25,-1713.75C850.25,-1713.75 400.75,-1713.75 400.75,-1713.75 394.75,-1713.75 388.75,-1707.75 388.75,-1701.75 388.75,-1701.75 388.75,-1683.25 388.75,-1683.25 388.75,-1677.25 394.75,-1671.25 400.75,-1671.25 400.75,-1671.25 850.25,-1671.25 850.25,-1671.25 856.25,-1671.25 862.25,-1677.25 862.25,-1683.25 862.25,-1683.25 862.25,-1701.75 862.25,-1701.75 862.25,-1707.75 856.25,-1713.75 850.25,-1713.75"/>
<text xml:space="preserve" text-anchor="middle" x="625.5" y="-1696.45" font-family="Times New Roman,serif" font-size="14.00">수중드론 사업화 1페이지 제안서 (열정·설득 서술형)</text>
<text xml:space="preserve" text-anchor="middle" x="625.5" y="-1679.2" font-family="Times New Roman,serif" font-size="14.00">실습결과물/14/수중드론_사업화_1페이지_BLUF_열정설득서술형.md</text>
</g>
<!-- 실습결과물/14/20&#45;수중드론&#45;INDEX&#45;&gt;실습결과물/14/수중드론_사업화_1페이지_BLUF_열정설득서술형 -->
<g id="edge60" class="edge">
<title>실습결과물/14/20&#45;수중드론&#45;INDEX&#45;&gt;실습결과물/14/수중드론_사업화_1페이지_BLUF_열정설득서술형</title>
<path fill="none" stroke="black" d="M309.22,-1501.71C325.26,-1507.16 340.34,-1515.11 352.75,-1526.5 398.5,-1568.49 342.08,-1620.53 388.75,-1661.5 389.7,-1662.33 390.66,-1663.15 391.63,-1663.96"/>
<polygon fill="black" stroke="black" points="389.36,-1666.63 399.45,-1669.87 393.58,-1661.04 389.36,-1666.63"/>
</g>
<!-- 실습결과물/14/수중드론_사업화_1페이지_BLUF_포멀서술형 -->
<g id="node61" class="node">
<title>실습결과물/14/수중드론_사업화_1페이지_BLUF_포멀서술형</title>
<path fill="none" stroke="black" d="M834.5,-1652.75C834.5,-1652.75 416.5,-1652.75 416.5,-1652.75 410.5,-1652.75 404.5,-1646.75 404.5,-1640.75 404.5,-1640.75 404.5,-1622.25 404.5,-1622.25 404.5,-1616.25 410.5,-1610.25 416.5,-1610.25 416.5,-1610.25 834.5,-1610.25 834.5,-1610.25 840.5,-1610.25 846.5,-1616.25 846.5,-1622.25 846.5,-1622.25 846.5,-1640.75 846.5,-1640.75 846.5,-1646.75 840.5,-1652.75 834.5,-1652.75"/>
<text xml:space="preserve" text-anchor="middle" x="625.5" y="-1635.45" font-family="Times New Roman,serif" font-size="14.00">수중드론 사업화 1페이지 보고서 (포멀 서술형)</text>
<text xml:space="preserve" text-anchor="middle" x="625.5" y="-1618.2" font-family="Times New Roman,serif" font-size="14.00">실습결과물/14/수중드론_사업화_1페이지_BLUF_포멀서술형.md</text>
</g>
<!-- 실습결과물/14/20&#45;수중드론&#45;INDEX&#45;&gt;실습결과물/14/수중드론_사업화_1페이지_BLUF_포멀서술형 -->
<g id="edge61" class="edge">
<title>실습결과물/14/20&#45;수중드론&#45;INDEX&#45;&gt;실습결과물/14/수중드론_사업화_1페이지_BLUF_포멀서술형</title>
<path fill="none" stroke="black" d="M309.33,-1505C324.89,-1510.01 339.81,-1516.96 352.75,-1526.5 380.91,-1547.26 360.31,-1576.13 388.75,-1596.5 392.68,-1599.31 396.73,-1601.94 400.9,-1604.4"/>
<polygon fill="black" stroke="black" points="399.05,-1607.37 409.5,-1609.09 402.4,-1601.23 399.05,-1607.37"/>
</g>
<!-- 실습결과물/14/수중드론_사업화_기획안 -->
<g id="node62" class="node">
<title>실습결과물/14/수중드론_사업화_기획안</title>
<path fill="none" stroke="black" d="M767.75,-1516.75C767.75,-1516.75 483.25,-1516.75 483.25,-1516.75 477.25,-1516.75 471.25,-1510.75 471.25,-1504.75 471.25,-1504.75 471.25,-1486.25 471.25,-1486.25 471.25,-1480.25 477.25,-1474.25 483.25,-1474.25 483.25,-1474.25 767.75,-1474.25 767.75,-1474.25 773.75,-1474.25 779.75,-1480.25 779.75,-1486.25 779.75,-1486.25 779.75,-1504.75 779.75,-1504.75 779.75,-1510.75 773.75,-1516.75 767.75,-1516.75"/>
<text xml:space="preserve" text-anchor="middle" x="625.5" y="-1499.45" font-family="Times New Roman,serif" font-size="14.00">수중드론 사업화 기획안(운영형)</text>
<text xml:space="preserve" text-anchor="middle" x="625.5" y="-1482.2" font-family="Times New Roman,serif" font-size="14.00">실습결과물/14/수중드론_사업화_기획안.md</text>
</g>
<!-- 실습결과물/14/20&#45;수중드론&#45;INDEX&#45;&gt;실습결과물/14/수중드론_사업화_기획안 -->
<g id="edge56" class="edge">
<title>실습결과물/14/20&#45;수중드론&#45;INDEX&#45;&gt;실습결과물/14/수중드론_사업화_기획안</title>
<path fill="none" stroke="black" d="M309.11,-1489.28C356.19,-1488.71 409.84,-1488.6 459.38,-1488.96"/>
<polygon fill="black" stroke="black" points="459.34,-1492.46 469.37,-1489.04 459.39,-1485.46 459.34,-1492.46"/>
</g>
<!-- 실습결과물/14/수중드론_사업화_상세기획안 -->
<g id="node63" class="node">
<title>실습결과물/14/수중드론_사업화_상세기획안</title>
<path fill="none" stroke="black" d="M1293.75,-1359.75C1293.75,-1359.75 977.75,-1359.75 977.75,-1359.75 971.75,-1359.75 965.75,-1353.75 965.75,-1347.75 965.75,-1347.75 965.75,-1329.25 965.75,-1329.25 965.75,-1323.25 971.75,-1317.25 977.75,-1317.25 977.75,-1317.25 1293.75,-1317.25 1293.75,-1317.25 1299.75,-1317.25 1305.75,-1323.25 1305.75,-1329.25 1305.75,-1329.25 1305.75,-1347.75 1305.75,-1347.75 1305.75,-1353.75 1299.75,-1359.75 1293.75,-1359.75"/>
<text xml:space="preserve" text-anchor="middle" x="1135.75" y="-1342.45" font-family="Times New Roman,serif" font-size="14.00">수중드론 사업화 상세 기획안</text>
<text xml:space="preserve" text-anchor="middle" x="1135.75" y="-1325.2" font-family="Times New Roman,serif" font-size="14.00">실습결과물/14/수중드론_사업화_상세기획안.md</text>
</g>
<!-- 실습결과물/14/20&#45;수중드론&#45;INDEX&#45;&gt;실습결과물/14/수중드론_사업화_상세기획안 -->
<g id="edge57" class="edge">
<title>실습결과물/14/20&#45;수중드론&#45;INDEX&#45;&gt;실습결과물/14/수중드론_사업화_상세기획안</title>
<path fill="none" stroke="black" d="M216.94,-1473.91C258.44,-1452.38 326.19,-1420.3 388.75,-1404.5 577.84,-1356.74 801.45,-1342.29 954.21,-1338.51"/>
<polygon fill="black" stroke="black" points="954.12,-1342.02 964.04,-1338.28 953.96,-1335.02 954.12,-1342.02"/>
</g>
<!-- 실습결과물/14/수중드론_사업화_타당성 -->
<g id="node64" class="node">
<title>실습결과물/14/수중드론_사업화_타당성</title>
<path fill="none" stroke="black" d="M1361.25,-1542.75C1361.25,-1542.75 910.25,-1542.75 910.25,-1542.75 904.25,-1542.75 898.25,-1536.75 898.25,-1530.75 898.25,-1530.75 898.25,-1512.25 898.25,-1512.25 898.25,-1506.25 904.25,-1500.25 910.25,-1500.25 910.25,-1500.25 1361.25,-1500.25 1361.25,-1500.25 1367.25,-1500.25 1373.25,-1506.25 1373.25,-1512.25 1373.25,-1512.25 1373.25,-1530.75 1373.25,-1530.75 1373.25,-1536.75 1367.25,-1542.75 1361.25,-1542.75"/>
<text xml:space="preserve" text-anchor="middle" x="1135.75" y="-1525.45" font-family="Times New Roman,serif" font-size="14.00">수중드론 사업화 운영안 초안 타당성 검증 및 객관적 피드백 보고서</text>
<text xml:space="preserve" text-anchor="middle" x="1135.75" y="-1508.2" font-family="Times New Roman,serif" font-size="14.00">실습결과물/14/수중드론_사업화_타당성.md</text>
</g>
<!-- 실습결과물/14/20&#45;수중드론&#45;INDEX&#45;&gt;실습결과물/14/수중드론_사업화_타당성 -->
<g id="edge58" class="edge">
<title>실습결과물/14/20&#45;수중드론&#45;INDEX&#45;&gt;실습결과물/14/수중드론_사업화_타당성</title>
<path fill="none" stroke="black" d="M309.28,-1517.14C335.53,-1520.62 362.96,-1523.68 388.75,-1525.5 554.48,-1537.2 741.44,-1536.17 886.74,-1532.23"/>
<polygon fill="black" stroke="black" points="886.6,-1535.74 896.5,-1531.96 886.4,-1528.74 886.6,-1535.74"/>
</g>
<!-- 실습결과물/14/30&#45;소설&#45;INDEX&#45;&gt;실습결과물/14/00&#45;INDEX -->
<g id="edge74" class="edge">
<title>실습결과물/14/30&#45;소설&#45;INDEX&#45;&gt;실습결과물/14/00&#45;INDEX</title>
<path fill="none" stroke="black" d="M1440.31,-1466.61C1379.66,-1467.5 1305.88,-1467.46 1246.24,-1466.51"/>
<polygon fill="black" stroke="black" points="1246.47,-1463.01 1236.41,-1466.34 1246.35,-1470.01 1246.47,-1463.01"/>
</g>
<!-- 실습결과물/14/고려빙의_스토리라인 -->
<g id="node51" class="node">
<title>실습결과물/14/고려빙의_스토리라인</title>
<path fill="none" stroke="black" d="M2091.5,-1359.75C2091.5,-1359.75 1829.5,-1359.75 1829.5,-1359.75 1823.5,-1359.75 1817.5,-1353.75 1817.5,-1347.75 1817.5,-1347.75 1817.5,-1329.25 1817.5,-1329.25 1817.5,-1323.25 1823.5,-1317.25 1829.5,-1317.25 1829.5,-1317.25 2091.5,-1317.25 2091.5,-1317.25 2097.5,-1317.25 2103.5,-1323.25 2103.5,-1329.25 2103.5,-1329.25 2103.5,-1347.75 2103.5,-1347.75 2103.5,-1353.75 2097.5,-1359.75 2091.5,-1359.75"/>
<text xml:space="preserve" text-anchor="middle" x="1960.5" y="-1342.45" font-family="Times New Roman,serif" font-size="14.00">철혈의 새벽: 고려의 그림자 설계자</text>
<text xml:space="preserve" text-anchor="middle" x="1960.5" y="-1325.2" font-family="Times New Roman,serif" font-size="14.00">실습결과물/14/고려빙의_스토리라인.md</text>
</g>
<!-- 실습결과물/14/30&#45;소설&#45;INDEX&#45;&gt;실습결과물/14/고려빙의_스토리라인 -->
<g id="edge65" class="edge">
<title>실습결과물/14/30&#45;소설&#45;INDEX&#45;&gt;실습결과물/14/고려빙의_스토리라인</title>
<path fill="none" stroke="black" d="M1674.41,-1442.15C1685.54,-1437.73 1696.21,-1432.26 1705.75,-1425.5 1729.89,-1408.39 1716.85,-1385.48 1741.75,-1369.5 1761.01,-1357.14 1783.2,-1348.87 1805.87,-1343.45"/>
<polygon fill="black" stroke="black" points="1806.53,-1346.89 1815.55,-1341.33 1805.04,-1340.05 1806.53,-1346.89"/>
</g>
<!-- 실습결과물/14/소설1권 -->
<g id="node52" class="node">
<title>실습결과물/14/소설1권</title>
<path fill="none" stroke="black" d="M2076.12,-1298.75C2076.12,-1298.75 1844.88,-1298.75 1844.88,-1298.75 1838.88,-1298.75 1832.88,-1292.75 1832.88,-1286.75 1832.88,-1286.75 1832.88,-1268.25 1832.88,-1268.25 1832.88,-1262.25 1838.88,-1256.25 1844.88,-1256.25 1844.88,-1256.25 2076.12,-1256.25 2076.12,-1256.25 2082.12,-1256.25 2088.12,-1262.25 2088.12,-1268.25 2088.12,-1268.25 2088.12,-1286.75 2088.12,-1286.75 2088.12,-1292.75 2082.12,-1298.75 2076.12,-1298.75"/>
<text xml:space="preserve" text-anchor="middle" x="1960.5" y="-1281.45" font-family="Times New Roman,serif" font-size="14.00">철혈의 새벽: 고려의 그림자 설계자</text>
<text xml:space="preserve" text-anchor="middle" x="1960.5" y="-1264.2" font-family="Times New Roman,serif" font-size="14.00">실습결과물/14/소설1권.md</text>
</g>
<!-- 실습결과물/14/30&#45;소설&#45;INDEX&#45;&gt;실습결과물/14/소설1권 -->
<g id="edge68" class="edge">
<title>실습결과물/14/30&#45;소설&#45;INDEX&#45;&gt;실습결과물/14/소설1권</title>
<path fill="none" stroke="black" d="M1674.66,-1445.49C1686.07,-1440.47 1696.74,-1433.94 1705.75,-1425.5 1745.45,-1388.3 1700.38,-1343.83 1741.75,-1308.5 1764.02,-1289.48 1792.49,-1279.07 1821.45,-1273.83"/>
<polygon fill="black" stroke="black" points="1821.74,-1277.33 1831.07,-1272.3 1820.64,-1270.41 1821.74,-1277.33"/>
</g>
<!-- 실습결과물/14/소설2권 -->
<g id="node53" class="node">
<title>실습결과물/14/소설2권</title>
<path fill="none" stroke="black" d="M2076.12,-1237.75C2076.12,-1237.75 1844.88,-1237.75 1844.88,-1237.75 1838.88,-1237.75 1832.88,-1231.75 1832.88,-1225.75 1832.88,-1225.75 1832.88,-1207.25 1832.88,-1207.25 1832.88,-1201.25 1838.88,-1195.25 1844.88,-1195.25 1844.88,-1195.25 2076.12,-1195.25 2076.12,-1195.25 2082.12,-1195.25 2088.12,-1201.25 2088.12,-1207.25 2088.12,-1207.25 2088.12,-1225.75 2088.12,-1225.75 2088.12,-1231.75 2082.12,-1237.75 2076.12,-1237.75"/>
<text xml:space="preserve" text-anchor="middle" x="1960.5" y="-1220.45" font-family="Times New Roman,serif" font-size="14.00">철혈의 새벽: 고려의 그림자 설계자</text>
<text xml:space="preserve" text-anchor="middle" x="1960.5" y="-1203.2" font-family="Times New Roman,serif" font-size="14.00">실습결과물/14/소설2권.md</text>
</g>
<!-- 실습결과물/14/30&#45;소설&#45;INDEX&#45;&gt;실습결과물/14/소설2권 -->
<g id="edge69" class="edge">
<title>실습결과물/14/30&#45;소설&#45;INDEX&#45;&gt;실습결과물/14/소설2권</title>
<path fill="none" stroke="black" d="M1674.44,-1446.85C1686.11,-1441.61 1696.89,-1434.66 1705.75,-1425.5 1761.85,-1367.47 1683.04,-1302.89 1741.75,-1247.5 1763.36,-1227.11 1791.95,-1216.25 1821.28,-1211.01"/>
<polygon fill="black" stroke="black" points="1821.7,-1214.49 1831.05,-1209.5 1820.63,-1207.57 1821.7,-1214.49"/>
</g>
<!-- 실습결과물/14/소설3권 -->
<g id="node54" class="node">
<title>실습결과물/14/소설3권</title>
<path fill="none" stroke="black" d="M2076.12,-1664.75C2076.12,-1664.75 1844.88,-1664.75 1844.88,-1664.75 1838.88,-1664.75 1832.88,-1658.75 1832.88,-1652.75 1832.88,-1652.75 1832.88,-1634.25 1832.88,-1634.25 1832.88,-1628.25 1838.88,-1622.25 1844.88,-1622.25 1844.88,-1622.25 2076.12,-1622.25 2076.12,-1622.25 2082.12,-1622.25 2088.12,-1628.25 2088.12,-1634.25 2088.12,-1634.25 2088.12,-1652.75 2088.12,-1652.75 2088.12,-1658.75 2082.12,-1664.75 2076.12,-1664.75"/>
<text xml:space="preserve" text-anchor="middle" x="1960.5" y="-1647.45" font-family="Times New Roman,serif" font-size="14.00">철혈의 새벽: 고려의 그림자 설계자</text>
<text xml:space="preserve" text-anchor="middle" x="1960.5" y="-1630.2" font-family="Times New Roman,serif" font-size="14.00">실습결과물/14/소설3권.md</text>
</g>
<!-- 실습결과물/14/30&#45;소설&#45;INDEX&#45;&gt;실습결과물/14/소설3권 -->
<g id="edge70" class="edge">
<title>실습결과물/14/30&#45;소설&#45;INDEX&#45;&gt;실습결과물/14/소설3권</title>
<path fill="none" stroke="black" d="M1581.28,-1482.13C1621.86,-1520.17 1705.75,-1596.56 1741.75,-1612.5 1766.45,-1623.44 1794.13,-1630.7 1821.26,-1635.48"/>
<polygon fill="black" stroke="black" points="1820.5,-1638.9 1830.94,-1637.07 1821.64,-1632 1820.5,-1638.9"/>
</g>
<!-- 실습결과물/14/소설4권 -->
<g id="node55" class="node">
<title>실습결과물/14/소설4권</title>
<path fill="none" stroke="black" d="M2076.12,-1603.75C2076.12,-1603.75 1844.88,-1603.75 1844.88,-1603.75 1838.88,-1603.75 1832.88,-1597.75 1832.88,-1591.75 1832.88,-1591.75 1832.88,-1573.25 1832.88,-1573.25 1832.88,-1567.25 1838.88,-1561.25 1844.88,-1561.25 1844.88,-1561.25 2076.12,-1561.25 2076.12,-1561.25 2082.12,-1561.25 2088.12,-1567.25 2088.12,-1573.25 2088.12,-1573.25 2088.12,-1591.75 2088.12,-1591.75 2088.12,-1597.75 2082.12,-1603.75 2076.12,-1603.75"/>
<text xml:space="preserve" text-anchor="middle" x="1960.5" y="-1586.45" font-family="Times New Roman,serif" font-size="14.00">철혈의 새벽: 고려의 그림자 설계자</text>
<text xml:space="preserve" text-anchor="middle" x="1960.5" y="-1569.2" font-family="Times New Roman,serif" font-size="14.00">실습결과물/14/소설4권.md</text>
</g>
<!-- 실습결과물/14/30&#45;소설&#45;INDEX&#45;&gt;실습결과물/14/소설4권 -->
<g id="edge71" class="edge">
<title>실습결과물/14/30&#45;소설&#45;INDEX&#45;&gt;실습결과물/14/소설4권</title>
<path fill="none" stroke="black" d="M1593.58,-1482.18C1629.46,-1503.31 1687.47,-1534.64 1741.75,-1551.5 1767.07,-1559.36 1794.67,-1565.24 1821.46,-1569.64"/>
<polygon fill="black" stroke="black" points="1820.56,-1573.04 1830.98,-1571.13 1821.65,-1566.12 1820.56,-1573.04"/>
</g>
<!-- 실습결과물/14/소설5권 -->
<g id="node56" class="node">
<title>실습결과물/14/소설5권</title>
<path fill="none" stroke="black" d="M2076.12,-1542.75C2076.12,-1542.75 1844.88,-1542.75 1844.88,-1542.75 1838.88,-1542.75 1832.88,-1536.75 1832.88,-1530.75 1832.88,-1530.75 1832.88,-1512.25 1832.88,-1512.25 1832.88,-1506.25 1838.88,-1500.25 1844.88,-1500.25 1844.88,-1500.25 2076.12,-1500.25 2076.12,-1500.25 2082.12,-1500.25 2088.12,-1506.25 2088.12,-1512.25 2088.12,-1512.25 2088.12,-1530.75 2088.12,-1530.75 2088.12,-1536.75 2082.12,-1542.75 2076.12,-1542.75"/>
<text xml:space="preserve" text-anchor="middle" x="1960.5" y="-1525.45" font-family="Times New Roman,serif" font-size="14.00">철혈의 새벽: 고려의 그림자 설계자</text>
<text xml:space="preserve" text-anchor="middle" x="1960.5" y="-1508.2" font-family="Times New Roman,serif" font-size="14.00">실습결과물/14/소설5권.md</text>
</g>
<!-- 실습결과물/14/30&#45;소설&#45;INDEX&#45;&gt;실습결과물/14/소설5권 -->
<g id="edge72" class="edge">
<title>실습결과물/14/30&#45;소설&#45;INDEX&#45;&gt;실습결과물/14/소설5권</title>
<path fill="none" stroke="black" d="M1674.28,-1479.83C1696.65,-1483.46 1719.92,-1487.16 1741.75,-1490.5 1767.43,-1494.43 1794.84,-1498.46 1821.24,-1502.26"/>
<polygon fill="black" stroke="black" points="1820.6,-1505.7 1830.99,-1503.66 1821.59,-1498.77 1820.6,-1505.7"/>
</g>
<!-- 실습결과물/14/소설_목차_5부작 -->
<g id="node57" class="node">
<title>실습결과물/14/소설_목차_5부작</title>
<path fill="none" stroke="black" d="M2101.62,-1481.75C2101.62,-1481.75 1819.38,-1481.75 1819.38,-1481.75 1813.38,-1481.75 1807.38,-1475.75 1807.38,-1469.75 1807.38,-1469.75 1807.38,-1451.25 1807.38,-1451.25 1807.38,-1445.25 1813.38,-1439.25 1819.38,-1439.25 1819.38,-1439.25 2101.62,-1439.25 2101.62,-1439.25 2107.62,-1439.25 2113.62,-1445.25 2113.62,-1451.25 2113.62,-1451.25 2113.62,-1469.75 2113.62,-1469.75 2113.62,-1475.75 2107.62,-1481.75 2101.62,-1481.75"/>
<text xml:space="preserve" text-anchor="middle" x="1960.5" y="-1464.45" font-family="Times New Roman,serif" font-size="14.00">철혈의 새벽: 고려의 그림자 설계자 (5부작)</text>
<text xml:space="preserve" text-anchor="middle" x="1960.5" y="-1447.2" font-family="Times New Roman,serif" font-size="14.00">실습결과물/14/소설_목차_5부작.md</text>
</g>
<!-- 실습결과물/14/30&#45;소설&#45;INDEX&#45;&gt;실습결과물/14/소설_목차_5부작 -->
<g id="edge66" class="edge">
<title>실습결과물/14/30&#45;소설&#45;INDEX&#45;&gt;실습결과물/14/소설_목차_5부작</title>
<path fill="none" stroke="black" d="M1674.49,-1460.5C1712.33,-1460.5 1755.1,-1460.5 1795.77,-1460.5"/>
<polygon fill="black" stroke="black" points="1795.67,-1464 1805.67,-1460.5 1795.67,-1457 1795.67,-1464"/>
</g>
<!-- 실습결과물/14/소설_연속작성_토큰로그 -->
<g id="node58" class="node">
<title>실습결과물/14/소설_연속작성_토큰로그</title>
<path fill="none" stroke="black" d="M2125.25,-1420.75C2125.25,-1420.75 1795.75,-1420.75 1795.75,-1420.75 1789.75,-1420.75 1783.75,-1414.75 1783.75,-1408.75 1783.75,-1408.75 1783.75,-1390.25 1783.75,-1390.25 1783.75,-1384.25 1789.75,-1378.25 1795.75,-1378.25 1795.75,-1378.25 2125.25,-1378.25 2125.25,-1378.25 2131.25,-1378.25 2137.25,-1384.25 2137.25,-1390.25 2137.25,-1390.25 2137.25,-1408.75 2137.25,-1408.75 2137.25,-1414.75 2131.25,-1420.75 2125.25,-1420.75"/>
<text xml:space="preserve" text-anchor="middle" x="1960.5" y="-1403.45" font-family="Times New Roman,serif" font-size="14.00">소설 5부작 작성 로그 (컨텍스트 압축 + 토큰 추정)</text>
<text xml:space="preserve" text-anchor="middle" x="1960.5" y="-1386.2" font-family="Times New Roman,serif" font-size="14.00">실습결과물/14/소설_연속작성_토큰로그.md</text>
</g>
<!-- 실습결과물/14/30&#45;소설&#45;INDEX&#45;&gt;실습결과물/14/소설_연속작성_토큰로그 -->
<g id="edge73" class="edge">
<title>실습결과물/14/30&#45;소설&#45;INDEX&#45;&gt;실습결과물/14/소설_연속작성_토큰로그</title>
<path fill="none" stroke="black" d="M1674.28,-1441.17C1696.65,-1437.54 1719.92,-1433.84 1741.75,-1430.5 1758.24,-1427.98 1775.44,-1425.41 1792.63,-1422.89"/>
<polygon fill="black" stroke="black" points="1793.03,-1426.37 1802.42,-1421.47 1792.02,-1419.45 1793.03,-1426.37"/>
</g>
<!-- 실습결과물/14/30&#45;소설&#45;INDEX&#45;&gt;실습결과물/14/시대상 과 역사적 사실 -->
<g id="edge67" class="edge">
<title>실습결과물/14/30&#45;소설&#45;INDEX&#45;&gt;실습결과물/14/시대상 과 역사적 사실</title>
<path fill="none" stroke="black" d="M1674.54,-1447.45C1686.26,-1442.11 1697.04,-1434.98 1705.75,-1425.5 1778.46,-1346.43 1665.49,-1262.15 1741.75,-1186.5 1742.49,-1185.76 1743.24,-1185.04 1744,-1184.33"/>
<polygon fill="black" stroke="black" points="1745.94,-1187.28 1751.3,-1178.14 1741.41,-1181.94 1745.94,-1187.28"/>
</g>
<!-- 실습결과물/14/수중드론_사업화_기획안&#45;&gt;실습결과물/13/수중드론_사업화_기획안 -->
<g id="edge81" class="edge">
<title>실습결과물/14/수중드론_사업화_기획안&#45;&gt;실습결과물/13/수중드론_사업화_기획안</title>
<path fill="none" stroke="black" d="M672.62,-1517.2C737.76,-1547.52 853.74,-1600.26 898.25,-1612.5 921.19,-1618.81 945.74,-1623.85 970.03,-1627.87"/>
<polygon fill="black" stroke="black" points="969.24,-1631.29 979.67,-1629.41 970.35,-1624.38 969.24,-1631.29"/>
</g>
<!-- 실습결과물/14/수중드론_사업화_기획안&#45;&gt;실습결과물/13/해양드론딥리서치결과 -->
<g id="edge80" class="edge">
<title>실습결과물/14/수중드론_사업화_기획안&#45;&gt;실습결과물/13/해양드론딥리서치결과</title>
<path fill="none" stroke="black" d="M723.34,-1517.24C775.07,-1528.41 839.94,-1541.68 898.25,-1551.5 917.28,-1554.7 937.23,-1557.77 957.12,-1560.64"/>
<polygon fill="black" stroke="black" points="956.59,-1564.1 966.99,-1562.05 957.58,-1557.17 956.59,-1564.1"/>
</g>
<!-- 실습결과물/14/수중드론_사업화_기획안&#45;&gt;실습결과물/14/00&#45;INDEX -->
<g id="edge75" class="edge">
<title>실습결과물/14/수중드론_사업화_기획안&#45;&gt;실습결과물/14/00&#45;INDEX</title>
<path fill="none" stroke="black" d="M780.03,-1484.93C859.08,-1479.48 953.63,-1472.97 1025.22,-1468.04"/>
<polygon fill="black" stroke="black" points="1025.26,-1471.55 1035,-1467.37 1024.78,-1464.56 1025.26,-1471.55"/>
</g>
<!-- 실습결과물/14/수중드론_사업화_기획안&#45;&gt;실습결과물/14/20&#45;수중드론&#45;INDEX -->
<g id="edge76" class="edge">
<title>실습결과물/14/수중드론_사업화_기획안&#45;&gt;실습결과물/14/20&#45;수중드론&#45;INDEX</title>
<path fill="none" stroke="black" d="M470.88,-1501.95C422.15,-1502.38 368.49,-1502.35 320.53,-1501.85"/>
<polygon fill="black" stroke="black" points="320.66,-1498.35 310.62,-1501.73 320.58,-1505.35 320.66,-1498.35"/>
</g>
<!-- 실습결과물/14/수중드론_사업화_기획안&#45;&gt;실습결과물/14/수중드론_사업화_1페이지_BLUF -->
<g id="edge79" class="edge">
<title>실습결과물/14/수중드론_사업화_기획안&#45;&gt;실습결과물/14/수중드론_사업화_1페이지_BLUF</title>
<path fill="none" stroke="black" d="M707.48,-1473.78C761.27,-1459.94 833.61,-1442.43 898.25,-1430.5 913.8,-1427.63 929.97,-1424.92 946.24,-1422.4"/>
<polygon fill="black" stroke="black" points="946.65,-1425.88 956.01,-1420.91 945.6,-1418.96 946.65,-1425.88"/>
</g>
<!-- 실습결과물/14/수중드론_사업화_기획안&#45;&gt;실습결과물/14/수중드론_사업화_상세기획안 -->
<g id="edge77" class="edge">
<title>실습결과물/14/수중드론_사업화_기획안&#45;&gt;실습결과물/14/수중드론_사업화_상세기획안</title>
<path fill="none" stroke="black" d="M663.34,-1473.99C714.32,-1445.27 810.1,-1395.06 898.25,-1369.5 916.2,-1364.29 935.18,-1359.96 954.26,-1356.35"/>
<polygon fill="black" stroke="black" points="954.79,-1359.81 964.01,-1354.58 953.54,-1352.92 954.79,-1359.81"/>
</g>
<!-- 실습결과물/14/수중드론_사업화_기획안&#45;&gt;실습결과물/14/수중드론_사업화_타당성 -->
<g id="edge78" class="edge">
<title>실습결과물/14/수중드론_사업화_기획안&#45;&gt;실습결과물/14/수중드론_사업화_타당성</title>
<path fill="none" stroke="black" d="M780.03,-1503.35C813.79,-1505.08 850.38,-1506.95 886.81,-1508.82"/>
<polygon fill="black" stroke="black" points="886.42,-1512.3 896.59,-1509.32 886.78,-1505.31 886.42,-1512.3"/>
</g>
<!-- 실습결과물/15/00&#45;INDEX -->
<g id="node68" class="node">
<title>실습결과물/15/00&#45;INDEX</title>
<path fill="none" stroke="black" d="M263.12,-80.75C263.12,-80.75 89.62,-80.75 89.62,-80.75 83.62,-80.75 77.62,-74.75 77.62,-68.75 77.62,-68.75 77.62,-50.25 77.62,-50.25 77.62,-44.25 83.62,-38.25 89.62,-38.25 89.62,-38.25 263.12,-38.25 263.12,-38.25 269.12,-38.25 275.12,-44.25 275.12,-50.25 275.12,-50.25 275.12,-68.75 275.12,-68.75 275.12,-74.75 269.12,-80.75 263.12,-80.75"/>
<text xml:space="preserve" text-anchor="middle" x="176.38" y="-63.45" font-family="Times New Roman,serif" font-size="14.00">실습결과물 15 인덱스</text>
<text xml:space="preserve" text-anchor="middle" x="176.38" y="-46.2" font-family="Times New Roman,serif" font-size="14.00">실습결과물/15/00&#45;INDEX.md</text>
</g>
<!-- 실습결과물/15/00&#45;INDEX&#45;&gt;AGENTS -->
<g id="edge83" class="edge">
<title>실습결과물/15/00&#45;INDEX&#45;&gt;AGENTS</title>
<path fill="none" stroke="black" d="M275.47,-76.36C311.03,-81.69 351.59,-86.88 388.75,-89.5 635.74,-106.94 929.87,-98.33 1062.99,-92.85"/>
<polygon fill="black" stroke="black" points="1062.86,-96.36 1072.7,-92.45 1062.56,-89.37 1062.86,-96.36"/>
</g>
<!-- 실습결과물/15/00&#45;INDEX&#45;&gt;llm_wiki/README -->
<g id="edge84" class="edge">
<title>실습결과물/15/00&#45;INDEX&#45;&gt;llm_wiki/README</title>
<path fill="none" stroke="black" d="M275.49,-42.89C311.05,-37.58 351.61,-32.35 388.75,-29.5 627.73,-11.18 911.01,-14.64 1049.67,-17.97"/>
<polygon fill="black" stroke="black" points="1049.42,-21.46 1059.51,-18.21 1049.6,-14.47 1049.42,-21.46"/>
</g>
<!-- 실습결과물/15/wikiLLM -->
<g id="node69" class="node">
<title>실습결과물/15/wikiLLM</title>
<path fill="none" stroke="black" d="M737,-80.75C737,-80.75 514,-80.75 514,-80.75 508,-80.75 502,-74.75 502,-68.75 502,-68.75 502,-50.25 502,-50.25 502,-44.25 508,-38.25 514,-38.25 514,-38.25 737,-38.25 737,-38.25 743,-38.25 749,-44.25 749,-50.25 749,-50.25 749,-68.75 749,-68.75 749,-74.75 743,-80.75 737,-80.75"/>
<text xml:space="preserve" text-anchor="middle" x="625.5" y="-63.45" font-family="Times New Roman,serif" font-size="14.00">wikillm 을 구현하기 위한 프롬프트</text>
<text xml:space="preserve" text-anchor="middle" x="625.5" y="-46.2" font-family="Times New Roman,serif" font-size="14.00">실습결과물/15/wikiLLM.md</text>
</g>
<!-- 실습결과물/15/00&#45;INDEX&#45;&gt;실습결과물/15/wikiLLM -->
<g id="edge82" class="edge">
<title>실습결과물/15/00&#45;INDEX&#45;&gt;실습결과물/15/wikiLLM</title>
<path fill="none" stroke="black" d="M275.5,-53.8C338.57,-52.61 421.33,-52.43 490.43,-53.26"/>
<polygon fill="black" stroke="black" points="490.28,-56.75 500.32,-53.38 490.37,-49.75 490.28,-56.75"/>
</g>
<!-- 실습결과물/15/wikiLLM&#45;&gt;AGENTS -->
<g id="edge86" class="edge">
<title>실습결과물/15/wikiLLM&#45;&gt;AGENTS</title>
<path fill="none" stroke="black" d="M749.21,-66.74C847.41,-72.54 981.72,-80.47 1063.13,-85.27"/>
<polygon fill="black" stroke="black" points="1062.56,-88.75 1072.75,-85.84 1062.97,-81.76 1062.56,-88.75"/>
</g>
<!-- 실습결과물/15/wikiLLM&#45;&gt;llm_wiki/README -->
<g id="edge87" class="edge">
<title>실습결과물/15/wikiLLM&#45;&gt;llm_wiki/README</title>
<path fill="none" stroke="black" d="M749.21,-50.08C842.22,-42.95 967.62,-33.32 1049.79,-27.02"/>
<polygon fill="black" stroke="black" points="1049.88,-30.52 1059.58,-26.27 1049.35,-23.54 1049.88,-30.52"/>
</g>
<!-- 실습결과물/15/wikiLLM&#45;&gt;실습결과물/15/00&#45;INDEX -->
<g id="edge85" class="edge">
<title>실습결과물/15/wikiLLM&#45;&gt;실습결과물/15/00&#45;INDEX</title>
<path fill="none" stroke="black" d="M501.84,-65.6C434.5,-66.53 351.71,-66.46 286.61,-65.39"/>
<polygon fill="black" stroke="black" points="287.07,-61.9 277.01,-65.23 286.95,-68.9 287.07,-61.9"/>
</g>
<!-- 실습결과물/15/로컬 whisper 모델 설치 프롬프트 -->
<g id="node70" class="node">
<title>실습결과물/15/로컬 whisper 모델 설치 프롬프트</title>
<path fill="none" stroke="black" d="M340.75,-1577.75C340.75,-1577.75 12,-1577.75 12,-1577.75 6,-1577.75 0,-1571.75 0,-1565.75 0,-1565.75 0,-1547.25 0,-1547.25 0,-1541.25 6,-1535.25 12,-1535.25 12,-1535.25 340.75,-1535.25 340.75,-1535.25 346.75,-1535.25 352.75,-1541.25 352.75,-1547.25 352.75,-1547.25 352.75,-1565.75 352.75,-1565.75 352.75,-1571.75 346.75,-1577.75 340.75,-1577.75"/>
<text xml:space="preserve" text-anchor="middle" x="176.38" y="-1560.45" font-family="Times New Roman,serif" font-size="14.00">whisper 모델 설치 프롬프트</text>
<text xml:space="preserve" text-anchor="middle" x="176.38" y="-1543.2" font-family="Times New Roman,serif" font-size="14.00">실습결과물/15/로컬 whisper 모델 설치 프롬프트.md</text>
</g>
</g>
</svg>
