<?xml version="1.0" encoding="UTF-8" standalone="no"?>
<!DOCTYPE svg PUBLIC "-//W3C//DTD SVG 1.1//EN"
 "http://www.w3.org/Graphics/SVG/1.1/DTD/svg11.dtd">
<!-- Generated by graphviz version 14.1.5 (20260411.2331)
 -->
<!-- Title: llm_wiki Pages: 1 -->
<svg width="2176pt" height="2039pt"
 viewBox="0.00 0.00 2176.00 2039.00" xmlns="http://www.w3.org/2000/svg" xmlns:xlink="http://www.w3.org/1999/xlink">
<g id="graph0" class="graph" transform="scale(1 1) rotate(0) translate(4 2034.75)">
<title>llm_wiki</title>
<polygon fill="white" stroke="none" points="-4,4 -4,-2034.75 2172,-2034.75 2172,4 -4,4"/>
<!-- AGENTS -->
<g id="node1" class="node">
<title>AGENTS</title>
<path fill="none" stroke="black" d="M1173.75,-110C1173.75,-110 1075.25,-110 1075.25,-110 1069.25,-110 1063.25,-104 1063.25,-98 1063.25,-98 1063.25,-81 1063.25,-81 1063.25,-75 1069.25,-69 1075.25,-69 1075.25,-69 1173.75,-69 1173.75,-69 1179.75,-69 1185.75,-75 1185.75,-81 1185.75,-81 1185.75,-98 1185.75,-98 1185.75,-104 1179.75,-110 1173.75,-110"/>
<text xml:space="preserve" text-anchor="middle" x="1124.5" y="-92.7" font-family="Times New Roman,serif" font-size="14.00">LLM Wiki Schema</text>
<text xml:space="preserve" text-anchor="middle" x="1124.5" y="-76.2" font-family="Times New Roman,serif" font-size="14.00">AGENTS.md</text>
</g>
<!-- llm_wiki/README -->
<g id="node2" class="node">
<title>llm_wiki/README</title>
<path fill="none" stroke="black" d="M1186.88,-41C1186.88,-41 1062.12,-41 1062.12,-41 1056.12,-41 1050.12,-35 1050.12,-29 1050.12,-29 1050.12,-12 1050.12,-12 1050.12,-6 1056.12,0 1062.12,0 1062.12,0 1186.88,0 1186.88,0 1192.88,0 1198.88,-6 1198.88,-12 1198.88,-12 1198.88,-29 1198.88,-29 1198.88,-35 1192.88,-41 1186.88,-41"/>
<text xml:space="preserve" text-anchor="middle" x="1124.5" y="-23.7" font-family="Times New Roman,serif" font-size="14.00">Local LLM Wiki</text>
<text xml:space="preserve" text-anchor="middle" x="1124.5" y="-7.2" font-family="Times New Roman,serif" font-size="14.00">llm_wiki/README.md</text>
</g>
<!-- notion_app_date_filter_fallback_skill/SKILL -->
<g id="node3" class="node">
<title>notion_app_date_filter_fallback_skill/SKILL</title>
<path fill="none" stroke="black" d="M300.25,-140C300.25,-140 41.25,-140 41.25,-140 35.25,-140 29.25,-134 29.25,-128 29.25,-128 29.25,-111 29.25,-111 29.25,-105 35.25,-99 41.25,-99 41.25,-99 300.25,-99 300.25,-99 306.25,-99 312.25,-105 312.25,-111 312.25,-111 312.25,-128 312.25,-128 312.25,-134 306.25,-140 300.25,-140"/>
<text xml:space="preserve" text-anchor="middle" x="170.75" y="-122.7" font-family="Times New Roman,serif" font-size="14.00">Notion App Date Filter Fallback Skill</text>
<text xml:space="preserve" text-anchor="middle" x="170.75" y="-106.2" font-family="Times New Roman,serif" font-size="14.00">notion_app_date_filter_fallback_skill/SKILL.md</text>
</g>
<!-- orange_example_10/bodyfat_analysis_report -->
<g id="node4" class="node">
<title>orange_example_10/bodyfat_analysis_report</title>
<path fill="none" stroke="black" d="M329.5,-199.38C329.5,-199.38 12,-199.38 12,-199.38 6,-199.38 0,-193.38 0,-187.38 0,-187.38 0,-169.62 0,-169.62 0,-163.62 6,-157.62 12,-157.62 12,-157.62 329.5,-157.62 329.5,-157.62 335.5,-157.62 341.5,-163.62 341.5,-169.62 341.5,-169.62 341.5,-187.38 341.5,-187.38 341.5,-193.38 335.5,-199.38 329.5,-199.38"/>
<text xml:space="preserve" text-anchor="middle" x="170.75" y="-182.07" font-family="Times New Roman,serif" font-size="14.00">Body Fat Brozek 시각 분석 보고서 (미리보기 중심)</text>
<text xml:space="preserve" text-anchor="middle" x="170.75" y="-164.82" font-family="Times New Roman,serif" font-size="14.00">orange_example_10/bodyfat_analysis_report.md</text>
</g>
<!-- orange_example_10/titanic_adaboost_report -->
<g id="node5" class="node">
<title>orange_example_10/titanic_adaboost_report</title>
<path fill="none" stroke="black" d="M298.38,-259.38C298.38,-259.38 43.12,-259.38 43.12,-259.38 37.12,-259.38 31.12,-253.38 31.12,-247.38 31.12,-247.38 31.12,-229.62 31.12,-229.62 31.12,-223.62 37.12,-217.62 43.12,-217.62 43.12,-217.62 298.38,-217.62 298.38,-217.62 304.38,-217.62 310.38,-223.62 310.38,-229.62 310.38,-229.62 310.38,-247.38 310.38,-247.38 310.38,-253.38 304.38,-259.38 298.38,-259.38"/>
<text xml:space="preserve" text-anchor="middle" x="170.75" y="-242.07" font-family="Times New Roman,serif" font-size="14.00">Titanic AdaBoost 분석 보고서</text>
<text xml:space="preserve" text-anchor="middle" x="170.75" y="-224.82" font-family="Times New Roman,serif" font-size="14.00">orange_example_10/titanic_adaboost_report.md</text>
</g>
<!-- orange_example_10/titanic_survival_report -->
<g id="node6" class="node">
<title>orange_example_10/titanic_survival_report</title>
<path fill="none" stroke="black" d="M296.12,-319.38C296.12,-319.38 45.38,-319.38 45.38,-319.38 39.38,-319.38 33.38,-313.38 33.38,-307.38 33.38,-307.38 33.38,-289.62 33.38,-289.62 33.38,-283.62 39.38,-277.62 45.38,-277.62 45.38,-277.62 296.12,-277.62 296.12,-277.62 302.12,-277.62 308.12,-283.62 308.12,-289.62 308.12,-289.62 308.12,-307.38 308.12,-307.38 308.12,-313.38 302.12,-319.38 296.12,-319.38"/>
<text xml:space="preserve" text-anchor="middle" x="170.75" y="-302.07" font-family="Times New Roman,serif" font-size="14.00">Titanic 생존 분석 보고서</text>
<text xml:space="preserve" text-anchor="middle" x="170.75" y="-284.82" font-family="Times New Roman,serif" font-size="14.00">orange_example_10/titanic_survival_report.md</text>
</g>
<!-- README -->
<g id="node7" class="node">
<title>README</title>
<path fill="none" stroke="black" d="M212.5,-378C212.5,-378 129,-378 129,-378 123,-378 117,-372 117,-366 117,-366 117,-349 117,-349 117,-343 123,-337 129,-337 129,-337 212.5,-337 212.5,-337 218.5,-337 224.5,-343 224.5,-349 224.5,-349 224.5,-366 224.5,-366 224.5,-372 218.5,-378 212.5,-378"/>
<text xml:space="preserve" text-anchor="middle" x="170.75" y="-360.7" font-family="Times New Roman,serif" font-size="14.00">AxDxConsultant</text>
<text xml:space="preserve" text-anchor="middle" x="170.75" y="-344.2" font-family="Times New Roman,serif" font-size="14.00">README.md</text>
</g>
<!-- 실습결과물/06/00&#45;INDEX -->
<g id="node8" class="node">
<title>실습결과물/06/00&#45;INDEX</title>
<path fill="none" stroke="black" d="M257.5,-438.75C257.5,-438.75 84,-438.75 84,-438.75 78,-438.75 72,-432.75 72,-426.75 72,-426.75 72,-408.25 72,-408.25 72,-402.25 78,-396.25 84,-396.25 84,-396.25 257.5,-396.25 257.5,-396.25 263.5,-396.25 269.5,-402.25 269.5,-408.25 269.5,-408.25 269.5,-426.75 269.5,-426.75 269.5,-432.75 263.5,-438.75 257.5,-438.75"/>
<text xml:space="preserve" text-anchor="middle" x="170.75" y="-421.45" font-family="Times New Roman,serif" font-size="14.00">실습결과물 06 인덱스</text>
<text xml:space="preserve" text-anchor="middle" x="170.75" y="-404.2" font-family="Times New Roman,serif" font-size="14.00">실습결과물/06/00&#45;INDEX.md</text>
</g>
<!-- 실습결과물/06/deep&#45;research&#45;report -->
<g id="node9" class="node">
<title>실습결과물/06/deep&#45;research&#45;report</title>
<path fill="none" stroke="black" d="M780.12,-529.75C780.12,-529.75 448.38,-529.75 448.38,-529.75 442.38,-529.75 436.38,-523.75 436.38,-517.75 436.38,-517.75 436.38,-499.25 436.38,-499.25 436.38,-493.25 442.38,-487.25 448.38,-487.25 448.38,-487.25 780.12,-487.25 780.12,-487.25 786.12,-487.25 792.12,-493.25 792.12,-499.25 792.12,-499.25 792.12,-517.75 792.12,-517.75 792.12,-523.75 786.12,-529.75 780.12,-529.75"/>
<text xml:space="preserve" text-anchor="middle" x="614.25" y="-512.45" font-family="Times New Roman,serif" font-size="14.00">PaperclipAI 교육 커리큘럼 및 강의자용 운영 패키지</text>
<text xml:space="preserve" text-anchor="middle" x="614.25" y="-495.2" font-family="Times New Roman,serif" font-size="14.00">실습결과물/06/deep&#45;research&#45;report.md</text>
</g>
<!-- 실습결과물/06/00&#45;INDEX&#45;&gt;실습결과물/06/deep&#45;research&#45;report -->
<g id="edge1" class="edge">
<title>실습결과물/06/00&#45;INDEX&#45;&gt;실습결과물/06/deep&#45;research&#45;report</title>
<path fill="none" stroke="black" d="M236.43,-439.13C276.64,-451.88 329.62,-467.43 377.5,-477.5 392.84,-480.73 408.83,-483.68 424.92,-486.37"/>
<polygon fill="black" stroke="black" points="424.14,-489.78 434.57,-487.94 425.27,-482.88 424.14,-489.78"/>
</g>
<!-- 실습결과물/06/mermaidTest -->
<g id="node10" class="node">
<title>실습결과물/06/mermaidTest</title>
<path fill="none" stroke="black" d="M707,-468.75C707,-468.75 521.5,-468.75 521.5,-468.75 515.5,-468.75 509.5,-462.75 509.5,-456.75 509.5,-456.75 509.5,-438.25 509.5,-438.25 509.5,-432.25 515.5,-426.25 521.5,-426.25 521.5,-426.25 707,-426.25 707,-426.25 713,-426.25 719,-432.25 719,-438.25 719,-438.25 719,-456.75 719,-456.75 719,-462.75 713,-468.75 707,-468.75"/>
<text xml:space="preserve" text-anchor="middle" x="614.25" y="-451.45" font-family="Times New Roman,serif" font-size="14.00">머메이드 테스트</text>
<text xml:space="preserve" text-anchor="middle" x="614.25" y="-434.2" font-family="Times New Roman,serif" font-size="14.00">실습결과물/06/mermaidTest.md</text>
</g>
<!-- 실습결과물/06/00&#45;INDEX&#45;&gt;실습결과물/06/mermaidTest -->
<g id="edge4" class="edge">
<title>실습결과물/06/00&#45;INDEX&#45;&gt;실습결과물/06/mermaidTest</title>
<path fill="none" stroke="black" d="M269.73,-424.16C337.13,-428.74 426.92,-434.84 497.79,-439.65"/>
<polygon fill="black" stroke="black" points="497.28,-443.13 507.49,-440.31 497.75,-436.14 497.28,-443.13"/>
</g>
<!-- 실습결과물/06/paperclipai교육요약 -->
<g id="node11" class="node">
<title>실습결과물/06/paperclipai교육요약</title>
<path fill="none" stroke="black" d="M732.5,-407.75C732.5,-407.75 496,-407.75 496,-407.75 490,-407.75 484,-401.75 484,-395.75 484,-395.75 484,-377.25 484,-377.25 484,-371.25 490,-365.25 496,-365.25 496,-365.25 732.5,-365.25 732.5,-365.25 738.5,-365.25 744.5,-371.25 744.5,-377.25 744.5,-377.25 744.5,-395.75 744.5,-395.75 744.5,-401.75 738.5,-407.75 732.5,-407.75"/>
<text xml:space="preserve" text-anchor="middle" x="614.25" y="-390.45" font-family="Times New Roman,serif" font-size="14.00">2. 교육 요약본 (1페이지)</text>
<text xml:space="preserve" text-anchor="middle" x="614.25" y="-373.2" font-family="Times New Roman,serif" font-size="14.00">실습결과물/06/paperclipai교육요약.md</text>
</g>
<!-- 실습결과물/06/00&#45;INDEX&#45;&gt;실습결과물/06/paperclipai교육요약 -->
<g id="edge2" class="edge">
<title>실습결과물/06/00&#45;INDEX&#45;&gt;실습결과물/06/paperclipai교육요약</title>
<path fill="none" stroke="black" d="M269.73,-410.62C329.29,-406.44 406.33,-401.03 472.35,-396.39"/>
<polygon fill="black" stroke="black" points="472.45,-399.89 482.18,-395.7 471.96,-392.91 472.45,-399.89"/>
</g>
<!-- 실습결과물/06/paperclipai사업계획서 -->
<g id="node12" class="node">
<title>실습결과물/06/paperclipai사업계획서</title>
<path fill="none" stroke="black" d="M740.38,-346.75C740.38,-346.75 488.12,-346.75 488.12,-346.75 482.12,-346.75 476.12,-340.75 476.12,-334.75 476.12,-334.75 476.12,-316.25 476.12,-316.25 476.12,-310.25 482.12,-304.25 488.12,-304.25 488.12,-304.25 740.38,-304.25 740.38,-304.25 746.38,-304.25 752.38,-310.25 752.38,-316.25 752.38,-316.25 752.38,-334.75 752.38,-334.75 752.38,-340.75 746.38,-346.75 740.38,-346.75"/>
<text xml:space="preserve" text-anchor="middle" x="614.25" y="-329.45" font-family="Times New Roman,serif" font-size="14.00">1. 사업계획서 (요약형)</text>
<text xml:space="preserve" text-anchor="middle" x="614.25" y="-312.2" font-family="Times New Roman,serif" font-size="14.00">실습결과물/06/paperclipai사업계획서.md</text>
</g>
<!-- 실습결과물/06/00&#45;INDEX&#45;&gt;실습결과물/06/paperclipai사업계획서 -->
<g id="edge3" class="edge">
<title>실습결과물/06/00&#45;INDEX&#45;&gt;실습결과물/06/paperclipai사업계획서</title>
<path fill="none" stroke="black" d="M269.57,-408.43C293.84,-403.83 319.25,-396.91 341.5,-386.5 360.36,-377.67 358.42,-364.85 377.5,-356.5 404.49,-344.68 434.76,-337.04 464.38,-332.17"/>
<polygon fill="black" stroke="black" points="464.84,-335.64 474.2,-330.67 463.78,-328.72 464.84,-335.64"/>
</g>
<!-- 실습결과물/07/00&#45;INDEX -->
<g id="node13" class="node">
<title>실습결과물/07/00&#45;INDEX</title>
<path fill="none" stroke="black" d="M257.5,-665.75C257.5,-665.75 84,-665.75 84,-665.75 78,-665.75 72,-659.75 72,-653.75 72,-653.75 72,-635.25 72,-635.25 72,-629.25 78,-623.25 84,-623.25 84,-623.25 257.5,-623.25 257.5,-623.25 263.5,-623.25 269.5,-629.25 269.5,-635.25 269.5,-635.25 269.5,-653.75 269.5,-653.75 269.5,-659.75 263.5,-665.75 257.5,-665.75"/>
<text xml:space="preserve" text-anchor="middle" x="170.75" y="-648.45" font-family="Times New Roman,serif" font-size="14.00">실습결과물 07 인덱스</text>
<text xml:space="preserve" text-anchor="middle" x="170.75" y="-631.2" font-family="Times New Roman,serif" font-size="14.00">실습결과물/07/00&#45;INDEX.md</text>
</g>
<!-- 실습결과물/07/01&#45;업무&#45;흐름&#45;구조화 -->
<g id="node14" class="node">
<title>실습결과물/07/01&#45;업무&#45;흐름&#45;구조화</title>
<path fill="none" stroke="black" d="M1249.88,-786.75C1249.88,-786.75 999.12,-786.75 999.12,-786.75 993.12,-786.75 987.12,-780.75 987.12,-774.75 987.12,-774.75 987.12,-756.25 987.12,-756.25 987.12,-750.25 993.12,-744.25 999.12,-744.25 999.12,-744.25 1249.88,-744.25 1249.88,-744.25 1255.88,-744.25 1261.88,-750.25 1261.88,-756.25 1261.88,-756.25 1261.88,-774.75 1261.88,-774.75 1261.88,-780.75 1255.88,-786.75 1249.88,-786.75"/>
<text xml:space="preserve" text-anchor="middle" x="1124.5" y="-769.45" font-family="Times New Roman,serif" font-size="14.00">1. 업무 흐름 구조화</text>
<text xml:space="preserve" text-anchor="middle" x="1124.5" y="-752.2" font-family="Times New Roman,serif" font-size="14.00">실습결과물/07/01&#45;업무&#45;흐름&#45;구조화.md</text>
</g>
<!-- 실습결과물/07/00&#45;INDEX&#45;&gt;실습결과물/07/01&#45;업무&#45;흐름&#45;구조화 -->
<g id="edge5" class="edge">
<title>실습결과물/07/00&#45;INDEX&#45;&gt;실습결과물/07/01&#45;업무&#45;흐름&#45;구조화</title>
<path fill="none" stroke="black" d="M199.72,-666.25C237.55,-694.16 308.27,-741.17 377.5,-759.5 579.35,-812.95 822.82,-801.46 975.44,-785.62"/>
<polygon fill="black" stroke="black" points="975.65,-789.12 985.22,-784.59 974.91,-782.16 975.65,-789.12"/>
</g>
<!-- 실습결과물/07/02&#45;업무&#45;흐름&#45;mermaid -->
<g id="node15" class="node">
<title>실습결과물/07/02&#45;업무&#45;흐름&#45;mermaid</title>
<path fill="none" stroke="black" d="M1251,-725.75C1251,-725.75 998,-725.75 998,-725.75 992,-725.75 986,-719.75 986,-713.75 986,-713.75 986,-695.25 986,-695.25 986,-689.25 992,-683.25 998,-683.25 998,-683.25 1251,-683.25 1251,-683.25 1257,-683.25 1263,-689.25 1263,-695.25 1263,-695.25 1263,-713.75 1263,-713.75 1263,-719.75 1257,-725.75 1251,-725.75"/>
<text xml:space="preserve" text-anchor="middle" x="1124.5" y="-708.45" font-family="Times New Roman,serif" font-size="14.00">업무 흐름 (Mermaid)</text>
<text xml:space="preserve" text-anchor="middle" x="1124.5" y="-691.2" font-family="Times New Roman,serif" font-size="14.00">실습결과물/07/02&#45;업무&#45;흐름&#45;mermaid.md</text>
</g>
<!-- 실습결과물/07/00&#45;INDEX&#45;&gt;실습결과물/07/02&#45;업무&#45;흐름&#45;mermaid -->
<g id="edge6" class="edge">
<title>실습결과물/07/00&#45;INDEX&#45;&gt;실습결과물/07/02&#45;업무&#45;흐름&#45;mermaid</title>
<path fill="none" stroke="black" d="M208.49,-666.15C248.48,-688.36 315.1,-721.45 377.5,-734.5 583.49,-777.58 640.87,-746.03 851,-734.5 891.18,-732.29 934.55,-728.27 974.61,-723.88"/>
<polygon fill="black" stroke="black" points="974.76,-727.38 984.31,-722.8 973.98,-720.42 974.76,-727.38"/>
</g>
<!-- 실습결과물/07/03&#45;업무&#45;비효율&#45;수치화&#45;템플릿 -->
<g id="node16" class="node">
<title>실습결과물/07/03&#45;업무&#45;비효율&#45;수치화&#45;템플릿</title>
<path fill="none" stroke="black" d="M1283.62,-664.75C1283.62,-664.75 965.38,-664.75 965.38,-664.75 959.38,-664.75 953.38,-658.75 953.38,-652.75 953.38,-652.75 953.38,-634.25 953.38,-634.25 953.38,-628.25 959.38,-622.25 965.38,-622.25 965.38,-622.25 1283.62,-622.25 1283.62,-622.25 1289.62,-622.25 1295.62,-628.25 1295.62,-634.25 1295.62,-634.25 1295.62,-652.75 1295.62,-652.75 1295.62,-658.75 1289.62,-664.75 1283.62,-664.75"/>
<text xml:space="preserve" text-anchor="middle" x="1124.5" y="-647.45" font-family="Times New Roman,serif" font-size="14.00">나의 업무 비효율 수치화 템플릿 작성</text>
<text xml:space="preserve" text-anchor="middle" x="1124.5" y="-630.2" font-family="Times New Roman,serif" font-size="14.00">실습결과물/07/03&#45;업무&#45;비효율&#45;수치화&#45;템플릿.md</text>
</g>
<!-- 실습결과물/07/00&#45;INDEX&#45;&gt;실습결과물/07/03&#45;업무&#45;비효율&#45;수치화&#45;템플릿 -->
<g id="edge7" class="edge">
<title>실습결과물/07/00&#45;INDEX&#45;&gt;실습결과물/07/03&#45;업무&#45;비효율&#45;수치화&#45;템플릿</title>
<path fill="none" stroke="black" d="M269.81,-627.25C303.8,-622.05 342.22,-617.06 377.5,-614.5 587.39,-599.28 640.85,-603.35 851,-614.5 880.41,-616.06 911.53,-618.56 941.81,-621.46"/>
<polygon fill="black" stroke="black" points="941.12,-624.91 951.41,-622.39 941.8,-617.94 941.12,-624.91"/>
</g>
<!-- 실습결과물/07/04&#45;as&#45;is&#45;프로세스&#45;스케치 -->
<g id="node17" class="node">
<title>실습결과물/07/04&#45;as&#45;is&#45;프로세스&#45;스케치</title>
<path fill="none" stroke="black" d="M1262.25,-603.75C1262.25,-603.75 986.75,-603.75 986.75,-603.75 980.75,-603.75 974.75,-597.75 974.75,-591.75 974.75,-591.75 974.75,-573.25 974.75,-573.25 974.75,-567.25 980.75,-561.25 986.75,-561.25 986.75,-561.25 1262.25,-561.25 1262.25,-561.25 1268.25,-561.25 1274.25,-567.25 1274.25,-573.25 1274.25,-573.25 1274.25,-591.75 1274.25,-591.75 1274.25,-597.75 1268.25,-603.75 1262.25,-603.75"/>
<text xml:space="preserve" text-anchor="middle" x="1124.5" y="-586.45" font-family="Times New Roman,serif" font-size="14.00">AS&#45;IS 프로세스 스케치</text>
<text xml:space="preserve" text-anchor="middle" x="1124.5" y="-569.2" font-family="Times New Roman,serif" font-size="14.00">실습결과물/07/04&#45;as&#45;is&#45;프로세스&#45;스케치.md</text>
</g>
<!-- 실습결과물/07/00&#45;INDEX&#45;&gt;실습결과물/07/04&#45;as&#45;is&#45;프로세스&#45;스케치 -->
<g id="edge8" class="edge">
<title>실습결과물/07/00&#45;INDEX&#45;&gt;실습결과물/07/04&#45;as&#45;is&#45;프로세스&#45;스케치</title>
<path fill="none" stroke="black" d="M255.75,-622.83C292.81,-614.23 337.05,-605.27 377.5,-600.5 578.33,-576.81 811.6,-575.32 963.09,-577.76"/>
<polygon fill="black" stroke="black" points="962.73,-581.26 972.79,-577.93 962.85,-574.26 962.73,-581.26"/>
</g>
<!-- 실습결과물/07/업무분석보고서 -->
<g id="node19" class="node">
<title>실습결과물/07/업무분석보고서</title>
<path fill="none" stroke="black" d="M726.12,-665C726.12,-665 502.38,-665 502.38,-665 496.38,-665 490.38,-659 490.38,-653 490.38,-653 490.38,-636 490.38,-636 490.38,-630 496.38,-624 502.38,-624 502.38,-624 726.12,-624 726.12,-624 732.12,-624 738.12,-630 738.12,-636 738.12,-636 738.12,-653 738.12,-653 738.12,-659 732.12,-665 726.12,-665"/>
<text xml:space="preserve" text-anchor="middle" x="614.25" y="-647.7" font-family="Times New Roman,serif" font-size="14.00">업무분석보고서</text>
<text xml:space="preserve" text-anchor="middle" x="614.25" y="-631.95" font-family="Times New Roman,serif" font-size="14.00">실습결과물/07/업무분석보고서.md</text>
</g>
<!-- 실습결과물/07/00&#45;INDEX&#45;&gt;실습결과물/07/업무분석보고서 -->
<g id="edge9" class="edge">
<title>실습결과물/07/00&#45;INDEX&#45;&gt;실습결과물/07/업무분석보고서</title>
<path fill="none" stroke="black" d="M269.73,-638.78C331.34,-637.62 411.65,-637.44 479.12,-638.23"/>
<polygon fill="black" stroke="black" points="478.71,-641.73 488.75,-638.36 478.8,-634.73 478.71,-641.73"/>
</g>
<!-- 실습결과물/07/5가지단계로 나누기 -->
<g id="node18" class="node">
<title>실습결과물/07/5가지단계로 나누기</title>
<path fill="none" stroke="black" d="M739.25,-725.75C739.25,-725.75 489.25,-725.75 489.25,-725.75 483.25,-725.75 477.25,-719.75 477.25,-713.75 477.25,-713.75 477.25,-695.25 477.25,-695.25 477.25,-689.25 483.25,-683.25 489.25,-683.25 489.25,-683.25 739.25,-683.25 739.25,-683.25 745.25,-683.25 751.25,-689.25 751.25,-695.25 751.25,-695.25 751.25,-713.75 751.25,-713.75 751.25,-719.75 745.25,-725.75 739.25,-725.75"/>
<text xml:space="preserve" text-anchor="middle" x="614.25" y="-708.45" font-family="Times New Roman,serif" font-size="14.00">나의 어제 하루 업무 5단계 쪼개기</text>
<text xml:space="preserve" text-anchor="middle" x="614.25" y="-691.2" font-family="Times New Roman,serif" font-size="14.00">실습결과물/07/5가지단계로 나누기.md</text>
</g>
<!-- 실습결과물/07/5가지단계로 나누기&#45;&gt;실습결과물/07/01&#45;업무&#45;흐름&#45;구조화 -->
<g id="edge10" class="edge">
<title>실습결과물/07/5가지단계로 나누기&#45;&gt;실습결과물/07/01&#45;업무&#45;흐름&#45;구조화</title>
<path fill="none" stroke="black" d="M751.45,-720.85C820.67,-729.15 904.89,-739.26 975.68,-747.76"/>
<polygon fill="black" stroke="black" points="975.07,-751.21 985.42,-748.93 975.91,-744.26 975.07,-751.21"/>
</g>
<!-- 실습결과물/07/5가지단계로 나누기&#45;&gt;실습결과물/07/02&#45;업무&#45;흐름&#45;mermaid -->
<g id="edge11" class="edge">
<title>실습결과물/07/5가지단계로 나누기&#45;&gt;실습결과물/07/02&#45;업무&#45;흐름&#45;mermaid</title>
<path fill="none" stroke="black" d="M751.45,-704.5C820.25,-704.5 903.87,-704.5 974.39,-704.5"/>
<polygon fill="black" stroke="black" points="974.08,-708 984.08,-704.5 974.08,-701 974.08,-708"/>
</g>
<!-- 실습결과물/07/5가지단계로 나누기&#45;&gt;실습결과물/07/03&#45;업무&#45;비효율&#45;수치화&#45;템플릿 -->
<g id="edge12" class="edge">
<title>실습결과물/07/5가지단계로 나누기&#45;&gt;실습결과물/07/03&#45;업무&#45;비효율&#45;수치화&#45;템플릿</title>
<path fill="none" stroke="black" d="M751.45,-688.15C809.98,-681.13 879.23,-672.82 942.02,-665.28"/>
<polygon fill="black" stroke="black" points="942.25,-668.78 951.76,-664.11 941.41,-661.83 942.25,-668.78"/>
</g>
<!-- 실습결과물/07/5가지단계로 나누기&#45;&gt;실습결과물/07/04&#45;as&#45;is&#45;프로세스&#45;스케치 -->
<g id="edge13" class="edge">
<title>실습결과물/07/5가지단계로 나누기&#45;&gt;실습결과물/07/04&#45;as&#45;is&#45;프로세스&#45;스케치</title>
<path fill="none" stroke="black" d="M751.69,-707.95C786.3,-703.45 821.88,-693.67 851,-674.5 877.3,-657.19 860.74,-630.86 887,-613.5 909.7,-598.5 936.32,-589.16 963.36,-583.56"/>
<polygon fill="black" stroke="black" points="963.88,-587.02 973.06,-581.73 962.59,-580.14 963.88,-587.02"/>
</g>
<!-- 실습결과물/07/업무분석보고서&#45;&gt;실습결과물/07/00&#45;INDEX -->
<g id="edge14" class="edge">
<title>실습결과물/07/업무분석보고서&#45;&gt;실습결과물/07/00&#45;INDEX</title>
<path fill="none" stroke="black" d="M490.27,-650.62C424.59,-651.52 344.44,-651.45 280.98,-650.42"/>
<polygon fill="black" stroke="black" points="281.31,-646.92 271.25,-650.25 281.18,-653.92 281.31,-646.92"/>
</g>
<!-- 실습결과물/07/업무분석보고서&#45;&gt;실습결과물/07/01&#45;업무&#45;흐름&#45;구조화 -->
<g id="edge15" class="edge">
<title>실습결과물/07/업무분석보고서&#45;&gt;실습결과물/07/01&#45;업무&#45;흐름&#45;구조화</title>
<path fill="none" stroke="black" d="M738.45,-639.71C777.04,-643.36 818.09,-653.01 851,-674.5 877.04,-691.5 860.99,-717.45 887,-734.5 913.18,-751.66 944.51,-761.39 975.68,-766.58"/>
<polygon fill="black" stroke="black" points="974.78,-769.99 985.19,-768.01 975.82,-763.07 974.78,-769.99"/>
</g>
<!-- 실습결과물/07/업무분석보고서&#45;&gt;실습결과물/07/02&#45;업무&#45;흐름&#45;mermaid -->
<g id="edge16" class="edge">
<title>실습결과물/07/업무분석보고서&#45;&gt;실습결과물/07/02&#45;업무&#45;흐름&#45;mermaid</title>
<path fill="none" stroke="black" d="M738.61,-659.06C809.59,-667.44 899.29,-678.03 974.23,-686.88"/>
<polygon fill="black" stroke="black" points="973.8,-690.35 984.14,-688.05 974.62,-683.4 973.8,-690.35"/>
</g>
<!-- 실습결과물/07/업무분석보고서&#45;&gt;실습결과물/07/03&#45;업무&#45;비효율&#45;수치화&#45;템플릿 -->
<g id="edge17" class="edge">
<title>실습결과물/07/업무분석보고서&#45;&gt;실습결과물/07/03&#45;업무&#45;비효율&#45;수치화&#45;템플릿</title>
<path fill="none" stroke="black" d="M738.61,-644.26C799.7,-644.14 874.65,-643.99 942.12,-643.86"/>
<polygon fill="black" stroke="black" points="941.81,-647.36 951.81,-643.84 941.8,-640.36 941.81,-647.36"/>
</g>
<!-- 실습결과물/07/업무분석보고서&#45;&gt;실습결과물/07/04&#45;as&#45;is&#45;프로세스&#45;스케치 -->
<g id="edge18" class="edge">
<title>실습결과물/07/업무분석보고서&#45;&gt;실습결과물/07/04&#45;as&#45;is&#45;프로세스&#45;스케치</title>
<path fill="none" stroke="black" d="M738.61,-629.45C806.24,-621.2 890.85,-610.88 963.51,-602.02"/>
<polygon fill="black" stroke="black" points="963.6,-605.53 973.1,-600.85 962.75,-598.58 963.6,-605.53"/>
</g>
<!-- 실습결과물/08/00&#45;INDEX -->
<g id="node20" class="node">
<title>실습결과물/08/00&#45;INDEX</title>
<path fill="none" stroke="black" d="M257.5,-963.75C257.5,-963.75 84,-963.75 84,-963.75 78,-963.75 72,-957.75 72,-951.75 72,-951.75 72,-933.25 72,-933.25 72,-927.25 78,-921.25 84,-921.25 84,-921.25 257.5,-921.25 257.5,-921.25 263.5,-921.25 269.5,-927.25 269.5,-933.25 269.5,-933.25 269.5,-951.75 269.5,-951.75 269.5,-957.75 263.5,-963.75 257.5,-963.75"/>
<text xml:space="preserve" text-anchor="middle" x="170.75" y="-946.45" font-family="Times New Roman,serif" font-size="14.00">실습결과물 08 인덱스</text>
<text xml:space="preserve" text-anchor="middle" x="170.75" y="-929.2" font-family="Times New Roman,serif" font-size="14.00">실습결과물/08/00&#45;INDEX.md</text>
</g>
<!-- 실습결과물/08/01&#45;핵심&#45;업무&#45;리스트업&#45;및&#45;명세서&#45;프로세스 -->
<g id="node21" class="node">
<title>실습결과물/08/01&#45;핵심&#45;업무&#45;리스트업&#45;및&#45;명세서&#45;프로세스</title>
<path fill="none" stroke="black" d="M1327.5,-1091.75C1327.5,-1091.75 921.5,-1091.75 921.5,-1091.75 915.5,-1091.75 909.5,-1085.75 909.5,-1079.75 909.5,-1079.75 909.5,-1061.25 909.5,-1061.25 909.5,-1055.25 915.5,-1049.25 921.5,-1049.25 921.5,-1049.25 1327.5,-1049.25 1327.5,-1049.25 1333.5,-1049.25 1339.5,-1055.25 1339.5,-1061.25 1339.5,-1061.25 1339.5,-1079.75 1339.5,-1079.75 1339.5,-1085.75 1333.5,-1091.75 1327.5,-1091.75"/>
<text xml:space="preserve" text-anchor="middle" x="1124.5" y="-1074.45" font-family="Times New Roman,serif" font-size="14.00">나의 핵심 업무 리스트업</text>
<text xml:space="preserve" text-anchor="middle" x="1124.5" y="-1057.2" font-family="Times New Roman,serif" font-size="14.00">실습결과물/08/01&#45;핵심&#45;업무&#45;리스트업&#45;및&#45;명세서&#45;프로세스.md</text>
</g>
<!-- 실습결과물/08/00&#45;INDEX&#45;&gt;실습결과물/08/01&#45;핵심&#45;업무&#45;리스트업&#45;및&#45;명세서&#45;프로세스 -->
<g id="edge20" class="edge">
<title>실습결과물/08/00&#45;INDEX&#45;&gt;실습결과물/08/01&#45;핵심&#45;업무&#45;리스트업&#45;및&#45;명세서&#45;프로세스</title>
<path fill="none" stroke="black" d="M215.87,-964.23C256.71,-983.23 319.68,-1009.72 377.5,-1022.5 549.5,-1060.52 748.81,-1071.72 898.13,-1073.85"/>
<polygon fill="black" stroke="black" points="897.69,-1077.34 907.73,-1073.97 897.78,-1070.34 897.69,-1077.34"/>
</g>
<!-- 실습결과물/08/02&#45;AI&#45;활용영역&#45;보조&#45;요약&#45;생성&#45;분석 -->
<g id="node22" class="node">
<title>실습결과물/08/02&#45;AI&#45;활용영역&#45;보조&#45;요약&#45;생성&#45;분석</title>
<path fill="none" stroke="black" d="M1303.12,-1030.75C1303.12,-1030.75 945.88,-1030.75 945.88,-1030.75 939.88,-1030.75 933.88,-1024.75 933.88,-1018.75 933.88,-1018.75 933.88,-1000.25 933.88,-1000.25 933.88,-994.25 939.88,-988.25 945.88,-988.25 945.88,-988.25 1303.12,-988.25 1303.12,-988.25 1309.12,-988.25 1315.12,-994.25 1315.12,-1000.25 1315.12,-1000.25 1315.12,-1018.75 1315.12,-1018.75 1315.12,-1024.75 1309.12,-1030.75 1303.12,-1030.75"/>
<text xml:space="preserve" text-anchor="middle" x="1124.5" y="-1013.45" font-family="Times New Roman,serif" font-size="14.00">02&#45;AI&#45;활용영역&#45;보조&#45;요약&#45;생성&#45;분석</text>
<text xml:space="preserve" text-anchor="middle" x="1124.5" y="-996.2" font-family="Times New Roman,serif" font-size="14.00">실습결과물/08/02&#45;AI&#45;활용영역&#45;보조&#45;요약&#45;생성&#45;분석.md</text>
</g>
<!-- 실습결과물/08/00&#45;INDEX&#45;&gt;실습결과물/08/02&#45;AI&#45;활용영역&#45;보조&#45;요약&#45;생성&#45;분석 -->
<g id="edge21" class="edge">
<title>실습결과물/08/00&#45;INDEX&#45;&gt;실습결과물/08/02&#45;AI&#45;활용영역&#45;보조&#45;요약&#45;생성&#45;분석</title>
<path fill="none" stroke="black" d="M238.11,-964.24C278.03,-976.22 330.12,-989.97 377.5,-996.5 560.74,-1021.77 771.68,-1022.89 922.39,-1018.95"/>
<polygon fill="black" stroke="black" points="922.18,-1022.45 932.08,-1018.68 921.99,-1015.46 922.18,-1022.45"/>
</g>
<!-- 실습결과물/08/03&#45;정량평가&#45;우선순위 -->
<g id="node23" class="node">
<title>실습결과물/08/03&#45;정량평가&#45;우선순위</title>
<path fill="none" stroke="black" d="M1255.5,-969.75C1255.5,-969.75 993.5,-969.75 993.5,-969.75 987.5,-969.75 981.5,-963.75 981.5,-957.75 981.5,-957.75 981.5,-939.25 981.5,-939.25 981.5,-933.25 987.5,-927.25 993.5,-927.25 993.5,-927.25 1255.5,-927.25 1255.5,-927.25 1261.5,-927.25 1267.5,-933.25 1267.5,-939.25 1267.5,-939.25 1267.5,-957.75 1267.5,-957.75 1267.5,-963.75 1261.5,-969.75 1255.5,-969.75"/>
<text xml:space="preserve" text-anchor="middle" x="1124.5" y="-952.45" font-family="Times New Roman,serif" font-size="14.00">03&#45;정량평가&#45;우선순위</text>
<text xml:space="preserve" text-anchor="middle" x="1124.5" y="-935.2" font-family="Times New Roman,serif" font-size="14.00">실습결과물/08/03&#45;정량평가&#45;우선순위.md</text>
</g>
<!-- 실습결과물/08/00&#45;INDEX&#45;&gt;실습결과물/08/03&#45;정량평가&#45;우선순위 -->
<g id="edge22" class="edge">
<title>실습결과물/08/00&#45;INDEX&#45;&gt;실습결과물/08/03&#45;정량평가&#45;우선순위</title>
<path fill="none" stroke="black" d="M269.85,-939.06C303.93,-938.01 342.39,-937.01 377.5,-936.5 587.92,-933.43 640.61,-931.87 851,-936.5 889.46,-937.35 930.95,-938.86 969.67,-940.54"/>
<polygon fill="black" stroke="black" points="969.39,-944.03 979.54,-940.98 969.7,-937.04 969.39,-944.03"/>
</g>
<!-- 실습결과물/08/04&#45;value&#45;estimation&#45;canvas -->
<g id="node24" class="node">
<title>실습결과물/08/04&#45;value&#45;estimation&#45;canvas</title>
<path fill="none" stroke="black" d="M1256.25,-908.75C1256.25,-908.75 992.75,-908.75 992.75,-908.75 986.75,-908.75 980.75,-902.75 980.75,-896.75 980.75,-896.75 980.75,-878.25 980.75,-878.25 980.75,-872.25 986.75,-866.25 992.75,-866.25 992.75,-866.25 1256.25,-866.25 1256.25,-866.25 1262.25,-866.25 1268.25,-872.25 1268.25,-878.25 1268.25,-878.25 1268.25,-896.75 1268.25,-896.75 1268.25,-902.75 1262.25,-908.75 1256.25,-908.75"/>
<text xml:space="preserve" text-anchor="middle" x="1124.5" y="-891.45" font-family="Times New Roman,serif" font-size="14.00">📊 나의 Value Estimation Canvas</text>
<text xml:space="preserve" text-anchor="middle" x="1124.5" y="-874.2" font-family="Times New Roman,serif" font-size="14.00">실습결과물/08/04&#45;value&#45;estimation&#45;canvas.md</text>
</g>
<!-- 실습결과물/08/00&#45;INDEX&#45;&gt;실습결과물/08/04&#45;value&#45;estimation&#45;canvas -->
<g id="edge23" class="edge">
<title>실습결과물/08/00&#45;INDEX&#45;&gt;실습결과물/08/04&#45;value&#45;estimation&#45;canvas</title>
<path fill="none" stroke="black" d="M269.86,-936.16C303.93,-934 342.4,-931.6 377.5,-929.5 582.15,-917.27 818.44,-904.14 969.31,-895.87"/>
<polygon fill="black" stroke="black" points="969.16,-899.38 978.96,-895.34 968.78,-892.4 969.16,-899.38"/>
</g>
<!-- 실습결과물/08/05&#45;명세서&#45;초안&#45;자동생성&#45;AI&#45;워크플로우 -->
<g id="node25" class="node">
<title>실습결과물/08/05&#45;명세서&#45;초안&#45;자동생성&#45;AI&#45;워크플로우</title>
<path fill="none" stroke="black" d="M1316.62,-847.75C1316.62,-847.75 932.38,-847.75 932.38,-847.75 926.38,-847.75 920.38,-841.75 920.38,-835.75 920.38,-835.75 920.38,-817.25 920.38,-817.25 920.38,-811.25 926.38,-805.25 932.38,-805.25 932.38,-805.25 1316.62,-805.25 1316.62,-805.25 1322.62,-805.25 1328.62,-811.25 1328.62,-817.25 1328.62,-817.25 1328.62,-835.75 1328.62,-835.75 1328.62,-841.75 1322.62,-847.75 1316.62,-847.75"/>
<text xml:space="preserve" text-anchor="middle" x="1124.5" y="-830.45" font-family="Times New Roman,serif" font-size="14.00">명세서 초안 자동 생성 AI 워크플로우</text>
<text xml:space="preserve" text-anchor="middle" x="1124.5" y="-813.2" font-family="Times New Roman,serif" font-size="14.00">실습결과물/08/05&#45;명세서&#45;초안&#45;자동생성&#45;AI&#45;워크플로우.md</text>
</g>
<!-- 실습결과물/08/00&#45;INDEX&#45;&gt;실습결과물/08/05&#45;명세서&#45;초안&#45;자동생성&#45;AI&#45;워크플로우 -->
<g id="edge24" class="edge">
<title>실습결과물/08/00&#45;INDEX&#45;&gt;실습결과물/08/05&#45;명세서&#45;초안&#45;자동생성&#45;AI&#45;워크플로우</title>
<path fill="none" stroke="black" d="M265.08,-920.76C300.18,-913.18 340.53,-905.16 377.5,-899.5 555.7,-872.24 759.5,-853.11 909,-841.29"/>
<polygon fill="black" stroke="black" points="908.92,-844.8 918.61,-840.53 908.37,-837.83 908.92,-844.8"/>
</g>
<!-- 실습결과물/08/업무리스트 -->
<g id="node26" class="node">
<title>실습결과물/08/업무리스트</title>
<path fill="none" stroke="black" d="M710.38,-987.75C710.38,-987.75 518.12,-987.75 518.12,-987.75 512.12,-987.75 506.12,-981.75 506.12,-975.75 506.12,-975.75 506.12,-957.25 506.12,-957.25 506.12,-951.25 512.12,-945.25 518.12,-945.25 518.12,-945.25 710.38,-945.25 710.38,-945.25 716.38,-945.25 722.38,-951.25 722.38,-957.25 722.38,-957.25 722.38,-975.75 722.38,-975.75 722.38,-981.75 716.38,-987.75 710.38,-987.75"/>
<text xml:space="preserve" text-anchor="middle" x="614.25" y="-970.45" font-family="Times New Roman,serif" font-size="14.00">나의 핵심 업무 리스트업</text>
<text xml:space="preserve" text-anchor="middle" x="614.25" y="-953.2" font-family="Times New Roman,serif" font-size="14.00">실습결과물/08/업무리스트.md</text>
</g>
<!-- 실습결과물/08/00&#45;INDEX&#45;&gt;실습결과물/08/업무리스트 -->
<g id="edge19" class="edge">
<title>실습결과물/08/00&#45;INDEX&#45;&gt;실습결과물/08/업무리스트</title>
<path fill="none" stroke="black" d="M269.73,-947.83C336.17,-951.44 424.35,-956.23 494.74,-960.06"/>
<polygon fill="black" stroke="black" points="494.19,-963.53 504.37,-960.58 494.57,-956.54 494.19,-963.53"/>
</g>
<!-- 실습결과물/08/업무리스트&#45;&gt;실습결과물/08/01&#45;핵심&#45;업무&#45;리스트업&#45;및&#45;명세서&#45;프로세스 -->
<g id="edge25" class="edge">
<title>실습결과물/08/업무리스트&#45;&gt;실습결과물/08/01&#45;핵심&#45;업무&#45;리스트업&#45;및&#45;명세서&#45;프로세스</title>
<path fill="none" stroke="black" d="M685.88,-988.23C740.38,-1004.32 817.89,-1025.75 887,-1039.5 900.38,-1042.16 914.23,-1044.65 928.21,-1046.97"/>
<polygon fill="black" stroke="black" points="927.52,-1050.4 937.96,-1048.55 928.64,-1043.49 927.52,-1050.4"/>
</g>
<!-- 실습결과물/08/업무리스트&#45;&gt;실습결과물/08/02&#45;AI&#45;활용영역&#45;보조&#45;요약&#45;생성&#45;분석 -->
<g id="edge26" class="edge">
<title>실습결과물/08/업무리스트&#45;&gt;실습결과물/08/02&#45;AI&#45;활용영역&#45;보조&#45;요약&#45;생성&#45;분석</title>
<path fill="none" stroke="black" d="M722.73,-975.59C780.68,-980.5 854.09,-986.71 922.21,-992.47"/>
<polygon fill="black" stroke="black" points="921.77,-995.95 932.03,-993.3 922.36,-988.97 921.77,-995.95"/>
</g>
<!-- 실습결과물/08/업무리스트&#45;&gt;실습결과물/08/03&#45;정량평가&#45;우선순위 -->
<g id="edge27" class="edge">
<title>실습결과물/08/업무리스트&#45;&gt;실습결과물/08/03&#45;정량평가&#45;우선순위</title>
<path fill="none" stroke="black" d="M722.73,-962.69C794.65,-960.15 890.4,-956.76 970.27,-953.93"/>
<polygon fill="black" stroke="black" points="970.05,-957.44 979.92,-953.59 969.8,-950.44 970.05,-957.44"/>
</g>
<!-- 실습결과물/08/업무리스트&#45;&gt;실습결과물/08/04&#45;value&#45;estimation&#45;canvas -->
<g id="edge28" class="edge">
<title>실습결과물/08/업무리스트&#45;&gt;실습결과물/08/04&#45;value&#45;estimation&#45;canvas</title>
<path fill="none" stroke="black" d="M722.85,-946.36C772.7,-937.32 832.78,-926.84 887,-918.5 913.53,-914.42 941.79,-910.42 969.2,-906.72"/>
<polygon fill="black" stroke="black" points="969.52,-910.21 978.97,-905.41 968.59,-903.27 969.52,-910.21"/>
</g>
<!-- 실습결과물/08/업무리스트&#45;&gt;실습결과물/08/05&#45;명세서&#45;초안&#45;자동생성&#45;AI&#45;워크플로우 -->
<g id="edge29" class="edge">
<title>실습결과물/08/업무리스트&#45;&gt;실습결과물/08/05&#45;명세서&#45;초안&#45;자동생성&#45;AI&#45;워크플로우</title>
<path fill="none" stroke="black" d="M659.28,-944.82C712.08,-919.78 803.89,-879.24 887,-857.5 896.71,-854.96 906.7,-852.62 916.83,-850.47"/>
<polygon fill="black" stroke="black" points="917.29,-853.95 926.39,-848.52 915.89,-847.09 917.29,-853.95"/>
</g>
<!-- 실습결과물/09/00&#45;INDEX -->
<g id="node27" class="node">
<title>실습결과물/09/00&#45;INDEX</title>
<path fill="none" stroke="black" d="M257.5,-1226.75C257.5,-1226.75 84,-1226.75 84,-1226.75 78,-1226.75 72,-1220.75 72,-1214.75 72,-1214.75 72,-1196.25 72,-1196.25 72,-1190.25 78,-1184.25 84,-1184.25 84,-1184.25 257.5,-1184.25 257.5,-1184.25 263.5,-1184.25 269.5,-1190.25 269.5,-1196.25 269.5,-1196.25 269.5,-1214.75 269.5,-1214.75 269.5,-1220.75 263.5,-1226.75 257.5,-1226.75"/>
<text xml:space="preserve" text-anchor="middle" x="170.75" y="-1209.45" font-family="Times New Roman,serif" font-size="14.00">실습결과물 09 인덱스</text>
<text xml:space="preserve" text-anchor="middle" x="170.75" y="-1192.2" font-family="Times New Roman,serif" font-size="14.00">실습결과물/09/00&#45;INDEX.md</text>
</g>
<!-- 실습결과물/09/노래요청 -->
<g id="node28" class="node">
<title>실습결과물/09/노래요청</title>
<path fill="none" stroke="black" d="M702.5,-1317.75C702.5,-1317.75 526,-1317.75 526,-1317.75 520,-1317.75 514,-1311.75 514,-1305.75 514,-1305.75 514,-1287.25 514,-1287.25 514,-1281.25 520,-1275.25 526,-1275.25 526,-1275.25 702.5,-1275.25 702.5,-1275.25 708.5,-1275.25 714.5,-1281.25 714.5,-1287.25 714.5,-1287.25 714.5,-1305.75 714.5,-1305.75 714.5,-1311.75 708.5,-1317.75 702.5,-1317.75"/>
<text xml:space="preserve" text-anchor="middle" x="614.25" y="-1300.45" font-family="Times New Roman,serif" font-size="14.00">suno 노래 요청</text>
<text xml:space="preserve" text-anchor="middle" x="614.25" y="-1283.2" font-family="Times New Roman,serif" font-size="14.00">실습결과물/09/노래요청.md</text>
</g>
<!-- 실습결과물/09/00&#45;INDEX&#45;&gt;실습결과물/09/노래요청 -->
<g id="edge33" class="edge">
<title>실습결과물/09/00&#45;INDEX&#45;&gt;실습결과물/09/노래요청</title>
<path fill="none" stroke="black" d="M236.43,-1227.13C276.64,-1239.88 329.62,-1255.43 377.5,-1265.5 417.94,-1274 462.8,-1280.6 502.44,-1285.47"/>
<polygon fill="black" stroke="black" points="501.9,-1288.93 512.24,-1286.65 502.73,-1281.98 501.9,-1288.93"/>
</g>
<!-- 실습결과물/09/문제 정의서 -->
<g id="node29" class="node">
<title>실습결과물/09/문제 정의서</title>
<path fill="none" stroke="black" d="M762.88,-1256.75C762.88,-1256.75 465.62,-1256.75 465.62,-1256.75 459.62,-1256.75 453.62,-1250.75 453.62,-1244.75 453.62,-1244.75 453.62,-1226.25 453.62,-1226.25 453.62,-1220.25 459.62,-1214.25 465.62,-1214.25 465.62,-1214.25 762.88,-1214.25 762.88,-1214.25 768.88,-1214.25 774.88,-1220.25 774.88,-1226.25 774.88,-1226.25 774.88,-1244.75 774.88,-1244.75 774.88,-1250.75 768.88,-1256.75 762.88,-1256.75"/>
<text xml:space="preserve" text-anchor="middle" x="614.25" y="-1239.45" font-family="Times New Roman,serif" font-size="14.00">📄 AI 협업 기반 문제 정의서 (Master Document)</text>
<text xml:space="preserve" text-anchor="middle" x="614.25" y="-1222.2" font-family="Times New Roman,serif" font-size="14.00">실습결과물/09/문제 정의서.md</text>
</g>
<!-- 실습결과물/09/00&#45;INDEX&#45;&gt;실습결과물/09/문제 정의서 -->
<g id="edge31" class="edge">
<title>실습결과물/09/00&#45;INDEX&#45;&gt;실습결과물/09/문제 정의서</title>
<path fill="none" stroke="black" d="M269.73,-1212.16C320.45,-1215.6 383.84,-1219.91 442.31,-1223.88"/>
<polygon fill="black" stroke="black" points="441.83,-1227.36 452.04,-1224.55 442.3,-1220.38 441.83,-1227.36"/>
</g>
<!-- 실습결과물/09/미션20대여성상품 -->
<g id="node30" class="node">
<title>실습결과물/09/미션20대여성상품</title>
<path fill="none" stroke="black" d="M734,-1195.75C734,-1195.75 494.5,-1195.75 494.5,-1195.75 488.5,-1195.75 482.5,-1189.75 482.5,-1183.75 482.5,-1183.75 482.5,-1165.25 482.5,-1165.25 482.5,-1159.25 488.5,-1153.25 494.5,-1153.25 494.5,-1153.25 734,-1153.25 734,-1153.25 740,-1153.25 746,-1159.25 746,-1165.25 746,-1165.25 746,-1183.75 746,-1183.75 746,-1189.75 740,-1195.75 734,-1195.75"/>
<text xml:space="preserve" text-anchor="middle" x="614.25" y="-1178.45" font-family="Times New Roman,serif" font-size="14.00">1. 가성비 인식 개선 아이디어 20가지</text>
<text xml:space="preserve" text-anchor="middle" x="614.25" y="-1161.2" font-family="Times New Roman,serif" font-size="14.00">실습결과물/09/미션20대여성상품.md</text>
</g>
<!-- 실습결과물/09/00&#45;INDEX&#45;&gt;실습결과물/09/미션20대여성상품 -->
<g id="edge32" class="edge">
<title>실습결과물/09/00&#45;INDEX&#45;&gt;실습결과물/09/미션20대여성상품</title>
<path fill="none" stroke="black" d="M269.73,-1198.62C328.81,-1194.47 405.09,-1189.12 470.75,-1184.51"/>
<polygon fill="black" stroke="black" points="470.8,-1188.01 480.53,-1183.82 470.31,-1181.03 470.8,-1188.01"/>
</g>
<!-- 실습결과물/09/현상에서문제로 -->
<g id="node31" class="node">
<title>실습결과물/09/현상에서문제로</title>
<path fill="none" stroke="black" d="M726.12,-1134.75C726.12,-1134.75 502.38,-1134.75 502.38,-1134.75 496.38,-1134.75 490.38,-1128.75 490.38,-1122.75 490.38,-1122.75 490.38,-1104.25 490.38,-1104.25 490.38,-1098.25 496.38,-1092.25 502.38,-1092.25 502.38,-1092.25 726.12,-1092.25 726.12,-1092.25 732.12,-1092.25 738.12,-1098.25 738.12,-1104.25 738.12,-1104.25 738.12,-1122.75 738.12,-1122.75 738.12,-1128.75 732.12,-1134.75 726.12,-1134.75"/>
<text xml:space="preserve" text-anchor="middle" x="614.25" y="-1117.45" font-family="Times New Roman,serif" font-size="14.00">문제 정의 정리</text>
<text xml:space="preserve" text-anchor="middle" x="614.25" y="-1100.2" font-family="Times New Roman,serif" font-size="14.00">실습결과물/09/현상에서문제로.md</text>
</g>
<!-- 실습결과물/09/00&#45;INDEX&#45;&gt;실습결과물/09/현상에서문제로 -->
<g id="edge30" class="edge">
<title>실습결과물/09/00&#45;INDEX&#45;&gt;실습결과물/09/현상에서문제로</title>
<path fill="none" stroke="black" d="M235.49,-1183.78C275.79,-1170.75 329.21,-1154.77 377.5,-1144.5 410.06,-1137.58 445.5,-1131.94 478.77,-1127.47"/>
<polygon fill="black" stroke="black" points="479,-1130.97 488.46,-1126.19 478.09,-1124.03 479,-1130.97"/>
</g>
<!-- 실습결과물/13/00&#45;INDEX -->
<g id="node32" class="node">
<title>실습결과물/13/00&#45;INDEX</title>
<path fill="none" stroke="black" d="M701,-1829.75C701,-1829.75 527.5,-1829.75 527.5,-1829.75 521.5,-1829.75 515.5,-1823.75 515.5,-1817.75 515.5,-1817.75 515.5,-1799.25 515.5,-1799.25 515.5,-1793.25 521.5,-1787.25 527.5,-1787.25 527.5,-1787.25 701,-1787.25 701,-1787.25 707,-1787.25 713,-1793.25 713,-1799.25 713,-1799.25 713,-1817.75 713,-1817.75 713,-1823.75 707,-1829.75 701,-1829.75"/>
<text xml:space="preserve" text-anchor="middle" x="614.25" y="-1812.45" font-family="Times New Roman,serif" font-size="14.00">실습결과물 13 인덱스</text>
<text xml:space="preserve" text-anchor="middle" x="614.25" y="-1795.2" font-family="Times New Roman,serif" font-size="14.00">실습결과물/13/00&#45;INDEX.md</text>
</g>
<!-- 실습결과물/13/AIDX_5일차_교시별_요약 -->
<g id="node33" class="node">
<title>실습결과물/13/AIDX_5일차_교시별_요약</title>
<path fill="none" stroke="black" d="M1266.75,-2028.75C1266.75,-2028.75 982.25,-2028.75 982.25,-2028.75 976.25,-2028.75 970.25,-2022.75 970.25,-2016.75 970.25,-2016.75 970.25,-1998.25 970.25,-1998.25 970.25,-1992.25 976.25,-1986.25 982.25,-1986.25 982.25,-1986.25 1266.75,-1986.25 1266.75,-1986.25 1272.75,-1986.25 1278.75,-1992.25 1278.75,-1998.25 1278.75,-1998.25 1278.75,-2016.75 1278.75,-2016.75 1278.75,-2022.75 1272.75,-2028.75 1266.75,-2028.75"/>
<text xml:space="preserve" text-anchor="middle" x="1124.5" y="-2011.45" font-family="Times New Roman,serif" font-size="14.00">AIDX_5일차_교시별_요약</text>
<text xml:space="preserve" text-anchor="middle" x="1124.5" y="-1994.2" font-family="Times New Roman,serif" font-size="14.00">실습결과물/13/AIDX_5일차_교시별_요약.md</text>
</g>
<!-- 실습결과물/13/00&#45;INDEX&#45;&gt;실습결과물/13/AIDX_5일차_교시별_요약 -->
<g id="edge34" class="edge">
<title>실습결과물/13/00&#45;INDEX&#45;&gt;실습결과물/13/AIDX_5일차_교시별_요약</title>
<path fill="none" stroke="black" d="M641.38,-1830.24C687.62,-1867.39 788.31,-1942.45 887,-1977.5 909.66,-1985.55 934.22,-1991.49 958.64,-1995.86"/>
<polygon fill="black" stroke="black" points="957.91,-1999.29 968.36,-1997.51 959.08,-1992.39 957.91,-1999.29"/>
</g>
<!-- 실습결과물/13/광물자료조사 -->
<g id="node34" class="node">
<title>실습결과물/13/광물자료조사</title>
<path fill="none" stroke="black" d="M1228.5,-1968C1228.5,-1968 1020.5,-1968 1020.5,-1968 1014.5,-1968 1008.5,-1962 1008.5,-1956 1008.5,-1956 1008.5,-1939 1008.5,-1939 1008.5,-1933 1014.5,-1927 1020.5,-1927 1020.5,-1927 1228.5,-1927 1228.5,-1927 1234.5,-1927 1240.5,-1933 1240.5,-1939 1240.5,-1939 1240.5,-1956 1240.5,-1956 1240.5,-1962 1234.5,-1968 1228.5,-1968"/>
<text xml:space="preserve" text-anchor="middle" x="1124.5" y="-1950.7" font-family="Times New Roman,serif" font-size="14.00">광물자료조사</text>
<text xml:space="preserve" text-anchor="middle" x="1124.5" y="-1934.95" font-family="Times New Roman,serif" font-size="14.00">실습결과물/13/광물자료조사.md</text>
</g>
<!-- 실습결과물/13/00&#45;INDEX&#45;&gt;실습결과물/13/광물자료조사 -->
<g id="edge41" class="edge">
<title>실습결과물/13/00&#45;INDEX&#45;&gt;실습결과물/13/광물자료조사</title>
<path fill="none" stroke="black" d="M659.26,-1830.24C712.05,-1855.34 803.85,-1895.93 887,-1917.5 922.22,-1926.64 961.13,-1933.03 997.06,-1937.5"/>
<polygon fill="black" stroke="black" points="996.26,-1940.93 1006.6,-1938.64 997.09,-1933.98 996.26,-1940.93"/>
</g>
<!-- 실습결과물/13/노트북lm 수업 요약보고서 -->
<g id="node35" class="node">
<title>실습결과물/13/노트북lm 수업 요약보고서</title>
<path fill="none" stroke="black" d="M1271.25,-1908.75C1271.25,-1908.75 977.75,-1908.75 977.75,-1908.75 971.75,-1908.75 965.75,-1902.75 965.75,-1896.75 965.75,-1896.75 965.75,-1878.25 965.75,-1878.25 965.75,-1872.25 971.75,-1866.25 977.75,-1866.25 977.75,-1866.25 1271.25,-1866.25 1271.25,-1866.25 1277.25,-1866.25 1283.25,-1872.25 1283.25,-1878.25 1283.25,-1878.25 1283.25,-1896.75 1283.25,-1896.75 1283.25,-1902.75 1277.25,-1908.75 1271.25,-1908.75"/>
<text xml:space="preserve" text-anchor="middle" x="1124.5" y="-1891.45" font-family="Times New Roman,serif" font-size="14.00">노트북lm 수업 요약보고서</text>
<text xml:space="preserve" text-anchor="middle" x="1124.5" y="-1874.2" font-family="Times New Roman,serif" font-size="14.00">실습결과물/13/노트북lm 수업 요약보고서.md</text>
</g>
<!-- 실습결과물/13/00&#45;INDEX&#45;&gt;실습결과물/13/노트북lm 수업 요약보고서 -->
<g id="edge35" class="edge">
<title>실습결과물/13/00&#45;INDEX&#45;&gt;실습결과물/13/노트북lm 수업 요약보고서</title>
<path fill="none" stroke="black" d="M713.19,-1826.88C764.8,-1836.3 829.23,-1847.62 887,-1856.5 908.62,-1859.82 931.39,-1863.1 953.91,-1866.2"/>
<polygon fill="black" stroke="black" points="953.42,-1869.66 963.8,-1867.55 954.36,-1862.73 953.42,-1869.66"/>
</g>
<!-- 실습결과물/13/블로그 형태 -->
<g id="node36" class="node">
<title>실습결과물/13/블로그 형태</title>
<path fill="none" stroke="black" d="M1222.5,-1847.75C1222.5,-1847.75 1026.5,-1847.75 1026.5,-1847.75 1020.5,-1847.75 1014.5,-1841.75 1014.5,-1835.75 1014.5,-1835.75 1014.5,-1817.25 1014.5,-1817.25 1014.5,-1811.25 1020.5,-1805.25 1026.5,-1805.25 1026.5,-1805.25 1222.5,-1805.25 1222.5,-1805.25 1228.5,-1805.25 1234.5,-1811.25 1234.5,-1817.25 1234.5,-1817.25 1234.5,-1835.75 1234.5,-1835.75 1234.5,-1841.75 1228.5,-1847.75 1222.5,-1847.75"/>
<text xml:space="preserve" text-anchor="middle" x="1124.5" y="-1830.45" font-family="Times New Roman,serif" font-size="14.00">블로그 형태</text>
<text xml:space="preserve" text-anchor="middle" x="1124.5" y="-1813.2" font-family="Times New Roman,serif" font-size="14.00">실습결과물/13/블로그 형태.md</text>
</g>
<!-- 실습결과물/13/00&#45;INDEX&#45;&gt;실습결과물/13/블로그 형태 -->
<g id="edge40" class="edge">
<title>실습결과물/13/00&#45;INDEX&#45;&gt;실습결과물/13/블로그 형태</title>
<path fill="none" stroke="black" d="M713.25,-1811.97C795.87,-1814.9 914.46,-1819.1 1002.9,-1822.23"/>
<polygon fill="black" stroke="black" points="1002.72,-1825.72 1012.84,-1822.58 1002.97,-1818.73 1002.72,-1825.72"/>
</g>
<!-- 실습결과물/13/수중드론_블로그 -->
<g id="node37" class="node">
<title>실습결과물/13/수중드론_블로그</title>
<path fill="none" stroke="black" d="M1239.75,-1786.75C1239.75,-1786.75 1009.25,-1786.75 1009.25,-1786.75 1003.25,-1786.75 997.25,-1780.75 997.25,-1774.75 997.25,-1774.75 997.25,-1756.25 997.25,-1756.25 997.25,-1750.25 1003.25,-1744.25 1009.25,-1744.25 1009.25,-1744.25 1239.75,-1744.25 1239.75,-1744.25 1245.75,-1744.25 1251.75,-1750.25 1251.75,-1756.25 1251.75,-1756.25 1251.75,-1774.75 1251.75,-1774.75 1251.75,-1780.75 1245.75,-1786.75 1239.75,-1786.75"/>
<text xml:space="preserve" text-anchor="middle" x="1124.5" y="-1769.45" font-family="Times New Roman,serif" font-size="14.00">수중드론_블로그</text>
<text xml:space="preserve" text-anchor="middle" x="1124.5" y="-1752.2" font-family="Times New Roman,serif" font-size="14.00">실습결과물/13/수중드론_블로그.md</text>
</g>
<!-- 실습결과물/13/00&#45;INDEX&#45;&gt;실습결과물/13/수중드론_블로그 -->
<g id="edge39" class="edge">
<title>실습결과물/13/00&#45;INDEX&#45;&gt;실습결과물/13/수중드론_블로그</title>
<path fill="none" stroke="black" d="M713.25,-1800.21C790.54,-1793.67 899.31,-1784.47 985.43,-1777.18"/>
<polygon fill="black" stroke="black" points="985.71,-1780.67 995.38,-1776.34 985.12,-1773.7 985.71,-1780.67"/>
</g>
<!-- 실습결과물/13/수중드론_사업화_기획안 -->
<g id="node38" class="node">
<title>실습결과물/13/수중드론_사업화_기획안</title>
<path fill="none" stroke="black" d="M1266.75,-1664.75C1266.75,-1664.75 982.25,-1664.75 982.25,-1664.75 976.25,-1664.75 970.25,-1658.75 970.25,-1652.75 970.25,-1652.75 970.25,-1634.25 970.25,-1634.25 970.25,-1628.25 976.25,-1622.25 982.25,-1622.25 982.25,-1622.25 1266.75,-1622.25 1266.75,-1622.25 1272.75,-1622.25 1278.75,-1628.25 1278.75,-1634.25 1278.75,-1634.25 1278.75,-1652.75 1278.75,-1652.75 1278.75,-1658.75 1272.75,-1664.75 1266.75,-1664.75"/>
<text xml:space="preserve" text-anchor="middle" x="1124.5" y="-1647.45" font-family="Times New Roman,serif" font-size="14.00">수중드론 사업화 기획안(운영형)</text>
<text xml:space="preserve" text-anchor="middle" x="1124.5" y="-1630.2" font-family="Times New Roman,serif" font-size="14.00">실습결과물/13/수중드론_사업화_기획안.md</text>
</g>
<!-- 실습결과물/13/00&#45;INDEX&#45;&gt;실습결과물/13/수중드론_사업화_기획안 -->
<g id="edge38" class="edge">
<title>실습결과물/13/00&#45;INDEX&#45;&gt;실습결과물/13/수중드론_사업화_기획안</title>
<path fill="none" stroke="black" d="M713.25,-1806.3C759.42,-1800.66 812.64,-1786.96 851,-1755.5 881.46,-1730.52 855.44,-1698.07 887,-1674.5 907.98,-1658.84 933.01,-1649.02 958.83,-1643.11"/>
<polygon fill="black" stroke="black" points="959.36,-1646.58 968.45,-1641.12 957.95,-1639.72 959.36,-1646.58"/>
</g>
<!-- 실습결과물/13/해양드론딥리서치결과 -->
<g id="node39" class="node">
<title>실습결과물/13/해양드론딥리서치결과</title>
<path fill="none" stroke="black" d="M1279.5,-1603.75C1279.5,-1603.75 969.5,-1603.75 969.5,-1603.75 963.5,-1603.75 957.5,-1597.75 957.5,-1591.75 957.5,-1591.75 957.5,-1573.25 957.5,-1573.25 957.5,-1567.25 963.5,-1561.25 969.5,-1561.25 969.5,-1561.25 1279.5,-1561.25 1279.5,-1561.25 1285.5,-1561.25 1291.5,-1567.25 1291.5,-1573.25 1291.5,-1573.25 1291.5,-1591.75 1291.5,-1591.75 1291.5,-1597.75 1285.5,-1603.75 1279.5,-1603.75"/>
<text xml:space="preserve" text-anchor="middle" x="1124.5" y="-1586.45" font-family="Times New Roman,serif" font-size="14.00">해양드론을 활용한 사업화 가능성 분석 보고서</text>
<text xml:space="preserve" text-anchor="middle" x="1124.5" y="-1569.2" font-family="Times New Roman,serif" font-size="14.00">실습결과물/13/해양드론딥리서치결과.md</text>
</g>
<!-- 실습결과물/13/00&#45;INDEX&#45;&gt;실습결과물/13/해양드론딥리서치결과 -->
<g id="edge37" class="edge">
<title>실습결과물/13/00&#45;INDEX&#45;&gt;실습결과물/13/해양드론딥리서치결과</title>
<path fill="none" stroke="black" d="M713.35,-1793.25C760.53,-1781.28 814.61,-1760.03 851,-1722.5 886.52,-1685.87 847.69,-1646.02 887,-1613.5 904.2,-1599.28 924.64,-1589.67 946.19,-1583.36"/>
<polygon fill="black" stroke="black" points="946.97,-1586.77 955.73,-1580.83 945.17,-1580.01 946.97,-1586.77"/>
</g>
<!-- 실습결과물/13/해양드론조사보고서 -->
<g id="node40" class="node">
<title>실습결과물/13/해양드론조사보고서</title>
<path fill="none" stroke="black" d="M1252.12,-1725.75C1252.12,-1725.75 996.88,-1725.75 996.88,-1725.75 990.88,-1725.75 984.88,-1719.75 984.88,-1713.75 984.88,-1713.75 984.88,-1695.25 984.88,-1695.25 984.88,-1689.25 990.88,-1683.25 996.88,-1683.25 996.88,-1683.25 1252.12,-1683.25 1252.12,-1683.25 1258.12,-1683.25 1264.12,-1689.25 1264.12,-1695.25 1264.12,-1695.25 1264.12,-1713.75 1264.12,-1713.75 1264.12,-1719.75 1258.12,-1725.75 1252.12,-1725.75"/>
<text xml:space="preserve" text-anchor="middle" x="1124.5" y="-1708.45" font-family="Times New Roman,serif" font-size="14.00">해양드론 조사 보고서</text>
<text xml:space="preserve" text-anchor="middle" x="1124.5" y="-1691.2" font-family="Times New Roman,serif" font-size="14.00">실습결과물/13/해양드론조사보고서.md</text>
</g>
<!-- 실습결과물/13/00&#45;INDEX&#45;&gt;실습결과물/13/해양드론조사보고서 -->
<g id="edge36" class="edge">
<title>실습결과물/13/00&#45;INDEX&#45;&gt;실습결과물/13/해양드론조사보고서</title>
<path fill="none" stroke="black" d="M713.44,-1792.94C756.48,-1784.47 807.1,-1772.23 851,-1755.5 868.1,-1748.98 869.62,-1741.24 887,-1735.5 914.37,-1726.47 944.35,-1720.06 973.48,-1715.51"/>
<polygon fill="black" stroke="black" points="973.72,-1719.01 983.1,-1714.08 972.69,-1712.08 973.72,-1719.01"/>
</g>
<!-- 실습결과물/14/00&#45;INDEX -->
<g id="node41" class="node">
<title>실습결과물/14/00&#45;INDEX</title>
<path fill="none" stroke="black" d="M1211.25,-1481.75C1211.25,-1481.75 1037.75,-1481.75 1037.75,-1481.75 1031.75,-1481.75 1025.75,-1475.75 1025.75,-1469.75 1025.75,-1469.75 1025.75,-1451.25 1025.75,-1451.25 1025.75,-1445.25 1031.75,-1439.25 1037.75,-1439.25 1037.75,-1439.25 1211.25,-1439.25 1211.25,-1439.25 1217.25,-1439.25 1223.25,-1445.25 1223.25,-1451.25 1223.25,-1451.25 1223.25,-1469.75 1223.25,-1469.75 1223.25,-1475.75 1217.25,-1481.75 1211.25,-1481.75"/>
<text xml:space="preserve" text-anchor="middle" x="1124.5" y="-1464.45" font-family="Times New Roman,serif" font-size="14.00">실습결과물 14 인덱스</text>
<text xml:space="preserve" text-anchor="middle" x="1124.5" y="-1447.2" font-family="Times New Roman,serif" font-size="14.00">실습결과물/14/00&#45;INDEX.md</text>
</g>
<!-- 실습결과물/14/10&#45;주간업무일지&#45;INDEX -->
<g id="node42" class="node">
<title>실습결과물/14/10&#45;주간업무일지&#45;INDEX</title>
<path fill="none" stroke="black" d="M1682.5,-1816.75C1682.5,-1816.75 1410,-1816.75 1410,-1816.75 1404,-1816.75 1398,-1810.75 1398,-1804.75 1398,-1804.75 1398,-1786.25 1398,-1786.25 1398,-1780.25 1404,-1774.25 1410,-1774.25 1410,-1774.25 1682.5,-1774.25 1682.5,-1774.25 1688.5,-1774.25 1694.5,-1780.25 1694.5,-1786.25 1694.5,-1786.25 1694.5,-1804.75 1694.5,-1804.75 1694.5,-1810.75 1688.5,-1816.75 1682.5,-1816.75"/>
<text xml:space="preserve" text-anchor="middle" x="1546.25" y="-1799.45" font-family="Times New Roman,serif" font-size="14.00">주간 업무일지 인덱스</text>
<text xml:space="preserve" text-anchor="middle" x="1546.25" y="-1782.2" font-family="Times New Roman,serif" font-size="14.00">실습결과물/14/10&#45;주간업무일지&#45;INDEX.md</text>
</g>
<!-- 실습결과물/14/00&#45;INDEX&#45;&gt;실습결과물/14/10&#45;주간업무일지&#45;INDEX -->
<g id="edge42" class="edge">
<title>실습결과물/14/00&#45;INDEX&#45;&gt;실습결과물/14/10&#45;주간업무일지&#45;INDEX</title>
<path fill="none" stroke="black" d="M1223.63,-1441.8C1270.6,-1441.17 1324.62,-1450.08 1362,-1482.5 1406.97,-1521.5 1370.21,-1558.86 1398,-1611.5 1430.22,-1672.52 1486.55,-1731.33 1519.41,-1765.63"/>
<polygon fill="black" stroke="black" points="1516.74,-1767.91 1526.18,-1772.72 1521.8,-1763.07 1516.74,-1767.91"/>
</g>
<!-- 실습결과물/14/20&#45;수중드론&#45;INDEX -->
<g id="node43" class="node">
<title>실습결과물/14/20&#45;수중드론&#45;INDEX</title>
<path fill="none" stroke="black" d="M291.25,-1516.75C291.25,-1516.75 50.25,-1516.75 50.25,-1516.75 44.25,-1516.75 38.25,-1510.75 38.25,-1504.75 38.25,-1504.75 38.25,-1486.25 38.25,-1486.25 38.25,-1480.25 44.25,-1474.25 50.25,-1474.25 50.25,-1474.25 291.25,-1474.25 291.25,-1474.25 297.25,-1474.25 303.25,-1480.25 303.25,-1486.25 303.25,-1486.25 303.25,-1504.75 303.25,-1504.75 303.25,-1510.75 297.25,-1516.75 291.25,-1516.75"/>
<text xml:space="preserve" text-anchor="middle" x="170.75" y="-1499.45" font-family="Times New Roman,serif" font-size="14.00">수중드론 사업화 인덱스</text>
<text xml:space="preserve" text-anchor="middle" x="170.75" y="-1482.2" font-family="Times New Roman,serif" font-size="14.00">실습결과물/14/20&#45;수중드론&#45;INDEX.md</text>
</g>
<!-- 실습결과물/14/00&#45;INDEX&#45;&gt;실습결과물/14/20&#45;수중드론&#45;INDEX -->
<g id="edge43" class="edge">
<title>실습결과물/14/00&#45;INDEX&#45;&gt;실습결과물/14/20&#45;수중드론&#45;INDEX</title>
<path fill="none" stroke="black" d="M1025.27,-1462.75C882.43,-1461.52 609.15,-1456.92 377.5,-1474.5 357.21,-1476.04 335.88,-1478.36 314.95,-1480.94"/>
<polygon fill="black" stroke="black" points="314.7,-1477.44 305.22,-1482.16 315.57,-1484.39 314.7,-1477.44"/>
</g>
<!-- 실습결과물/14/30&#45;소설&#45;INDEX -->
<g id="node49" class="node">
<title>실습결과물/14/30&#45;소설&#45;INDEX</title>
<path fill="none" stroke="black" d="M1651,-1481.75C1651,-1481.75 1441.5,-1481.75 1441.5,-1481.75 1435.5,-1481.75 1429.5,-1475.75 1429.5,-1469.75 1429.5,-1469.75 1429.5,-1451.25 1429.5,-1451.25 1429.5,-1445.25 1435.5,-1439.25 1441.5,-1439.25 1441.5,-1439.25 1651,-1439.25 1651,-1439.25 1657,-1439.25 1663,-1445.25 1663,-1451.25 1663,-1451.25 1663,-1469.75 1663,-1469.75 1663,-1475.75 1657,-1481.75 1651,-1481.75"/>
<text xml:space="preserve" text-anchor="middle" x="1546.25" y="-1464.45" font-family="Times New Roman,serif" font-size="14.00">소설 프로젝트 인덱스</text>
<text xml:space="preserve" text-anchor="middle" x="1546.25" y="-1447.2" font-family="Times New Roman,serif" font-size="14.00">실습결과물/14/30&#45;소설&#45;INDEX.md</text>
</g>
<!-- 실습결과물/14/00&#45;INDEX&#45;&gt;실습결과물/14/30&#45;소설&#45;INDEX -->
<g id="edge44" class="edge">
<title>실습결과물/14/00&#45;INDEX&#45;&gt;실습결과물/14/30&#45;소설&#45;INDEX</title>
<path fill="none" stroke="black" d="M1223.65,-1454.68C1281.47,-1453.61 1355.26,-1453.46 1417.57,-1454.23"/>
<polygon fill="black" stroke="black" points="1417.5,-1457.73 1427.55,-1454.37 1417.6,-1450.73 1417.5,-1457.73"/>
</g>
<!-- 실습결과물/14/AI요청 프롬프트 -->
<g id="node50" class="node">
<title>실습결과물/14/AI요청 프롬프트</title>
<path fill="none" stroke="black" d="M1659.25,-1383.75C1659.25,-1383.75 1433.25,-1383.75 1433.25,-1383.75 1427.25,-1383.75 1421.25,-1377.75 1421.25,-1371.75 1421.25,-1371.75 1421.25,-1353.25 1421.25,-1353.25 1421.25,-1347.25 1427.25,-1341.25 1433.25,-1341.25 1433.25,-1341.25 1659.25,-1341.25 1659.25,-1341.25 1665.25,-1341.25 1671.25,-1347.25 1671.25,-1353.25 1671.25,-1353.25 1671.25,-1371.75 1671.25,-1371.75 1671.25,-1377.75 1665.25,-1383.75 1659.25,-1383.75"/>
<text xml:space="preserve" text-anchor="middle" x="1546.25" y="-1366.45" font-family="Times New Roman,serif" font-size="14.00">AI요청 프롬프트</text>
<text xml:space="preserve" text-anchor="middle" x="1546.25" y="-1349.2" font-family="Times New Roman,serif" font-size="14.00">실습결과물/14/AI요청 프롬프트.md</text>
</g>
<!-- 실습결과물/14/00&#45;INDEX&#45;&gt;실습결과물/14/AI요청 프롬프트 -->
<g id="edge45" class="edge">
<title>실습결과물/14/00&#45;INDEX&#45;&gt;실습결과물/14/AI요청 프롬프트</title>
<path fill="none" stroke="black" d="M1223.73,-1460.55C1267.69,-1457.37 1319.15,-1449.07 1362,-1429.5 1381.47,-1420.61 1379.01,-1407.39 1398,-1397.5 1404.66,-1394.04 1411.66,-1390.91 1418.85,-1388.09"/>
<polygon fill="black" stroke="black" points="1419.9,-1391.43 1428.08,-1384.69 1417.48,-1384.86 1419.9,-1391.43"/>
</g>
<!-- 실습결과물/14/시대상 과 역사적 사실 -->
<g id="node65" class="node">
<title>실습결과물/14/시대상 과 역사적 사실</title>
<path fill="none" stroke="black" d="M2156,-1176.75C2156,-1176.75 1742.5,-1176.75 1742.5,-1176.75 1736.5,-1176.75 1730.5,-1170.75 1730.5,-1164.75 1730.5,-1164.75 1730.5,-1146.25 1730.5,-1146.25 1730.5,-1140.25 1736.5,-1134.25 1742.5,-1134.25 1742.5,-1134.25 2156,-1134.25 2156,-1134.25 2162,-1134.25 2168,-1140.25 2168,-1146.25 2168,-1146.25 2168,-1164.75 2168,-1164.75 2168,-1170.75 2162,-1176.75 2156,-1176.75"/>
<text xml:space="preserve" text-anchor="middle" x="1949.25" y="-1159.45" font-family="Times New Roman,serif" font-size="14.00">후삼국~고려 건국기 시대상과 역사적 사실 검증 메모 (889~936)</text>
<text xml:space="preserve" text-anchor="middle" x="1949.25" y="-1142.2" font-family="Times New Roman,serif" font-size="14.00">실습결과물/14/시대상 과 역사적 사실.md</text>
</g>
<!-- 실습결과물/14/00&#45;INDEX&#45;&gt;실습결과물/14/시대상 과 역사적 사실 -->
<g id="edge48" class="edge">
<title>실습결과물/14/00&#45;INDEX&#45;&gt;실습결과물/14/시대상 과 역사적 사실</title>
<path fill="none" stroke="black" d="M1223.71,-1449.51C1385.38,-1431.31 1690.26,-1396.52 1694.5,-1392.5 1761.97,-1328.58 1663.75,-1251.17 1730.5,-1186.5 1731.39,-1185.64 1732.3,-1184.79 1733.21,-1183.96"/>
<polygon fill="black" stroke="black" points="1735.09,-1186.95 1740.59,-1177.89 1730.65,-1181.54 1735.09,-1186.95"/>
</g>
<!-- 실습결과물/14/업무일지 작성프롬프트 -->
<g id="node66" class="node">
<title>실습결과물/14/업무일지 작성프롬프트</title>
<path fill="none" stroke="black" d="M2086.62,-1725.75C2086.62,-1725.75 1811.88,-1725.75 1811.88,-1725.75 1805.88,-1725.75 1799.88,-1719.75 1799.88,-1713.75 1799.88,-1713.75 1799.88,-1695.25 1799.88,-1695.25 1799.88,-1689.25 1805.88,-1683.25 1811.88,-1683.25 1811.88,-1683.25 2086.62,-1683.25 2086.62,-1683.25 2092.62,-1683.25 2098.62,-1689.25 2098.62,-1695.25 2098.62,-1695.25 2098.62,-1713.75 2098.62,-1713.75 2098.62,-1719.75 2092.62,-1725.75 2086.62,-1725.75"/>
<text xml:space="preserve" text-anchor="middle" x="1949.25" y="-1708.45" font-family="Times New Roman,serif" font-size="14.00">업무일지 작성 프롬프트</text>
<text xml:space="preserve" text-anchor="middle" x="1949.25" y="-1691.2" font-family="Times New Roman,serif" font-size="14.00">실습결과물/14/업무일지 작성프롬프트.md</text>
</g>
<!-- 실습결과물/14/00&#45;INDEX&#45;&gt;실습결과물/14/업무일지 작성프롬프트 -->
<g id="edge46" class="edge">
<title>실습결과물/14/00&#45;INDEX&#45;&gt;실습결과물/14/업무일지 작성프롬프트</title>
<path fill="none" stroke="black" d="M1223.68,-1466.11C1266.8,-1470.42 1317.62,-1478.04 1362,-1491.5 1536.8,-1544.53 1556,-1619.5 1730.5,-1673.5 1748.96,-1679.21 1768.63,-1683.88 1788.31,-1687.69"/>
<polygon fill="black" stroke="black" points="1787.6,-1691.11 1798.07,-1689.5 1788.88,-1684.23 1787.6,-1691.11"/>
</g>
<!-- 실습결과물/14/이메일발송프롬프트 -->
<g id="node67" class="node">
<title>실습결과물/14/이메일발송프롬프트</title>
<path fill="none" stroke="black" d="M1673.88,-1322.75C1673.88,-1322.75 1418.62,-1322.75 1418.62,-1322.75 1412.62,-1322.75 1406.62,-1316.75 1406.62,-1310.75 1406.62,-1310.75 1406.62,-1292.25 1406.62,-1292.25 1406.62,-1286.25 1412.62,-1280.25 1418.62,-1280.25 1418.62,-1280.25 1673.88,-1280.25 1673.88,-1280.25 1679.88,-1280.25 1685.88,-1286.25 1685.88,-1292.25 1685.88,-1292.25 1685.88,-1310.75 1685.88,-1310.75 1685.88,-1316.75 1679.88,-1322.75 1673.88,-1322.75"/>
<text xml:space="preserve" text-anchor="middle" x="1546.25" y="-1305.45" font-family="Times New Roman,serif" font-size="14.00">이메일 발송 프롬프트</text>
<text xml:space="preserve" text-anchor="middle" x="1546.25" y="-1288.2" font-family="Times New Roman,serif" font-size="14.00">실습결과물/14/이메일발송프롬프트.md</text>
</g>
<!-- 실습결과물/14/00&#45;INDEX&#45;&gt;실습결과물/14/이메일발송프롬프트 -->
<g id="edge47" class="edge">
<title>실습결과물/14/00&#45;INDEX&#45;&gt;실습결과물/14/이메일발송프롬프트</title>
<path fill="none" stroke="black" d="M1223.68,-1469.75C1270.1,-1469 1323.62,-1460.08 1362,-1429.5 1397.96,-1400.84 1363.17,-1362.53 1398,-1332.5 1399.27,-1331.41 1400.56,-1330.35 1401.89,-1329.33"/>
<polygon fill="black" stroke="black" points="1403.49,-1332.47 1409.73,-1323.92 1399.51,-1326.71 1403.49,-1332.47"/>
</g>
<!-- 실습결과물/14/10&#45;주간업무일지&#45;INDEX&#45;&gt;실습결과물/14/00&#45;INDEX -->
<g id="edge55" class="edge">
<title>실습결과물/14/10&#45;주간업무일지&#45;INDEX&#45;&gt;실습결과물/14/00&#45;INDEX</title>
<path fill="none" stroke="black" d="M1514.86,-1773.98C1481.55,-1744.06 1428.78,-1687.79 1398,-1629.5 1370.21,-1576.86 1406.97,-1539.5 1362,-1500.5 1327.61,-1470.67 1279.15,-1460.74 1235.04,-1458.41"/>
<polygon fill="black" stroke="black" points="1235.27,-1454.92 1225.14,-1458.03 1235,-1461.92 1235.27,-1454.92"/>
</g>
<!-- 실습결과물/14/2026_3_13_주간 업무일지 -->
<g id="node44" class="node">
<title>실습결과물/14/2026_3_13_주간 업무일지</title>
<path fill="none" stroke="black" d="M2088.88,-2030.75C2088.88,-2030.75 1809.62,-2030.75 1809.62,-2030.75 1803.62,-2030.75 1797.62,-2024.75 1797.62,-2018.75 1797.62,-2018.75 1797.62,-2000.25 1797.62,-2000.25 1797.62,-1994.25 1803.62,-1988.25 1809.62,-1988.25 1809.62,-1988.25 2088.88,-1988.25 2088.88,-1988.25 2094.88,-1988.25 2100.88,-1994.25 2100.88,-2000.25 2100.88,-2000.25 2100.88,-2018.75 2100.88,-2018.75 2100.88,-2024.75 2094.88,-2030.75 2088.88,-2030.75"/>
<text xml:space="preserve" text-anchor="middle" x="1949.25" y="-2013.45" font-family="Times New Roman,serif" font-size="14.00">🗓️ 주간 업무 보고서</text>
<text xml:space="preserve" text-anchor="middle" x="1949.25" y="-1996.2" font-family="Times New Roman,serif" font-size="14.00">실습결과물/14/2026_3_13_주간 업무일지.md</text>
</g>
<!-- 실습결과물/14/10&#45;주간업무일지&#45;INDEX&#45;&gt;실습결과물/14/2026_3_13_주간 업무일지 -->
<g id="edge49" class="edge">
<title>실습결과물/14/10&#45;주간업무일지&#45;INDEX&#45;&gt;실습결과물/14/2026_3_13_주간 업무일지</title>
<path fill="none" stroke="black" d="M1561.62,-1817.17C1589.14,-1856.72 1653.47,-1940.04 1730.5,-1978.5 1747.86,-1987.17 1766.9,-1993.61 1786.28,-1998.38"/>
<polygon fill="black" stroke="black" points="1785.39,-2001.77 1795.92,-2000.59 1786.96,-1994.95 1785.39,-2001.77"/>
</g>
<!-- 실습결과물/14/2026_3_20_주간 업무일지 -->
<g id="node45" class="node">
<title>실습결과물/14/2026_3_20_주간 업무일지</title>
<path fill="none" stroke="black" d="M2088.88,-1969.75C2088.88,-1969.75 1809.62,-1969.75 1809.62,-1969.75 1803.62,-1969.75 1797.62,-1963.75 1797.62,-1957.75 1797.62,-1957.75 1797.62,-1939.25 1797.62,-1939.25 1797.62,-1933.25 1803.62,-1927.25 1809.62,-1927.25 1809.62,-1927.25 2088.88,-1927.25 2088.88,-1927.25 2094.88,-1927.25 2100.88,-1933.25 2100.88,-1939.25 2100.88,-1939.25 2100.88,-1957.75 2100.88,-1957.75 2100.88,-1963.75 2094.88,-1969.75 2088.88,-1969.75"/>
<text xml:space="preserve" text-anchor="middle" x="1949.25" y="-1952.45" font-family="Times New Roman,serif" font-size="14.00">🗓️ 주간 업무 보고서</text>
<text xml:space="preserve" text-anchor="middle" x="1949.25" y="-1935.2" font-family="Times New Roman,serif" font-size="14.00">실습결과물/14/2026_3_20_주간 업무일지.md</text>
</g>
<!-- 실습결과물/14/10&#45;주간업무일지&#45;INDEX&#45;&gt;실습결과물/14/2026_3_20_주간 업무일지 -->
<g id="edge50" class="edge">
<title>실습결과물/14/10&#45;주간업무일지&#45;INDEX&#45;&gt;실습결과물/14/2026_3_20_주간 업무일지</title>
<path fill="none" stroke="black" d="M1571.62,-1817.01C1604.96,-1845.13 1667.83,-1893.6 1730.5,-1917.5 1748.1,-1924.21 1766.99,-1929.49 1786.04,-1933.63"/>
<polygon fill="black" stroke="black" points="1785.28,-1937.05 1795.78,-1935.64 1786.69,-1930.19 1785.28,-1937.05"/>
</g>
<!-- 실습결과물/14/2026_3_27_주간 업무일지 -->
<g id="node46" class="node">
<title>실습결과물/14/2026_3_27_주간 업무일지</title>
<path fill="none" stroke="black" d="M2088.88,-1908.75C2088.88,-1908.75 1809.62,-1908.75 1809.62,-1908.75 1803.62,-1908.75 1797.62,-1902.75 1797.62,-1896.75 1797.62,-1896.75 1797.62,-1878.25 1797.62,-1878.25 1797.62,-1872.25 1803.62,-1866.25 1809.62,-1866.25 1809.62,-1866.25 2088.88,-1866.25 2088.88,-1866.25 2094.88,-1866.25 2100.88,-1872.25 2100.88,-1878.25 2100.88,-1878.25 2100.88,-1896.75 2100.88,-1896.75 2100.88,-1902.75 2094.88,-1908.75 2088.88,-1908.75"/>
<text xml:space="preserve" text-anchor="middle" x="1949.25" y="-1891.45" font-family="Times New Roman,serif" font-size="14.00">🗓️ 주간 업무 보고서</text>
<text xml:space="preserve" text-anchor="middle" x="1949.25" y="-1874.2" font-family="Times New Roman,serif" font-size="14.00">실습결과물/14/2026_3_27_주간 업무일지.md</text>
</g>
<!-- 실습결과물/14/10&#45;주간업무일지&#45;INDEX&#45;&gt;실습결과물/14/2026_3_27_주간 업무일지 -->
<g id="edge51" class="edge">
<title>실습결과물/14/10&#45;주간업무일지&#45;INDEX&#45;&gt;실습결과물/14/2026_3_27_주간 업무일지</title>
<path fill="none" stroke="black" d="M1603.45,-1817.13C1639.33,-1830.21 1687.09,-1846.27 1730.5,-1856.5 1748.44,-1860.73 1767.36,-1864.46 1786.25,-1867.74"/>
<polygon fill="black" stroke="black" points="1785.43,-1871.15 1795.87,-1869.37 1786.59,-1864.25 1785.43,-1871.15"/>
</g>
<!-- 실습결과물/14/2026_4_10_주간 업무일지 -->
<g id="node47" class="node">
<title>실습결과물/14/2026_4_10_주간 업무일지</title>
<path fill="none" stroke="black" d="M2088.88,-1847.75C2088.88,-1847.75 1809.62,-1847.75 1809.62,-1847.75 1803.62,-1847.75 1797.62,-1841.75 1797.62,-1835.75 1797.62,-1835.75 1797.62,-1817.25 1797.62,-1817.25 1797.62,-1811.25 1803.62,-1805.25 1809.62,-1805.25 1809.62,-1805.25 2088.88,-1805.25 2088.88,-1805.25 2094.88,-1805.25 2100.88,-1811.25 2100.88,-1817.25 2100.88,-1817.25 2100.88,-1835.75 2100.88,-1835.75 2100.88,-1841.75 2094.88,-1847.75 2088.88,-1847.75"/>
<text xml:space="preserve" text-anchor="middle" x="1949.25" y="-1830.45" font-family="Times New Roman,serif" font-size="14.00">🗓️ 주간 업무 보고서</text>
<text xml:space="preserve" text-anchor="middle" x="1949.25" y="-1813.2" font-family="Times New Roman,serif" font-size="14.00">실습결과물/14/2026_4_10_주간 업무일지.md</text>
</g>
<!-- 실습결과물/14/10&#45;주간업무일지&#45;INDEX&#45;&gt;실습결과물/14/2026_4_10_주간 업무일지 -->
<g id="edge53" class="edge">
<title>실습결과물/14/10&#45;주간업무일지&#45;INDEX&#45;&gt;실습결과물/14/2026_4_10_주간 업무일지</title>
<path fill="none" stroke="black" d="M1694.86,-1806.91C1724.46,-1809.2 1755.72,-1811.62 1785.8,-1813.94"/>
<polygon fill="black" stroke="black" points="1785.51,-1817.43 1795.75,-1814.71 1786.05,-1810.45 1785.51,-1817.43"/>
</g>
<!-- 실습결과물/14/2026_4_3_주간 업무일지 -->
<g id="node48" class="node">
<title>실습결과물/14/2026_4_3_주간 업무일지</title>
<path fill="none" stroke="black" d="M2085.5,-1786.75C2085.5,-1786.75 1813,-1786.75 1813,-1786.75 1807,-1786.75 1801,-1780.75 1801,-1774.75 1801,-1774.75 1801,-1756.25 1801,-1756.25 1801,-1750.25 1807,-1744.25 1813,-1744.25 1813,-1744.25 2085.5,-1744.25 2085.5,-1744.25 2091.5,-1744.25 2097.5,-1750.25 2097.5,-1756.25 2097.5,-1756.25 2097.5,-1774.75 2097.5,-1774.75 2097.5,-1780.75 2091.5,-1786.75 2085.5,-1786.75"/>
<text xml:space="preserve" text-anchor="middle" x="1949.25" y="-1769.45" font-family="Times New Roman,serif" font-size="14.00">🗓️ 주간 업무 보고서</text>
<text xml:space="preserve" text-anchor="middle" x="1949.25" y="-1752.2" font-family="Times New Roman,serif" font-size="14.00">실습결과물/14/2026_4_3_주간 업무일지.md</text>
</g>
<!-- 실습결과물/14/10&#45;주간업무일지&#45;INDEX&#45;&gt;실습결과물/14/2026_4_3_주간 업무일지 -->
<g id="edge52" class="edge">
<title>실습결과물/14/10&#45;주간업무일지&#45;INDEX&#45;&gt;실습결과물/14/2026_4_3_주간 업무일지</title>
<path fill="none" stroke="black" d="M1694.86,-1784.46C1725.59,-1782.16 1758.1,-1779.73 1789.22,-1777.4"/>
<polygon fill="black" stroke="black" points="1789.4,-1780.89 1799.11,-1776.66 1788.88,-1773.91 1789.4,-1780.89"/>
</g>
<!-- 실습결과물/14/10&#45;주간업무일지&#45;INDEX&#45;&gt;실습결과물/14/업무일지 작성프롬프트 -->
<g id="edge54" class="edge">
<title>실습결과물/14/10&#45;주간업무일지&#45;INDEX&#45;&gt;실습결과물/14/업무일지 작성프롬프트</title>
<path fill="none" stroke="black" d="M1604.7,-1773.82C1640.45,-1761.05 1687.63,-1745.49 1730.5,-1735.5 1749.08,-1731.17 1768.71,-1727.35 1788.26,-1724"/>
<polygon fill="black" stroke="black" points="1788.65,-1727.49 1797.94,-1722.39 1787.5,-1720.58 1788.65,-1727.49"/>
</g>
<!-- 실습결과물/14/20&#45;수중드론&#45;INDEX&#45;&gt;실습결과물/13/수중드론_사업화_기획안 -->
<g id="edge63" class="edge">
<title>실습결과물/14/20&#45;수중드론&#45;INDEX&#45;&gt;실습결과물/13/수중드론_사업화_기획안</title>
<path fill="none" stroke="black" d="M183.02,-1517.15C209.37,-1565.09 280.25,-1679.39 377.5,-1722.5 473.7,-1765.14 756.89,-1769.56 851,-1722.5 874.85,-1710.57 863.98,-1687.95 887,-1674.5 908.8,-1661.76 933.63,-1653.33 958.82,-1647.88"/>
<polygon fill="black" stroke="black" points="959.4,-1651.33 968.53,-1645.95 958.04,-1644.47 959.4,-1651.33"/>
</g>
<!-- 실습결과물/14/20&#45;수중드론&#45;INDEX&#45;&gt;실습결과물/13/해양드론딥리서치결과 -->
<g id="edge62" class="edge">
<title>실습결과물/14/20&#45;수중드론&#45;INDEX&#45;&gt;실습결과물/13/해양드론딥리서치결과</title>
<path fill="none" stroke="black" d="M247.81,-1517.13C286.35,-1527.18 334.06,-1538.27 377.5,-1544.5 570.52,-1572.16 794.16,-1580.44 945.85,-1582.56"/>
<polygon fill="black" stroke="black" points="945.55,-1586.06 955.59,-1582.69 945.64,-1579.06 945.55,-1586.06"/>
</g>
<!-- 실습결과물/14/20&#45;수중드론&#45;INDEX&#45;&gt;실습결과물/14/00&#45;INDEX -->
<g id="edge64" class="edge">
<title>실습결과물/14/20&#45;수중드론&#45;INDEX&#45;&gt;실습결과물/14/00&#45;INDEX</title>
<path fill="none" stroke="black" d="M247.69,-1473.8C286.4,-1466.57 334.31,-1459.78 377.5,-1456.5 603.27,-1439.37 868.58,-1443.3 1014.14,-1450.39"/>
<polygon fill="black" stroke="black" points="1013.59,-1453.86 1023.76,-1450.87 1013.95,-1446.87 1013.59,-1453.86"/>
</g>
<!-- 실습결과물/14/수중드론_사업화_1페이지_BLUF -->
<g id="node59" class="node">
<title>실습결과물/14/수중드론_사업화_1페이지_BLUF</title>
<path fill="none" stroke="black" d="M1290.38,-1420.75C1290.38,-1420.75 958.62,-1420.75 958.62,-1420.75 952.62,-1420.75 946.62,-1414.75 946.62,-1408.75 946.62,-1408.75 946.62,-1390.25 946.62,-1390.25 946.62,-1384.25 952.62,-1378.25 958.62,-1378.25 958.62,-1378.25 1290.38,-1378.25 1290.38,-1378.25 1296.38,-1378.25 1302.38,-1384.25 1302.38,-1390.25 1302.38,-1390.25 1302.38,-1408.75 1302.38,-1408.75 1302.38,-1414.75 1296.38,-1420.75 1290.38,-1420.75"/>
<text xml:space="preserve" text-anchor="middle" x="1124.5" y="-1403.45" font-family="Times New Roman,serif" font-size="14.00">수중드론 사업화 1페이지 요약안 (BLUF)</text>
<text xml:space="preserve" text-anchor="middle" x="1124.5" y="-1386.2" font-family="Times New Roman,serif" font-size="14.00">실습결과물/14/수중드론_사업화_1페이지_BLUF.md</text>
</g>
<!-- 실습결과물/14/20&#45;수중드론&#45;INDEX&#45;&gt;실습결과물/14/수중드론_사업화_1페이지_BLUF -->
<g id="edge59" class="edge">
<title>실습결과물/14/20&#45;수중드론&#45;INDEX&#45;&gt;실습결과물/14/수중드론_사업화_1페이지_BLUF</title>
<path fill="none" stroke="black" d="M252.79,-1473.86C290.45,-1464.61 335.99,-1454.57 377.5,-1448.5 566.07,-1420.95 783.73,-1408.88 935.08,-1403.6"/>
<polygon fill="black" stroke="black" points="934.93,-1407.11 944.8,-1403.27 934.69,-1400.11 934.93,-1407.11"/>
</g>
<!-- 실습결과물/14/수중드론_사업화_1페이지_BLUF_열정설득서술형 -->
<g id="node60" class="node">
<title>실습결과물/14/수중드론_사업화_1페이지_BLUF_열정설득서술형</title>
<path fill="none" stroke="black" d="M839,-1713.75C839,-1713.75 389.5,-1713.75 389.5,-1713.75 383.5,-1713.75 377.5,-1707.75 377.5,-1701.75 377.5,-1701.75 377.5,-1683.25 377.5,-1683.25 377.5,-1677.25 383.5,-1671.25 389.5,-1671.25 389.5,-1671.25 839,-1671.25 839,-1671.25 845,-1671.25 851,-1677.25 851,-1683.25 851,-1683.25 851,-1701.75 851,-1701.75 851,-1707.75 845,-1713.75 839,-1713.75"/>
<text xml:space="preserve" text-anchor="middle" x="614.25" y="-1696.45" font-family="Times New Roman,serif" font-size="14.00">수중드론 사업화 1페이지 제안서 (열정·설득 서술형)</text>
<text xml:space="preserve" text-anchor="middle" x="614.25" y="-1679.2" font-family="Times New Roman,serif" font-size="14.00">실습결과물/14/수중드론_사업화_1페이지_BLUF_열정설득서술형.md</text>
</g>
<!-- 실습결과물/14/20&#45;수중드론&#45;INDEX&#45;&gt;실습결과물/14/수중드론_사업화_1페이지_BLUF_열정설득서술형 -->
<g id="edge60" class="edge">
<title>실습결과물/14/20&#45;수중드론&#45;INDEX&#45;&gt;실습결과물/14/수중드론_사업화_1페이지_BLUF_열정설득서술형</title>
<path fill="none" stroke="black" d="M190.8,-1517.22C224.4,-1553.92 298.19,-1627.52 377.5,-1661.5 382.16,-1663.5 386.92,-1665.37 391.75,-1667.14"/>
<polygon fill="black" stroke="black" points="390.42,-1670.38 401.01,-1670.33 392.7,-1663.76 390.42,-1670.38"/>
</g>
<!-- 실습결과물/14/수중드론_사업화_1페이지_BLUF_포멀서술형 -->
<g id="node61" class="node">
<title>실습결과물/14/수중드론_사업화_1페이지_BLUF_포멀서술형</title>
<path fill="none" stroke="black" d="M823.25,-1652.75C823.25,-1652.75 405.25,-1652.75 405.25,-1652.75 399.25,-1652.75 393.25,-1646.75 393.25,-1640.75 393.25,-1640.75 393.25,-1622.25 393.25,-1622.25 393.25,-1616.25 399.25,-1610.25 405.25,-1610.25 405.25,-1610.25 823.25,-1610.25 823.25,-1610.25 829.25,-1610.25 835.25,-1616.25 835.25,-1622.25 835.25,-1622.25 835.25,-1640.75 835.25,-1640.75 835.25,-1646.75 829.25,-1652.75 823.25,-1652.75"/>
<text xml:space="preserve" text-anchor="middle" x="614.25" y="-1635.45" font-family="Times New Roman,serif" font-size="14.00">수중드론 사업화 1페이지 보고서 (포멀 서술형)</text>
<text xml:space="preserve" text-anchor="middle" x="614.25" y="-1618.2" font-family="Times New Roman,serif" font-size="14.00">실습결과물/14/수중드론_사업화_1페이지_BLUF_포멀서술형.md</text>
</g>
<!-- 실습결과물/14/20&#45;수중드론&#45;INDEX&#45;&gt;실습결과물/14/수중드론_사업화_1페이지_BLUF_포멀서술형 -->
<g id="edge61" class="edge">
<title>실습결과물/14/20&#45;수중드론&#45;INDEX&#45;&gt;실습결과물/14/수중드론_사업화_1페이지_BLUF_포멀서술형</title>
<path fill="none" stroke="black" d="M207.14,-1517.1C247.05,-1540.45 314.62,-1576.92 377.5,-1596.5 390.51,-1600.55 404.08,-1604.14 417.85,-1607.32"/>
<polygon fill="black" stroke="black" points="416.93,-1610.7 427.45,-1609.45 418.44,-1603.87 416.93,-1610.7"/>
</g>
<!-- 실습결과물/14/수중드론_사업화_기획안 -->
<g id="node62" class="node">
<title>실습결과물/14/수중드론_사업화_기획안</title>
<path fill="none" stroke="black" d="M756.5,-1516.75C756.5,-1516.75 472,-1516.75 472,-1516.75 466,-1516.75 460,-1510.75 460,-1504.75 460,-1504.75 460,-1486.25 460,-1486.25 460,-1480.25 466,-1474.25 472,-1474.25 472,-1474.25 756.5,-1474.25 756.5,-1474.25 762.5,-1474.25 768.5,-1480.25 768.5,-1486.25 768.5,-1486.25 768.5,-1504.75 768.5,-1504.75 768.5,-1510.75 762.5,-1516.75 756.5,-1516.75"/>
<text xml:space="preserve" text-anchor="middle" x="614.25" y="-1499.45" font-family="Times New Roman,serif" font-size="14.00">수중드론 사업화 기획안(운영형)</text>
<text xml:space="preserve" text-anchor="middle" x="614.25" y="-1482.2" font-family="Times New Roman,serif" font-size="14.00">실습결과물/14/수중드론_사업화_기획안.md</text>
</g>
<!-- 실습결과물/14/20&#45;수중드론&#45;INDEX&#45;&gt;실습결과물/14/수중드론_사업화_기획안 -->
<g id="edge56" class="edge">
<title>실습결과물/14/20&#45;수중드론&#45;INDEX&#45;&gt;실습결과물/14/수중드론_사업화_기획안</title>
<path fill="none" stroke="black" d="M303.62,-1489.26C349.02,-1488.71 400.44,-1488.6 448.15,-1488.94"/>
<polygon fill="black" stroke="black" points="448.01,-1492.44 458.03,-1489.02 448.06,-1485.44 448.01,-1492.44"/>
</g>
<!-- 실습결과물/14/수중드론_사업화_상세기획안 -->
<g id="node63" class="node">
<title>실습결과물/14/수중드론_사업화_상세기획안</title>
<path fill="none" stroke="black" d="M1282.5,-1359.75C1282.5,-1359.75 966.5,-1359.75 966.5,-1359.75 960.5,-1359.75 954.5,-1353.75 954.5,-1347.75 954.5,-1347.75 954.5,-1329.25 954.5,-1329.25 954.5,-1323.25 960.5,-1317.25 966.5,-1317.25 966.5,-1317.25 1282.5,-1317.25 1282.5,-1317.25 1288.5,-1317.25 1294.5,-1323.25 1294.5,-1329.25 1294.5,-1329.25 1294.5,-1347.75 1294.5,-1347.75 1294.5,-1353.75 1288.5,-1359.75 1282.5,-1359.75"/>
<text xml:space="preserve" text-anchor="middle" x="1124.5" y="-1342.45" font-family="Times New Roman,serif" font-size="14.00">수중드론 사업화 상세 기획안</text>
<text xml:space="preserve" text-anchor="middle" x="1124.5" y="-1325.2" font-family="Times New Roman,serif" font-size="14.00">실습결과물/14/수중드론_사업화_상세기획안.md</text>
</g>
<!-- 실습결과물/14/20&#45;수중드론&#45;INDEX&#45;&gt;실습결과물/14/수중드론_사업화_상세기획안 -->
<g id="edge57" class="edge">
<title>실습결과물/14/20&#45;수중드론&#45;INDEX&#45;&gt;실습결과물/14/수중드론_사업화_상세기획안</title>
<path fill="none" stroke="black" d="M209.78,-1473.83C250.05,-1452.03 316.14,-1419.41 377.5,-1403.5 566.26,-1354.56 789.93,-1340.65 942.8,-1337.53"/>
<polygon fill="black" stroke="black" points="942.69,-1341.03 952.62,-1337.34 942.56,-1334.03 942.69,-1341.03"/>
</g>
<!-- 실습결과물/14/수중드론_사업화_타당성 -->
<g id="node64" class="node">
<title>실습결과물/14/수중드론_사업화_타당성</title>
<path fill="none" stroke="black" d="M1350,-1542.75C1350,-1542.75 899,-1542.75 899,-1542.75 893,-1542.75 887,-1536.75 887,-1530.75 887,-1530.75 887,-1512.25 887,-1512.25 887,-1506.25 893,-1500.25 899,-1500.25 899,-1500.25 1350,-1500.25 1350,-1500.25 1356,-1500.25 1362,-1506.25 1362,-1512.25 1362,-1512.25 1362,-1530.75 1362,-1530.75 1362,-1536.75 1356,-1542.75 1350,-1542.75"/>
<text xml:space="preserve" text-anchor="middle" x="1124.5" y="-1525.45" font-family="Times New Roman,serif" font-size="14.00">수중드론 사업화 운영안 초안 타당성 검증 및 객관적 피드백 보고서</text>
<text xml:space="preserve" text-anchor="middle" x="1124.5" y="-1508.2" font-family="Times New Roman,serif" font-size="14.00">실습결과물/14/수중드론_사업화_타당성.md</text>
</g>
<!-- 실습결과물/14/20&#45;수중드론&#45;INDEX&#45;&gt;실습결과물/14/수중드론_사업화_타당성 -->
<g id="edge58" class="edge">
<title>실습결과물/14/20&#45;수중드론&#45;INDEX&#45;&gt;실습결과물/14/수중드론_사업화_타당성</title>
<path fill="none" stroke="black" d="M300.67,-1517.22C326.07,-1520.67 352.57,-1523.69 377.5,-1525.5 543.21,-1537.52 730.17,-1536.49 875.47,-1532.47"/>
<polygon fill="black" stroke="black" points="875.33,-1535.97 885.23,-1532.19 875.13,-1528.97 875.33,-1535.97"/>
</g>
<!-- 실습결과물/14/30&#45;소설&#45;INDEX&#45;&gt;실습결과물/14/00&#45;INDEX -->
<g id="edge74" class="edge">
<title>실습결과물/14/30&#45;소설&#45;INDEX&#45;&gt;실습결과물/14/00&#45;INDEX</title>
<path fill="none" stroke="black" d="M1429.06,-1466.61C1368.41,-1467.5 1294.63,-1467.46 1234.99,-1466.51"/>
<polygon fill="black" stroke="black" points="1235.22,-1463.01 1225.16,-1466.34 1235.1,-1470.01 1235.22,-1463.01"/>
</g>
<!-- 실습결과물/14/고려빙의_스토리라인 -->
<g id="node51" class="node">
<title>실습결과물/14/고려빙의_스토리라인</title>
<path fill="none" stroke="black" d="M2080.25,-1359.75C2080.25,-1359.75 1818.25,-1359.75 1818.25,-1359.75 1812.25,-1359.75 1806.25,-1353.75 1806.25,-1347.75 1806.25,-1347.75 1806.25,-1329.25 1806.25,-1329.25 1806.25,-1323.25 1812.25,-1317.25 1818.25,-1317.25 1818.25,-1317.25 2080.25,-1317.25 2080.25,-1317.25 2086.25,-1317.25 2092.25,-1323.25 2092.25,-1329.25 2092.25,-1329.25 2092.25,-1347.75 2092.25,-1347.75 2092.25,-1353.75 2086.25,-1359.75 2080.25,-1359.75"/>
<text xml:space="preserve" text-anchor="middle" x="1949.25" y="-1342.45" font-family="Times New Roman,serif" font-size="14.00">철혈의 새벽: 고려의 그림자 설계자</text>
<text xml:space="preserve" text-anchor="middle" x="1949.25" y="-1325.2" font-family="Times New Roman,serif" font-size="14.00">실습결과물/14/고려빙의_스토리라인.md</text>
</g>
<!-- 실습결과물/14/30&#45;소설&#45;INDEX&#45;&gt;실습결과물/14/고려빙의_스토리라인 -->
<g id="edge65" class="edge">
<title>실습결과물/14/30&#45;소설&#45;INDEX&#45;&gt;실습결과물/14/고려빙의_스토리라인</title>
<path fill="none" stroke="black" d="M1663.16,-1442.15C1674.29,-1437.73 1684.96,-1432.26 1694.5,-1425.5 1718.64,-1408.39 1705.6,-1385.48 1730.5,-1369.5 1749.76,-1357.14 1771.95,-1348.87 1794.62,-1343.45"/>
<polygon fill="black" stroke="black" points="1795.28,-1346.89 1804.3,-1341.33 1793.79,-1340.05 1795.28,-1346.89"/>
</g>
<!-- 실습결과물/14/목파_5부작_목차 -->
<g id="node52" class="node">
<title>실습결과물/14/목파_5부작_목차</title>
<path fill="none" stroke="black" d="M2090.38,-1298.75C2090.38,-1298.75 1808.12,-1298.75 1808.12,-1298.75 1802.12,-1298.75 1796.12,-1292.75 1796.12,-1286.75 1796.12,-1286.75 1796.12,-1268.25 1796.12,-1268.25 1796.12,-1262.25 1802.12,-1256.25 1808.12,-1256.25 1808.12,-1256.25 2090.38,-1256.25 2090.38,-1256.25 2096.38,-1256.25 2102.38,-1262.25 2102.38,-1268.25 2102.38,-1268.25 2102.38,-1286.75 2102.38,-1286.75 2102.38,-1292.75 2096.38,-1298.75 2090.38,-1298.75"/>
<text xml:space="preserve" text-anchor="middle" x="1949.25" y="-1281.45" font-family="Times New Roman,serif" font-size="14.00">철혈의 새벽: 고려의 그림자 설계자 (5부작)</text>
<text xml:space="preserve" text-anchor="middle" x="1949.25" y="-1264.2" font-family="Times New Roman,serif" font-size="14.00">실습결과물/14/목파_5부작_목차.md</text>
</g>
<!-- 실습결과물/14/30&#45;소설&#45;INDEX&#45;&gt;실습결과물/14/목파_5부작_목차 -->
<g id="edge66" class="edge">
<title>실습결과물/14/30&#45;소설&#45;INDEX&#45;&gt;실습결과물/14/목파_5부작_목차</title>
<path fill="none" stroke="black" d="M1663.41,-1445.49C1674.82,-1440.47 1685.49,-1433.94 1694.5,-1425.5 1734.2,-1388.3 1689.13,-1343.83 1730.5,-1308.5 1746.25,-1295.05 1765.11,-1285.9 1785.04,-1279.85"/>
<polygon fill="black" stroke="black" points="1785.7,-1283.29 1794.42,-1277.27 1783.85,-1276.54 1785.7,-1283.29"/>
</g>
<!-- 실습결과물/14/소설1권 -->
<g id="node53" class="node">
<title>실습결과물/14/소설1권</title>
<path fill="none" stroke="black" d="M2064.88,-1237.75C2064.88,-1237.75 1833.62,-1237.75 1833.62,-1237.75 1827.62,-1237.75 1821.62,-1231.75 1821.62,-1225.75 1821.62,-1225.75 1821.62,-1207.25 1821.62,-1207.25 1821.62,-1201.25 1827.62,-1195.25 1833.62,-1195.25 1833.62,-1195.25 2064.88,-1195.25 2064.88,-1195.25 2070.88,-1195.25 2076.88,-1201.25 2076.88,-1207.25 2076.88,-1207.25 2076.88,-1225.75 2076.88,-1225.75 2076.88,-1231.75 2070.88,-1237.75 2064.88,-1237.75"/>
<text xml:space="preserve" text-anchor="middle" x="1949.25" y="-1220.45" font-family="Times New Roman,serif" font-size="14.00">철혈의 새벽: 고려의 그림자 설계자</text>
<text xml:space="preserve" text-anchor="middle" x="1949.25" y="-1203.2" font-family="Times New Roman,serif" font-size="14.00">실습결과물/14/소설1권.md</text>
</g>
<!-- 실습결과물/14/30&#45;소설&#45;INDEX&#45;&gt;실습결과물/14/소설1권 -->
<g id="edge68" class="edge">
<title>실습결과물/14/30&#45;소설&#45;INDEX&#45;&gt;실습결과물/14/소설1권</title>
<path fill="none" stroke="black" d="M1663.19,-1446.85C1674.86,-1441.61 1685.64,-1434.66 1694.5,-1425.5 1750.6,-1367.47 1671.79,-1302.89 1730.5,-1247.5 1752.11,-1227.11 1780.7,-1216.25 1810.03,-1211.01"/>
<polygon fill="black" stroke="black" points="1810.45,-1214.49 1819.8,-1209.5 1809.38,-1207.57 1810.45,-1214.49"/>
</g>
<!-- 실습결과물/14/소설2권 -->
<g id="node54" class="node">
<title>실습결과물/14/소설2권</title>
<path fill="none" stroke="black" d="M2064.88,-1664.75C2064.88,-1664.75 1833.62,-1664.75 1833.62,-1664.75 1827.62,-1664.75 1821.62,-1658.75 1821.62,-1652.75 1821.62,-1652.75 1821.62,-1634.25 1821.62,-1634.25 1821.62,-1628.25 1827.62,-1622.25 1833.62,-1622.25 1833.62,-1622.25 2064.88,-1622.25 2064.88,-1622.25 2070.88,-1622.25 2076.88,-1628.25 2076.88,-1634.25 2076.88,-1634.25 2076.88,-1652.75 2076.88,-1652.75 2076.88,-1658.75 2070.88,-1664.75 2064.88,-1664.75"/>
<text xml:space="preserve" text-anchor="middle" x="1949.25" y="-1647.45" font-family="Times New Roman,serif" font-size="14.00">철혈의 새벽: 고려의 그림자 설계자</text>
<text xml:space="preserve" text-anchor="middle" x="1949.25" y="-1630.2" font-family="Times New Roman,serif" font-size="14.00">실습결과물/14/소설2권.md</text>
</g>
<!-- 실습결과물/14/30&#45;소설&#45;INDEX&#45;&gt;실습결과물/14/소설2권 -->
<g id="edge69" class="edge">
<title>실습결과물/14/30&#45;소설&#45;INDEX&#45;&gt;실습결과물/14/소설2권</title>
<path fill="none" stroke="black" d="M1570.03,-1482.13C1610.61,-1520.17 1694.5,-1596.56 1730.5,-1612.5 1755.2,-1623.44 1782.88,-1630.7 1810.01,-1635.48"/>
<polygon fill="black" stroke="black" points="1809.25,-1638.9 1819.69,-1637.07 1810.39,-1632 1809.25,-1638.9"/>
</g>
<!-- 실습결과물/14/소설3권 -->
<g id="node55" class="node">
<title>실습결과물/14/소설3권</title>
<path fill="none" stroke="black" d="M2064.88,-1603.75C2064.88,-1603.75 1833.62,-1603.75 1833.62,-1603.75 1827.62,-1603.75 1821.62,-1597.75 1821.62,-1591.75 1821.62,-1591.75 1821.62,-1573.25 1821.62,-1573.25 1821.62,-1567.25 1827.62,-1561.25 1833.62,-1561.25 1833.62,-1561.25 2064.88,-1561.25 2064.88,-1561.25 2070.88,-1561.25 2076.88,-1567.25 2076.88,-1573.25 2076.88,-1573.25 2076.88,-1591.75 2076.88,-1591.75 2076.88,-1597.75 2070.88,-1603.75 2064.88,-1603.75"/>
<text xml:space="preserve" text-anchor="middle" x="1949.25" y="-1586.45" font-family="Times New Roman,serif" font-size="14.00">철혈의 새벽: 고려의 그림자 설계자</text>
<text xml:space="preserve" text-anchor="middle" x="1949.25" y="-1569.2" font-family="Times New Roman,serif" font-size="14.00">실습결과물/14/소설3권.md</text>
</g>
<!-- 실습결과물/14/30&#45;소설&#45;INDEX&#45;&gt;실습결과물/14/소설3권 -->
<g id="edge70" class="edge">
<title>실습결과물/14/30&#45;소설&#45;INDEX&#45;&gt;실습결과물/14/소설3권</title>
<path fill="none" stroke="black" d="M1582.33,-1482.18C1618.21,-1503.31 1676.22,-1534.64 1730.5,-1551.5 1755.82,-1559.36 1783.42,-1565.24 1810.21,-1569.64"/>
<polygon fill="black" stroke="black" points="1809.31,-1573.04 1819.73,-1571.13 1810.4,-1566.12 1809.31,-1573.04"/>
</g>
<!-- 실습결과물/14/소설4권 -->
<g id="node56" class="node">
<title>실습결과물/14/소설4권</title>
<path fill="none" stroke="black" d="M2064.88,-1542.75C2064.88,-1542.75 1833.62,-1542.75 1833.62,-1542.75 1827.62,-1542.75 1821.62,-1536.75 1821.62,-1530.75 1821.62,-1530.75 1821.62,-1512.25 1821.62,-1512.25 1821.62,-1506.25 1827.62,-1500.25 1833.62,-1500.25 1833.62,-1500.25 2064.88,-1500.25 2064.88,-1500.25 2070.88,-1500.25 2076.88,-1506.25 2076.88,-1512.25 2076.88,-1512.25 2076.88,-1530.75 2076.88,-1530.75 2076.88,-1536.75 2070.88,-1542.75 2064.88,-1542.75"/>
<text xml:space="preserve" text-anchor="middle" x="1949.25" y="-1525.45" font-family="Times New Roman,serif" font-size="14.00">철혈의 새벽: 고려의 그림자 설계자</text>
<text xml:space="preserve" text-anchor="middle" x="1949.25" y="-1508.2" font-family="Times New Roman,serif" font-size="14.00">실습결과물/14/소설4권.md</text>
</g>
<!-- 실습결과물/14/30&#45;소설&#45;INDEX&#45;&gt;실습결과물/14/소설4권 -->
<g id="edge71" class="edge">
<title>실습결과물/14/30&#45;소설&#45;INDEX&#45;&gt;실습결과물/14/소설4권</title>
<path fill="none" stroke="black" d="M1663.03,-1479.83C1685.4,-1483.46 1708.67,-1487.16 1730.5,-1490.5 1756.18,-1494.43 1783.59,-1498.46 1809.99,-1502.26"/>
<polygon fill="black" stroke="black" points="1809.35,-1505.7 1819.74,-1503.66 1810.34,-1498.77 1809.35,-1505.7"/>
</g>
<!-- 실습결과물/14/소설5권 -->
<g id="node57" class="node">
<title>실습결과물/14/소설5권</title>
<path fill="none" stroke="black" d="M2064.88,-1481.75C2064.88,-1481.75 1833.62,-1481.75 1833.62,-1481.75 1827.62,-1481.75 1821.62,-1475.75 1821.62,-1469.75 1821.62,-1469.75 1821.62,-1451.25 1821.62,-1451.25 1821.62,-1445.25 1827.62,-1439.25 1833.62,-1439.25 1833.62,-1439.25 2064.88,-1439.25 2064.88,-1439.25 2070.88,-1439.25 2076.88,-1445.25 2076.88,-1451.25 2076.88,-1451.25 2076.88,-1469.75 2076.88,-1469.75 2076.88,-1475.75 2070.88,-1481.75 2064.88,-1481.75"/>
<text xml:space="preserve" text-anchor="middle" x="1949.25" y="-1464.45" font-family="Times New Roman,serif" font-size="14.00">철혈의 새벽: 고려의 그림자 설계자</text>
<text xml:space="preserve" text-anchor="middle" x="1949.25" y="-1447.2" font-family="Times New Roman,serif" font-size="14.00">실습결과물/14/소설5권.md</text>
</g>
<!-- 실습결과물/14/30&#45;소설&#45;INDEX&#45;&gt;실습결과물/14/소설5권 -->
<g id="edge72" class="edge">
<title>실습결과물/14/30&#45;소설&#45;INDEX&#45;&gt;실습결과물/14/소설5권</title>
<path fill="none" stroke="black" d="M1663.24,-1460.5C1709.06,-1460.5 1762.1,-1460.5 1809.9,-1460.5"/>
<polygon fill="black" stroke="black" points="1809.78,-1464 1819.78,-1460.5 1809.78,-1457 1809.78,-1464"/>
</g>
<!-- 실습결과물/14/소설_연속작성_토큰로그 -->
<g id="node58" class="node">
<title>실습결과물/14/소설_연속작성_토큰로그</title>
<path fill="none" stroke="black" d="M2114,-1420.75C2114,-1420.75 1784.5,-1420.75 1784.5,-1420.75 1778.5,-1420.75 1772.5,-1414.75 1772.5,-1408.75 1772.5,-1408.75 1772.5,-1390.25 1772.5,-1390.25 1772.5,-1384.25 1778.5,-1378.25 1784.5,-1378.25 1784.5,-1378.25 2114,-1378.25 2114,-1378.25 2120,-1378.25 2126,-1384.25 2126,-1390.25 2126,-1390.25 2126,-1408.75 2126,-1408.75 2126,-1414.75 2120,-1420.75 2114,-1420.75"/>
<text xml:space="preserve" text-anchor="middle" x="1949.25" y="-1403.45" font-family="Times New Roman,serif" font-size="14.00">소설 5부작 작성 로그 (컨텍스트 압축 + 토큰 추정)</text>
<text xml:space="preserve" text-anchor="middle" x="1949.25" y="-1386.2" font-family="Times New Roman,serif" font-size="14.00">실습결과물/14/소설_연속작성_토큰로그.md</text>
</g>
<!-- 실습결과물/14/30&#45;소설&#45;INDEX&#45;&gt;실습결과물/14/소설_연속작성_토큰로그 -->
<g id="edge73" class="edge">
<title>실습결과물/14/30&#45;소설&#45;INDEX&#45;&gt;실습결과물/14/소설_연속작성_토큰로그</title>
<path fill="none" stroke="black" d="M1663.03,-1441.17C1685.4,-1437.54 1708.67,-1433.84 1730.5,-1430.5 1746.99,-1427.98 1764.19,-1425.41 1781.38,-1422.89"/>
<polygon fill="black" stroke="black" points="1781.78,-1426.37 1791.17,-1421.47 1780.77,-1419.45 1781.78,-1426.37"/>
</g>
<!-- 실습결과물/14/30&#45;소설&#45;INDEX&#45;&gt;실습결과물/14/시대상 과 역사적 사실 -->
<g id="edge67" class="edge">
<title>실습결과물/14/30&#45;소설&#45;INDEX&#45;&gt;실습결과물/14/시대상 과 역사적 사실</title>
<path fill="none" stroke="black" d="M1663.29,-1447.45C1675.01,-1442.11 1685.79,-1434.98 1694.5,-1425.5 1767.21,-1346.43 1654.24,-1262.15 1730.5,-1186.5 1731.24,-1185.76 1731.99,-1185.04 1732.75,-1184.33"/>
<polygon fill="black" stroke="black" points="1734.69,-1187.28 1740.05,-1178.14 1730.16,-1181.94 1734.69,-1187.28"/>
</g>
<!-- 실습결과물/14/수중드론_사업화_기획안&#45;&gt;실습결과물/13/수중드론_사업화_기획안 -->
<g id="edge81" class="edge">
<title>실습결과물/14/수중드론_사업화_기획안&#45;&gt;실습결과물/13/수중드론_사업화_기획안</title>
<path fill="none" stroke="black" d="M661.37,-1517.2C726.51,-1547.52 842.49,-1600.26 887,-1612.5 909.94,-1618.81 934.49,-1623.85 958.78,-1627.87"/>
<polygon fill="black" stroke="black" points="957.99,-1631.29 968.42,-1629.41 959.1,-1624.38 957.99,-1631.29"/>
</g>
<!-- 실습결과물/14/수중드론_사업화_기획안&#45;&gt;실습결과물/13/해양드론딥리서치결과 -->
<g id="edge80" class="edge">
<title>실습결과물/14/수중드론_사업화_기획안&#45;&gt;실습결과물/13/해양드론딥리서치결과</title>
<path fill="none" stroke="black" d="M712.09,-1517.24C763.82,-1528.41 828.69,-1541.68 887,-1551.5 906.03,-1554.7 925.98,-1557.77 945.87,-1560.64"/>
<polygon fill="black" stroke="black" points="945.34,-1564.1 955.74,-1562.05 946.33,-1557.17 945.34,-1564.1"/>
</g>
<!-- 실습결과물/14/수중드론_사업화_기획안&#45;&gt;실습결과물/14/00&#45;INDEX -->
<g id="edge75" class="edge">
<title>실습결과물/14/수중드론_사업화_기획안&#45;&gt;실습결과물/14/00&#45;INDEX</title>
<path fill="none" stroke="black" d="M768.78,-1484.93C847.83,-1479.48 942.38,-1472.97 1013.97,-1468.04"/>
<polygon fill="black" stroke="black" points="1014.01,-1471.55 1023.75,-1467.37 1013.53,-1464.56 1014.01,-1471.55"/>
</g>
<!-- 실습결과물/14/수중드론_사업화_기획안&#45;&gt;실습결과물/14/20&#45;수중드론&#45;INDEX -->
<g id="edge76" class="edge">
<title>실습결과물/14/수중드론_사업화_기획안&#45;&gt;실습결과물/14/20&#45;수중드론&#45;INDEX</title>
<path fill="none" stroke="black" d="M459.55,-1501.97C412.59,-1502.38 361.17,-1502.34 314.94,-1501.87"/>
<polygon fill="black" stroke="black" points="315.17,-1498.37 305.13,-1501.76 315.09,-1505.37 315.17,-1498.37"/>
</g>
<!-- 실습결과물/14/수중드론_사업화_기획안&#45;&gt;실습결과물/14/수중드론_사업화_1페이지_BLUF -->
<g id="edge79" class="edge">
<title>실습결과물/14/수중드론_사업화_기획안&#45;&gt;실습결과물/14/수중드론_사업화_1페이지_BLUF</title>
<path fill="none" stroke="black" d="M696.23,-1473.78C750.02,-1459.94 822.36,-1442.43 887,-1430.5 902.55,-1427.63 918.72,-1424.92 934.99,-1422.4"/>
<polygon fill="black" stroke="black" points="935.4,-1425.88 944.76,-1420.91 934.35,-1418.96 935.4,-1425.88"/>
</g>
<!-- 실습결과물/14/수중드론_사업화_기획안&#45;&gt;실습결과물/14/수중드론_사업화_상세기획안 -->
<g id="edge77" class="edge">
<title>실습결과물/14/수중드론_사업화_기획안&#45;&gt;실습결과물/14/수중드론_사업화_상세기획안</title>
<path fill="none" stroke="black" d="M652.09,-1473.99C703.07,-1445.27 798.85,-1395.06 887,-1369.5 904.95,-1364.29 923.93,-1359.96 943.01,-1356.35"/>
<polygon fill="black" stroke="black" points="943.54,-1359.81 952.76,-1354.58 942.29,-1352.92 943.54,-1359.81"/>
</g>
<!-- 실습결과물/14/수중드론_사업화_기획안&#45;&gt;실습결과물/14/수중드론_사업화_타당성 -->
<g id="edge78" class="edge">
<title>실습결과물/14/수중드론_사업화_기획안&#45;&gt;실습결과물/14/수중드론_사업화_타당성</title>
<path fill="none" stroke="black" d="M768.78,-1503.35C802.54,-1505.08 839.13,-1506.95 875.56,-1508.82"/>
<polygon fill="black" stroke="black" points="875.17,-1512.3 885.34,-1509.32 875.53,-1505.31 875.17,-1512.3"/>
</g>
<!-- 실습결과물/15/00&#45;INDEX -->
<g id="node68" class="node">
<title>실습결과물/15/00&#45;INDEX</title>
<path fill="none" stroke="black" d="M257.5,-80.75C257.5,-80.75 84,-80.75 84,-80.75 78,-80.75 72,-74.75 72,-68.75 72,-68.75 72,-50.25 72,-50.25 72,-44.25 78,-38.25 84,-38.25 84,-38.25 257.5,-38.25 257.5,-38.25 263.5,-38.25 269.5,-44.25 269.5,-50.25 269.5,-50.25 269.5,-68.75 269.5,-68.75 269.5,-74.75 263.5,-80.75 257.5,-80.75"/>
<text xml:space="preserve" text-anchor="middle" x="170.75" y="-63.45" font-family="Times New Roman,serif" font-size="14.00">실습결과물 15 인덱스</text>
<text xml:space="preserve" text-anchor="middle" x="170.75" y="-46.2" font-family="Times New Roman,serif" font-size="14.00">실습결과물/15/00&#45;INDEX.md</text>
</g>
<!-- 실습결과물/15/00&#45;INDEX&#45;&gt;AGENTS -->
<g id="edge83" class="edge">
<title>실습결과물/15/00&#45;INDEX&#45;&gt;AGENTS</title>
<path fill="none" stroke="black" d="M269.81,-76.75C303.8,-81.95 342.22,-86.94 377.5,-89.5 624.45,-107.41 918.6,-98.57 1051.73,-92.94"/>
<polygon fill="black" stroke="black" points="1051.6,-96.45 1061.44,-92.53 1051.3,-89.46 1051.6,-96.45"/>
</g>
<!-- 실습결과물/15/00&#45;INDEX&#45;&gt;llm_wiki/README -->
<g id="edge84" class="edge">
<title>실습결과물/15/00&#45;INDEX&#45;&gt;llm_wiki/README</title>
<path fill="none" stroke="black" d="M269.83,-42.49C303.81,-37.32 342.23,-32.27 377.5,-29.5 616.44,-10.72 899.74,-14.39 1038.41,-17.86"/>
<polygon fill="black" stroke="black" points="1038.16,-21.36 1048.25,-18.12 1038.34,-14.36 1038.16,-21.36"/>
</g>
<!-- 실습결과물/15/wikiLLM -->
<g id="node69" class="node">
<title>실습결과물/15/wikiLLM</title>
<path fill="none" stroke="black" d="M725.75,-80.75C725.75,-80.75 502.75,-80.75 502.75,-80.75 496.75,-80.75 490.75,-74.75 490.75,-68.75 490.75,-68.75 490.75,-50.25 490.75,-50.25 490.75,-44.25 496.75,-38.25 502.75,-38.25 502.75,-38.25 725.75,-38.25 725.75,-38.25 731.75,-38.25 737.75,-44.25 737.75,-50.25 737.75,-50.25 737.75,-68.75 737.75,-68.75 737.75,-74.75 731.75,-80.75 725.75,-80.75"/>
<text xml:space="preserve" text-anchor="middle" x="614.25" y="-63.45" font-family="Times New Roman,serif" font-size="14.00">wikillm 을 구현하기 위한 프롬프트</text>
<text xml:space="preserve" text-anchor="middle" x="614.25" y="-46.2" font-family="Times New Roman,serif" font-size="14.00">실습결과물/15/wikiLLM.md</text>
</g>
<!-- 실습결과물/15/00&#45;INDEX&#45;&gt;실습결과물/15/wikiLLM -->
<g id="edge82" class="edge">
<title>실습결과물/15/00&#45;INDEX&#45;&gt;실습결과물/15/wikiLLM</title>
<path fill="none" stroke="black" d="M269.73,-53.78C331.34,-52.62 411.65,-52.44 479.12,-53.23"/>
<polygon fill="black" stroke="black" points="478.71,-56.73 488.75,-53.36 478.8,-49.73 478.71,-56.73"/>
</g>
<!-- 실습결과물/15/wikiLLM&#45;&gt;AGENTS -->
<g id="edge86" class="edge">
<title>실습결과물/15/wikiLLM&#45;&gt;AGENTS</title>
<path fill="none" stroke="black" d="M737.96,-66.74C836.16,-72.54 970.47,-80.47 1051.88,-85.27"/>
<polygon fill="black" stroke="black" points="1051.31,-88.75 1061.5,-85.84 1051.72,-81.76 1051.31,-88.75"/>
</g>
<!-- 실습결과물/15/wikiLLM&#45;&gt;llm_wiki/README -->
<g id="edge87" class="edge">
<title>실습결과물/15/wikiLLM&#45;&gt;llm_wiki/README</title>
<path fill="none" stroke="black" d="M737.96,-50.08C830.97,-42.95 956.37,-33.32 1038.54,-27.02"/>
<polygon fill="black" stroke="black" points="1038.63,-30.52 1048.33,-26.27 1038.1,-23.54 1038.63,-30.52"/>
</g>
<!-- 실습결과물/15/wikiLLM&#45;&gt;실습결과물/15/00&#45;INDEX -->
<g id="edge85" class="edge">
<title>실습결과물/15/wikiLLM&#45;&gt;실습결과물/15/00&#45;INDEX</title>
<path fill="none" stroke="black" d="M490.27,-65.62C424.59,-66.52 344.44,-66.45 280.98,-65.42"/>
<polygon fill="black" stroke="black" points="281.31,-61.92 271.25,-65.25 281.18,-68.92 281.31,-61.92"/>
</g>
</g>
</svg>
